<?xml version="1.0" encoding="UTF-8"?>
<!--Generator: Apple Native CoreSVG 175-->
<!DOCTYPE svg
PUBLIC "-//W3C//DTD SVG 1.1//EN"
       "http://www.w3.org/Graphics/SVG/1.1/DTD/svg11.dtd">
<svg version="1.1" xmlns="http://www.w3.org/2000/svg" xmlns:xlink="http://www.w3.org/1999/xlink" width="3300" height="2200">
 <!--glyph: "", point size: 100.0, font version: "17.3d3e1", template writer version: "65.1"-->
 <g id="Notes">
  <rect height="2200" id="artboard" style="fill:white;opacity:1" width="3300" x="0" y="0"/>
  <line style="fill:none;stroke:black;opacity:1;stroke-width:0.5;" x1="263" x2="3036" y1="292" y2="292"/>
  <text style="stroke:none;fill:black;font-family:sans-serif;font-size:13;font-weight:bold;" transform="matrix(1 0 0 1 263 322)">Weight/Scale Variations</text>
  <text style="stroke:none;fill:black;font-family:sans-serif;font-size:13;text-anchor:middle;" transform="matrix(1 0 0 1 559.711 322)">Ultralight</text>
  <text style="stroke:none;fill:black;font-family:sans-serif;font-size:13;text-anchor:middle;" transform="matrix(1 0 0 1 856.422 322)">Thin</text>
  <text style="stroke:none;fill:black;font-family:sans-serif;font-size:13;text-anchor:middle;" transform="matrix(1 0 0 1 1153.13 322)">Light</text>
  <text style="stroke:none;fill:black;font-family:sans-serif;font-size:13;text-anchor:middle;" transform="matrix(1 0 0 1 1449.84 322)">Regular</text>
  <text style="stroke:none;fill:black;font-family:sans-serif;font-size:13;text-anchor:middle;" transform="matrix(1 0 0 1 1746.56 322)">Medium</text>
  <text style="stroke:none;fill:black;font-family:sans-serif;font-size:13;text-anchor:middle;" transform="matrix(1 0 0 1 2043.27 322)">Semibold</text>
  <text style="stroke:none;fill:black;font-family:sans-serif;font-size:13;text-anchor:middle;" transform="matrix(1 0 0 1 2339.98 322)">Bold</text>
  <text style="stroke:none;fill:black;font-family:sans-serif;font-size:13;text-anchor:middle;" transform="matrix(1 0 0 1 2636.69 322)">Heavy</text>
  <text style="stroke:none;fill:black;font-family:sans-serif;font-size:13;text-anchor:middle;" transform="matrix(1 0 0 1 2933.4 322)">Black</text>
  <line style="fill:none;stroke:black;opacity:1;stroke-width:0.5;" x1="263" x2="3036" y1="1903" y2="1903"/>
  <g transform="matrix(1 0 0 1 263 1933)">
   <path d="M9.24805 0.830078Q10.8691 0.830078 12.2949 0.214844Q13.7207-0.400391 14.8096-1.49414Q15.8984-2.58789 16.5186-4.01367Q17.1387-5.43945 17.1387-7.05078Q17.1387-8.66211 16.5186-10.0879Q15.8984-11.5137 14.8047-12.6074Q13.7109-13.7012 12.2852-14.3164Q10.8594-14.9316 9.23828-14.9316Q7.62695-14.9316 6.20117-14.3164Q4.77539-13.7012 3.69141-12.6074Q2.60742-11.5137 1.9873-10.0879Q1.36719-8.66211 1.36719-7.05078Q1.36719-5.43945 1.9873-4.01367Q2.60742-2.58789 3.69629-1.49414Q4.78516-0.400391 6.21094 0.214844Q7.63672 0.830078 9.24805 0.830078ZM9.24805-0.654297Q7.91992-0.654297 6.7627-1.14746Q5.60547-1.64062 4.73145-2.51953Q3.85742-3.39844 3.36426-4.56055Q2.87109-5.72266 2.87109-7.05078Q2.87109-8.37891 3.35938-9.54102Q3.84766-10.7031 4.72168-11.582Q5.5957-12.4609 6.75293-12.9541Q7.91016-13.4473 9.23828-13.4473Q10.5762-13.4473 11.7334-12.9541Q12.8906-12.4609 13.7695-11.582Q14.6484-10.7031 15.1465-9.54102Q15.6445-8.37891 15.6445-7.05078Q15.6445-5.72266 15.1514-4.56055Q14.6582-3.39844 13.7842-2.51953Q12.9102-1.64062 11.748-1.14746Q10.5859-0.654297 9.24805-0.654297ZM5.6543-7.05078Q5.6543-6.72852 5.85938-6.52832Q6.06445-6.32812 6.40625-6.32812L8.51562-6.32812L8.51562-4.20898Q8.51562-3.88672 8.71094-3.67676Q8.90625-3.4668 9.23828-3.4668Q9.56055-3.4668 9.77051-3.67676Q9.98047-3.88672 9.98047-4.20898L9.98047-6.32812L12.0898-6.32812Q12.4219-6.32812 12.627-6.52832Q12.832-6.72852 12.832-7.05078Q12.832-7.38281 12.627-7.58789Q12.4219-7.79297 12.0898-7.79297L9.98047-7.79297L9.98047-9.90234Q9.98047-10.2344 9.77051-10.4443Q9.56055-10.6543 9.23828-10.6543Q8.90625-10.6543 8.71094-10.4443Q8.51562-10.2344 8.51562-9.90234L8.51562-7.79297L6.40625-7.79297Q6.06445-7.79297 5.85938-7.58789Q5.6543-7.38281 5.6543-7.05078Z"/>
  </g>
  <g transform="matrix(1 0 0 1 281.867 1933)">
   <path d="M11.709 2.91016Q13.75 2.91016 15.5518 2.12891Q17.3535 1.34766 18.7305-0.0292969Q20.1074-1.40625 20.8887-3.20801Q21.6699-5.00977 21.6699-7.05078Q21.6699-9.0918 20.8887-10.8936Q20.1074-12.6953 18.7305-14.0723Q17.3535-15.4492 15.5469-16.2305Q13.7402-17.0117 11.6992-17.0117Q9.6582-17.0117 7.85645-16.2305Q6.05469-15.4492 4.68262-14.0723Q3.31055-12.6953 2.5293-10.8936Q1.74805-9.0918 1.74805-7.05078Q1.74805-5.00977 2.5293-3.20801Q3.31055-1.40625 4.6875-0.0292969Q6.06445 1.34766 7.86621 2.12891Q9.66797 2.91016 11.709 2.91016ZM11.709 1.25Q9.98047 1.25 8.47656 0.605469Q6.97266-0.0390625 5.83496-1.17676Q4.69727-2.31445 4.05762-3.81836Q3.41797-5.32227 3.41797-7.05078Q3.41797-8.7793 4.05762-10.2832Q4.69727-11.7871 5.83008-12.9297Q6.96289-14.0723 8.4668-14.7119Q9.9707-15.3516 11.6992-15.3516Q13.4277-15.3516 14.9316-14.7119Q16.4355-14.0723 17.5781-12.9297Q18.7207-11.7871 19.3652-10.2832Q20.0098-8.7793 20.0098-7.05078Q20.0098-5.32227 19.3701-3.81836Q18.7305-2.31445 17.5928-1.17676Q16.4551-0.0390625 14.9463 0.605469Q13.4375 1.25 11.709 1.25ZM7.17773-7.05078Q7.17773-6.69922 7.41211-6.47461Q7.64648-6.25 8.01758-6.25L10.8887-6.25L10.8887-3.36914Q10.8887-2.99805 11.1133-2.76855Q11.3379-2.53906 11.6895-2.53906Q12.0605-2.53906 12.29-2.76855Q12.5195-2.99805 12.5195-3.36914L12.5195-6.25L15.4004-6.25Q15.7715-6.25 16.001-6.47461Q16.2305-6.69922 16.2305-7.05078Q16.2305-7.42188 16.001-7.65137Q15.7715-7.88086 15.4004-7.88086L12.5195-7.88086L12.5195-10.752Q12.5195-11.1328 12.29-11.3623Q12.0605-11.5918 11.6895-11.5918Q11.3379-11.5918 11.1133-11.3574Q10.8887-11.123 10.8887-10.752L10.8887-7.88086L8.01758-7.88086Q7.63672-7.88086 7.40723-7.65137Q7.17773-7.42188 7.17773-7.05078Z"/>
  </g>
  <g transform="matrix(1 0 0 1 305.646 1933)">
   <path d="M14.9707 5.66406Q17.0605 5.66406 18.96 5.01465Q20.8594 4.36523 22.4512 3.19336Q24.043 2.02148 25.2197 0.429688Q26.3965-1.16211 27.0459-3.06641Q27.6953-4.9707 27.6953-7.05078Q27.6953-9.14062 27.0459-11.04Q26.3965-12.9395 25.2197-14.5312Q24.043-16.123 22.4512-17.2998Q20.8594-18.4766 18.9551-19.126Q17.0508-19.7754 14.9609-19.7754Q12.8711-19.7754 10.9717-19.126Q9.07227-18.4766 7.48535-17.2998Q5.89844-16.123 4.72168-14.5312Q3.54492-12.9395 2.90039-11.04Q2.25586-9.14062 2.25586-7.05078Q2.25586-4.9707 2.90527-3.06641Q3.55469-1.16211 4.72656 0.429688Q5.89844 2.02148 7.49023 3.19336Q9.08203 4.36523 10.9814 5.01465Q12.8809 5.66406 14.9707 5.66406ZM14.9707 3.84766Q13.1641 3.84766 11.5283 3.2959Q9.89258 2.74414 8.53516 1.74805Q7.17773 0.751953 6.17676-0.610352Q5.17578-1.97266 4.62891-3.6084Q4.08203-5.24414 4.08203-7.05078Q4.08203-8.86719 4.62891-10.5029Q5.17578-12.1387 6.17188-13.501Q7.16797-14.8633 8.52539-15.8594Q9.88281-16.8555 11.5186-17.4023Q13.1543-17.9492 14.9609-17.9492Q16.7773-17.9492 18.4131-17.4023Q20.0488-16.8555 21.4111-15.8594Q22.7734-14.8633 23.7695-13.501Q24.7656-12.1387 25.3174-10.5029Q25.8691-8.86719 25.8691-7.05078Q25.8789-5.24414 25.332-3.6084Q24.7852-1.97266 23.7842-0.610352Q22.7832 0.751953 21.4209 1.74805Q20.0586 2.74414 18.4229 3.2959Q16.7871 3.84766 14.9707 3.84766ZM9.19922-7.05078Q9.19922-6.66992 9.45801-6.4209Q9.7168-6.17188 10.1172-6.17188L14.0625-6.17188L14.0625-2.2168Q14.0625-1.81641 14.3115-1.55762Q14.5605-1.29883 14.9512-1.29883Q15.3516-1.29883 15.6104-1.55273Q15.8691-1.80664 15.8691-2.2168L15.8691-6.17188L19.8242-6.17188Q20.2246-6.17188 20.4785-6.4209Q20.7324-6.66992 20.7324-7.05078Q20.7324-7.46094 20.4785-7.71484Q20.2246-7.96875 19.8242-7.96875L15.8691-7.96875L15.8691-11.9141Q15.8691-12.3242 15.6104-12.583Q15.3516-12.8418 14.9512-12.8418Q14.5605-12.8418 14.3115-12.583Q14.0625-12.3242 14.0625-11.9141L14.0625-7.96875L10.1172-7.96875Q9.70703-7.96875 9.45312-7.71484Q9.19922-7.46094 9.19922-7.05078Z"/>
  </g>
  <text style="stroke:none;fill:black;font-family:sans-serif;font-size:13;font-weight:bold;" transform="matrix(1 0 0 1 263 1953)">Design Variations</text>
  <text style="stroke:none;fill:black;font-family:sans-serif;font-size:13;" transform="matrix(1 0 0 1 263 1971)">Symbols are supported in up to nine weights and three scales.</text>
  <text style="stroke:none;fill:black;font-family:sans-serif;font-size:13;" transform="matrix(1 0 0 1 263 1989)">For optimal layout with text and other symbols, vertically align</text>
  <text style="stroke:none;fill:black;font-family:sans-serif;font-size:13;" transform="matrix(1 0 0 1 263 2007)">symbols with the adjacent text.</text>
  <line style="fill:none;stroke:#00AEEF;stroke-width:0.5;opacity:1.0;" x1="776" x2="776" y1="1919" y2="1933"/>
  <g transform="matrix(1 0 0 1 776 1933)">
   <path d="M3.31055 0.15625Q3.70117 0.15625 3.91602-0.00976562Q4.13086-0.175781 4.26758-0.585938L5.52734-4.0332L11.2891-4.0332L12.5488-0.585938Q12.6855-0.175781 12.9004-0.00976562Q13.1152 0.15625 13.4961 0.15625Q13.8867 0.15625 14.1162-0.0585938Q14.3457-0.273438 14.3457-0.644531Q14.3457-0.869141 14.2383-1.17188L9.6582-13.3691Q9.48242-13.8184 9.17969-14.043Q8.87695-14.2676 8.4082-14.2676Q7.5-14.2676 7.17773-13.3789L2.59766-1.16211Q2.49023-0.859375 2.49023-0.634766Q2.49023-0.263672 2.70996-0.0537109Q2.92969 0.15625 3.31055 0.15625ZM6.00586-5.51758L8.37891-12.0898L8.42773-12.0898L10.8008-5.51758Z"/>
  </g>
  <line style="fill:none;stroke:#00AEEF;stroke-width:0.5;opacity:1.0;" x1="793.197" x2="793.197" y1="1919" y2="1933"/>
  <text style="stroke:none;fill:black;font-family:sans-serif;font-size:13;font-weight:bold;" transform="matrix(1 0 0 1 776 1953)">Margins</text>
  <text style="stroke:none;fill:black;font-family:sans-serif;font-size:13;" transform="matrix(1 0 0 1 776 1971)">Leading and trailing margins on the left and right side of each symbol</text>
  <text style="stroke:none;fill:black;font-family:sans-serif;font-size:13;" transform="matrix(1 0 0 1 776 1989)">can be adjusted by modifying the x-location of the margin guidelines.</text>
  <text style="stroke:none;fill:black;font-family:sans-serif;font-size:13;" transform="matrix(1 0 0 1 776 2007)">Modifications are automatically applied proportionally to all</text>
  <text style="stroke:none;fill:black;font-family:sans-serif;font-size:13;" transform="matrix(1 0 0 1 776 2025)">scales and weights.</text>
  <g transform="matrix(1 0 0 1 1289 1933)">
   <path d="M2.8418 1.86523L4.54102 3.57422Q5.18555 4.22852 5.90332 4.17969Q6.62109 4.13086 7.31445 3.35938L18.0078-8.42773L17.041-9.4043L6.42578 2.27539Q6.16211 2.57812 5.89355 2.61719Q5.625 2.65625 5.27344 2.30469L4.10156 1.14258Q3.75 0.791016 3.79395 0.522461Q3.83789 0.253906 4.14062-0.0195312L15.6152-10.8203L14.6387-11.7871L3.04688-0.898438Q2.30469-0.214844 2.25098 0.498047Q2.19727 1.21094 2.8418 1.86523ZM9.25781-16.3281Q8.94531-16.0254 8.90625-15.6348Q8.86719-15.2441 9.04297-14.9512Q9.21875-14.6777 9.55566-14.541Q9.89258-14.4043 10.3809-14.5215Q11.4746-14.7754 12.5977-14.7314Q13.7207-14.6875 14.7949-13.9844L14.209-12.5293Q13.9551-11.9043 14.0674-11.4404Q14.1797-10.9766 14.5801-10.5664L16.875-8.25195Q17.2363-7.88086 17.5781-7.82227Q17.9199-7.76367 18.3398-7.8418L19.4043-8.03711L20.0684-7.36328L20.0293-6.80664Q20-6.43555 20.1221-6.12305Q20.2441-5.81055 20.6055-5.44922L21.3672-4.70703Q21.7285-4.3457 22.1533-4.33105Q22.5781-4.31641 22.9297-4.66797L25.8398-7.58789Q26.1914-7.93945 26.1816-8.35449Q26.1719-8.76953 25.8105-9.13086L25.0391-9.89258Q24.6875-10.2539 24.3799-10.3857Q24.0723-10.5176 23.7109-10.4883L23.1348-10.4395L22.4902-11.0742L22.7344-12.1973Q22.832-12.6172 22.6953-12.9834Q22.5586-13.3496 22.1191-13.7891L19.9219-15.9766Q18.6719-17.2168 17.2607-17.8369Q15.8496-18.457 14.4189-18.4814Q12.9883-18.5059 11.665-17.959Q10.3418-17.4121 9.25781-16.3281ZM10.752-15.957Q11.6602-16.6211 12.7002-16.9043Q13.7402-17.1875 14.8047-17.085Q15.8691-16.9824 16.8701-16.5137Q17.8711-16.0449 18.7012-15.2051L21.1328-12.793Q21.3086-12.6172 21.3525-12.4512Q21.3965-12.2852 21.3379-12.0312L21.0156-10.5469L22.5195-9.0625L23.5059-9.12109Q23.6914-9.13086 23.7891-9.09668Q23.8867-9.0625 24.0332-8.91602L24.6094-8.33984L22.168-5.89844L21.5918-6.47461Q21.4453-6.62109 21.4062-6.71875Q21.3672-6.81641 21.377-7.01172L21.4453-7.98828L19.9512-9.47266L18.4277-9.21875Q18.1836-9.16992 18.042-9.2041Q17.9004-9.23828 17.7148-9.41406L15.7129-11.416Q15.5176-11.5918 15.4932-11.7529Q15.4688-11.9141 15.5859-12.1875L16.4648-14.2773Q15.293-15.3711 13.8281-15.791Q12.3633-16.2109 10.8398-15.7617Q10.7227-15.7324 10.6885-15.8057Q10.6543-15.8789 10.752-15.957Z"/>
  </g>
  <text style="stroke:none;fill:black;font-family:sans-serif;font-size:13;font-weight:bold;" transform="matrix(1 0 0 1 1289 1953)">Exporting</text>
  <text style="stroke:none;fill:black;font-family:sans-serif;font-size:13;" transform="matrix(1 0 0 1 1289 1971)">Symbols should be outlined when exporting to ensure the</text>
  <text style="stroke:none;fill:black;font-family:sans-serif;font-size:13;" transform="matrix(1 0 0 1 1289 1989)">design is preserved when submitting to Xcode.</text>
  <text id="template-version" style="stroke:none;fill:black;font-family:sans-serif;font-size:13;text-anchor:end;" transform="matrix(1 0 0 1 3036 1933)">Template v.3.0</text>
  <text style="stroke:none;fill:black;font-family:sans-serif;font-size:13;text-anchor:end;" transform="matrix(1 0 0 1 3036 1951)">Requires Xcode 13 or greater</text>
  <text id="descriptive-name" style="stroke:none;fill:black;font-family:sans-serif;font-size:13;text-anchor:end;" transform="matrix(1 0 0 1 3036 1969)">Generated from normalLine</text>
  <text style="stroke:none;fill:black;font-family:sans-serif;font-size:13;text-anchor:end;" transform="matrix(1 0 0 1 3036 1987)">Typeset at 100 points</text>
  <text style="stroke:none;fill:black;font-family:sans-serif;font-size:13;" transform="matrix(1 0 0 1 263 726)">Small</text>
  <text style="stroke:none;fill:black;font-family:sans-serif;font-size:13;" transform="matrix(1 0 0 1 263 1156)">Medium</text>
  <text style="stroke:none;fill:black;font-family:sans-serif;font-size:13;" transform="matrix(1 0 0 1 263 1586)">Large</text>
 </g>
 <g id="Guides">
  <g id="H-reference" style="fill:#27AAE1;stroke:none;" transform="matrix(1 0 0 1 339 696)">
   <path d="M0.993347 0L3.6377 0L29.3282-67.1326L30.0301-67.1326L30.0301-70.459L28.1227-70.459ZM11.6882-24.4797L46.9818-24.4797L46.2311-26.7288L12.4382-26.7288ZM55.1193 0L57.7637 0L30.6381-70.459L29.4327-70.459L29.4327-67.1326Z"/>
  </g>
  <line id="Baseline-S" style="fill:none;stroke:#27AAE1;opacity:1;stroke-width:0.5;" x1="263" x2="3036" y1="696" y2="696"/>
  <line id="Capline-S" style="fill:none;stroke:#27AAE1;opacity:1;stroke-width:0.5;" x1="263" x2="3036" y1="625.541" y2="625.541"/>
  <g id="H-reference" style="fill:#27AAE1;stroke:none;" transform="matrix(1 0 0 1 339 1126)">
   <path d="M0.993347 0L3.6377 0L29.3282-67.1326L30.0301-67.1326L30.0301-70.459L28.1227-70.459ZM11.6882-24.4797L46.9818-24.4797L46.2311-26.7288L12.4382-26.7288ZM55.1193 0L57.7637 0L30.6381-70.459L29.4327-70.459L29.4327-67.1326Z"/>
  </g>
  <line id="Baseline-M" style="fill:none;stroke:#27AAE1;opacity:1;stroke-width:0.5;" x1="263" x2="3036" y1="1126" y2="1126"/>
  <line id="Capline-M" style="fill:none;stroke:#27AAE1;opacity:1;stroke-width:0.5;" x1="263" x2="3036" y1="1055.54" y2="1055.54"/>
  <g id="H-reference" style="fill:#27AAE1;stroke:none;" transform="matrix(1 0 0 1 339 1556)">
   <path d="M0.993347 0L3.6377 0L29.3282-67.1326L30.0301-67.1326L30.0301-70.459L28.1227-70.459ZM11.6882-24.4797L46.9818-24.4797L46.2311-26.7288L12.4382-26.7288ZM55.1193 0L57.7637 0L30.6381-70.459L29.4327-70.459L29.4327-67.1326Z"/>
  </g>
  <line id="Baseline-L" style="fill:none;stroke:#27AAE1;opacity:1;stroke-width:0.5;" x1="263" x2="3036" y1="1556" y2="1556"/>
  <line id="Capline-L" style="fill:none;stroke:#27AAE1;opacity:1;stroke-width:0.5;" x1="263" x2="3036" y1="1485.54" y2="1485.54"/>
  <line id="left-margin-Ultralight-S" style="fill:none;stroke:#FF3B30;stroke-width:0.5;opacity:1.0;" x1="504.149" x2="504.149" y1="600.784" y2="720.121"/>
  <line id="right-margin-Ultralight-S" style="fill:none;stroke:#FF3B30;stroke-width:0.5;opacity:1.0;" x1="615.273" x2="615.273" y1="600.784" y2="720.121"/>
  <line id="left-margin-Regular-S" style="fill:none;stroke:#00AEEF;stroke-width:0.5;opacity:1.0;" x1="1394.29" x2="1394.29" y1="600.784" y2="720.121"/>
  <line id="right-margin-Regular-S" style="fill:none;stroke:#FF3B30;stroke-width:0.5;opacity:1.0;" x1="1505.4" x2="1505.4" y1="600.784" y2="720.121"/>
  <line id="left-margin-Black-S" style="fill:none;stroke:#FF3B30;stroke-width:0.5;opacity:1.0;" x1="2877.17" x2="2877.17" y1="600.784" y2="720.121"/>
  <line id="right-margin-Black-S" style="fill:none;stroke:#00AEEF;stroke-width:0.5;opacity:1.0;" x1="2989.63" x2="2989.63" y1="600.784" y2="720.121"/>
 </g>
 <g id="Symbols">
  <g id="Black-S" transform="matrix(1 0 0 1 2877.17 696)">
   <path d="M-1477.54-91L-1475.77-90.8021L-1472.28-90.4031L-1468.85-89.9998L-1465.48-89.5922L-1462.17-89.1803L-1458.92-88.764L-1455.73-88.3434L-1452.61-87.9183L-1449.55-87.4889L-1446.55-87.0549C-1446.05-86.9822-1445.56-86.9093-1445.07-86.8363L-1442.17-86.3956L-1437.92-85.7261L-1435.17-85.2741L-1432.47-84.8175L-1429.84-84.3562L-1427.27-83.8903C-1426.85-83.8123-1426.43-83.7341-1426.01-83.6556L-1423.54-83.1828L-1421.12-82.7051L-1418.77-82.2228L-1416.47-81.7357L-1414.24-81.2438L-1412.07-80.7471C-1411.36-80.5807-1410.65-80.4135-1409.96-80.2455L-1407.91-79.7391L-1405.93-79.2278L-1404-78.7115C-1403.69-78.625-1403.37-78.5384-1403.06-78.4515L-1401.23-77.9278C-1400.93-77.8401-1400.63-77.7522-1400.33-77.6641L-1398.59-77.1329L-1396.91-76.5967C-1396.63-76.5069-1396.36-76.4169-1396.09-76.3267L-1394.5-75.7829L-1392.97-75.234C-1384.72-72.201-1379.24-68.9355-1376.49-65.4175C-1371.74-59.3488-1374.6-52.7961-1384.08-46.3507C-1385.65-45.281-1387.42-44.1993-1389.39-43.1053L-1390.73-42.3741L-1392.13-41.6393C-1392.37-41.5165-1392.61-41.3936-1392.85-41.2705L-1394.34-40.5301L-1395.88-39.786L-1397.49-39.0382L-1399.15-38.2866L-1400.87-37.5312L-1402.64-36.7721L-1404.48-36.0091L-1406.38-35.2423C-1406.7-35.1142-1407.02-34.9859-1407.35-34.8575L-1409.33-34.0849L-1411.37-33.3084L-1413.47-32.5281L-1415.63-31.7438L-1417.85-30.9556L-1420.12-30.1635L-1422.46-29.3673L-1424.85-28.5672L-1427.3-27.7631L-1432.24-26.174L-1434.61-25.3987L-1436.92-24.629L-1439.18-23.8651L-1441.38-23.1068L-1443.52-22.3543L-1445.6-21.6076L-1447.63-20.8666C-1447.96-20.7436-1448.29-20.6208-1448.62-20.4982L-1450.56-19.7659L-1452.44-19.0394L-1454.26-18.3188L-1456.03-17.604L-1457.73-16.895C-1458.01-16.7774-1458.29-16.6599-1458.57-16.5428L-1460.19-15.8427C-1460.72-15.6103-1461.24-15.3789-1461.75-15.1485L-1463.26-14.4602L-1464.7-13.7779L-1466.09-13.1015L-1467.43-12.4311C-1467.64-12.3199-1467.86-12.2089-1468.07-12.0982L-1469.31-11.4369C-1470.12-10.998-1470.9-10.5631-1471.63-10.1323L-1472.7-9.48904C-1473.22-9.16896-1473.72-8.85115-1474.2-8.53564L-1474.67-8.22233L-1475.56-7.60587C-1481.99-3.03253-1483.07 0.425369-1479.8 3.53275C-1477.73 5.50353-1474.14 7.35331-1469.05 9.07617L-1467.74 9.50424C-1467.3 9.64604-1466.84 9.78696-1466.37 9.92699L-1464.94 10.3444L-1463.45 10.7565C-1463.2 10.8247-1462.94 10.8927-1462.68 10.9605L-1461.09 11.3645C-1460.82 11.4314-1460.55 11.4981-1460.28 11.5645L-1458.6 11.9604C-1458.03 12.0915-1457.44 12.2216-1456.85 12.3509L-1455.05 12.7359L-1453.18 13.1155L-1451.25 13.4895L-1449.26 13.858L-1447.2 14.221L-1445.08 14.5785L-1442.9 14.9303L-1440.66 15.2766L-1438.36 15.6172L-1435.99 15.9523L-1433.57 16.2816L-1431.08 16.6053L-1428.52 16.9232L-1424.58 17.3895L-1421.87 17.6931L-1419.1 17.9909L-1414.84 18.4268L-1411.91 18.7102L-1407.41 19.1242L-1404.33 19.3929L-1399.6 19.7848L-1394.73 20.1635L-1389.73 20.5287L-1384.58 20.8804L-1381.07 21.1074L-1377.5 21.3283L-1375.69 21.4365L-1375.9 25L-1381.38 24.665L-1384.95 24.4342L-1388.45 24.1973L-1393.6 23.8305L-1398.59 23.45L-1401.85 23.1887L-1405.04 22.9212L-1408.17 22.6475L-1411.23 22.3676L-1414.23 22.0815L-1417.17 21.7892L-1420.05 21.4906L-1422.86 21.1857L-1426.96 20.7165L-1429.61 20.3958L-1432.21 20.0688L-1434.74 19.7354L-1437.2 19.3956L-1439.61 19.0494L-1441.95 18.6967L-1444.23 18.3376L-1446.45 17.972L-1448.6 17.5999L-1450.69 17.2212L-1452.72 16.8361L-1454.69 16.4444C-1455.01 16.3785-1455.33 16.3124-1455.65 16.246L-1457.52 15.8444C-1457.83 15.7769-1458.13 15.7092-1458.43 15.6411L-1460.21 15.2296C-1460.51 15.1605-1460.79 15.0911-1461.08 15.0214L-1462.77 14.5999L-1464.39 14.1717C-1464.66 14.0998-1464.92 14.0276-1465.18 13.9551L-1466.71 13.5169C-1474.21 11.3089-1479.38 8.84878-1482.25 6.12482C-1487.85 0.793648-1485.42-5.39666-1476.15-11.5178C-1474-12.941-1471.44-14.3997-1468.48-15.8949L-1467.08-16.5876L-1465.63-17.2854L-1464.12-17.9885L-1462.55-18.6968L-1460.93-19.4103L-1459.25-20.1291L-1457.51-20.8532C-1457.21-20.9743-1456.91-21.0957-1456.61-21.2172L-1454.79-21.9493L-1452.9-22.6866L-1450.96-23.4293L-1448.96-24.1774L-1446.9-24.9308L-1444.79-25.6897L-1442.62-26.4539L-1440.39-27.2236L-1436.93-28.3884L-1433.35-29.5655L-1428.41-31.154L-1426-31.9466L-1423.64-32.7349L-1421.34-33.519L-1419.1-34.2987L-1416.91-35.0742L-1414.79-35.8453L-1412.72-36.6121L-1410.72-37.3745L-1408.77-38.1326C-1408.45-38.2585-1408.13-38.3843-1407.81-38.5099L-1405.95-39.2614L-1404.15-40.0083C-1403.86-40.1325-1403.56-40.2564-1403.27-40.3802L-1401.56-41.1204C-1401.28-41.2435-1401-41.3663-1400.72-41.4889L-1399.1-42.2225L-1397.53-42.9515C-1395.99-43.6783-1394.54-44.3983-1393.18-45.1115L-1391.85-45.8223L-1390.58-46.5285C-1388.92-47.4671-1387.42-48.3933-1386.07-49.307C-1378.07-54.7478-1376.13-59.1858-1379.28-63.212C-1381.59-66.1662-1386.37-68.9988-1393.59-71.6934L-1395.02-72.2132C-1395.75-72.4722-1396.51-72.73-1397.28-72.9864L-1398.86-73.4974C-1399.4-73.6672-1399.95-73.8364-1400.5-74.005L-1402.21-74.5089L-1403.97-75.0093C-1404.57-75.1755-1405.18-75.3411-1405.8-75.506L-1407.68-75.9991L-1409.63-76.4885L-1411.64-76.9743L-1413.7-77.4563L-1415.83-77.9345L-1418.02-78.4089L-1420.27-78.8796C-1420.65-78.9577-1421.03-79.0357-1421.42-79.1135L-1423.76-79.5784C-1424.15-79.6555-1424.55-79.7325-1424.95-79.8094L-1427.38-80.2684L-1429.87-80.7236L-1432.43-81.1748L-1435.04-81.622L-1437.71-82.0653L-1440.45-82.5045L-1443.24-82.9397L-1446.09-83.3708L-1449.01-83.7978L-1451.98-84.2207L-1455.01-84.6394L-1458.11-85.054L-1461.26-85.4643L-1466.11-86.0719C-1466.65-86.1388-1467.2-86.2056-1467.75-86.2722L-1472.78-86.867L-1477.93-87.4519L-1477.54-91Z"/>
  </g>
  <g id="Regular-S" transform="matrix(1 0 0 1 1394.29 696)">
   <path d="M1475.33-101L1477.56-100.753L1481.97-100.254L1486.3-99.7497L1490.55-99.2402L1494.72-98.7253L1498.82-98.205L1502.84-97.6792L1506.78-97.1479L1510.64-96.6111L1514.42-96.0686C1515.05-95.9778 1515.67-95.8867 1516.28-95.7953L1519.95-95.2445L1525.31-94.4076L1528.78-93.8426L1532.17-93.2718L1535.49-92.6953L1538.73-92.1129C1539.27-92.0154 1539.8-91.9176 1540.32-91.8196L1543.45-91.2284L1546.49-90.6314L1549.46-90.0285L1552.36-89.4196L1555.17-88.8047L1557.91-88.1838C1558.81-87.9759 1559.69-87.7669 1560.57-87.5569L1563.15-86.9239L1565.66-86.2847L1568.09-85.6394C1568.48-85.5313 1568.88-85.423 1569.27-85.3144L1571.59-84.6598C1571.96-84.5502 1572.34-84.4403 1572.71-84.3302L1574.91-83.6662L1577.03-82.9959C1577.38-82.8837 1577.72-82.7712 1578.06-82.6584L1580.07-81.9786L1582-81.2925C1592.4-77.5012 1599.32-73.4193 1602.79-69.0219C1608.78-61.436 1605.17-53.2451 1593.21-45.1883C1591.23-43.8513 1588.99-42.4992 1586.51-41.1316L1584.82-40.2177L1583.06-39.2991C1582.76-39.1456 1582.46-38.992 1582.15-38.8381L1580.27-37.9126L1578.33-36.9825L1576.3-36.0477L1574.21-35.1082L1572.04-34.164L1569.8-33.2151L1567.48-32.2614L1565.09-31.3029C1564.69-31.1427 1564.28-30.9824 1563.87-30.8218L1561.37-29.8561L1558.79-28.8855L1556.14-27.9101L1553.42-26.9298L1550.62-25.9445L1547.75-24.9543L1544.81-23.9592L1541.79-22.959L1538.7-21.9539L1532.47-19.9675L1529.48-18.9983L1526.56-18.0363L1523.72-17.0813L1520.94-16.1335L1518.24-15.1929L1515.62-14.2594L1513.06-13.3332C1512.64-13.1794 1512.23-13.026 1511.81-12.8728L1509.37-11.9574L1507-11.0493L1504.7-10.1485L1502.47-9.25497L1500.32-8.36879C1499.96-8.2217 1499.61-8.07492 1499.27-7.92845L1497.22-7.05332C1496.55-6.76283 1495.89-6.47358 1495.25-6.18557L1493.35-5.32523L1491.52-4.47233L1489.77-3.62689L1488.09-2.78894C1487.82-2.6499 1487.55-2.51118 1487.28-2.37277L1485.71-1.54607C1484.69-0.997453 1483.71-0.453858 1482.79 0.084681L1481.44 0.888695C1480.78 1.2888 1480.15 1.68606 1479.55 2.08045L1478.96 2.47209L1477.84 3.24266C1469.72 8.95934 1468.36 13.2817 1472.48 17.1659C1475.09 19.6294 1479.62 21.9416 1486.05 24.0952L1487.69 24.6303C1488.25 24.8076 1488.83 24.9837 1489.42 25.1587L1491.22 25.6805L1493.1 26.1956C1493.42 26.2809 1493.75 26.3659 1494.08 26.4507L1496.08 26.9557C1496.42 27.0393 1496.76 27.1226 1497.11 27.2056L1499.23 27.7005C1499.95 27.8644 1500.68 28.0271 1501.43 28.1886L1503.7 28.6699L1506.06 29.1443L1508.49 29.6119L1511.01 30.0725L1513.6 30.5263L1516.27 30.9731L1519.02 31.4129L1521.85 31.8457L1524.75 32.2716L1527.74 32.6903L1530.8 33.102L1533.94 33.5066L1537.16 33.904L1542.13 34.4868L1545.55 34.8664L1549.04 35.2387L1554.42 35.7836L1558.11 36.1377L1563.78 36.6553L1567.67 36.9911L1573.63 37.4811L1579.77 37.9543L1586.09 38.4109L1592.58 38.8505L1597.01 39.1342L1601.51 39.4104L1603.79 39.5457L1603.52 44L1596.62 43.5813L1592.12 43.2927L1587.69 42.9966L1581.21 42.5381L1574.91 42.0625L1570.8 41.7358L1566.78 41.4015L1562.83 41.0594L1558.97 40.7095L1555.18 40.3519L1551.48 39.9865L1547.85 39.6132L1544.3 39.2321L1539.13 38.6457L1535.78 38.2448L1532.51 37.836L1529.32 37.4192L1526.21 36.9945L1523.18 36.5617L1520.22 36.1209L1517.35 35.672L1514.55 35.215L1511.84 34.7498L1509.2 34.2766L1506.64 33.7951L1504.16 33.3054C1503.75 33.2232 1503.35 33.1405 1502.95 33.0575L1500.58 32.5555C1500.2 32.4712 1499.81 32.3865 1499.43 32.3014L1497.19 31.787C1496.82 31.7006 1496.45 31.6138 1496.09 31.5267L1493.97 30.9998L1491.92 30.4646C1491.58 30.3747 1491.25 30.2845 1490.92 30.1939L1488.99 29.6461C1479.53 26.8862 1473.01 23.811 1469.4 20.406C1462.33 13.7421 1465.4 6.00417 1477.08-1.64721C1479.8-3.42619 1483.03-5.24965 1486.76-7.11862L1488.52-7.98446L1490.35-8.85679L1492.26-9.73563L1494.24-10.621L1496.29-11.5129L1498.41-12.4114L1500.6-13.3165C1500.98-13.4679 1501.35-13.6196 1501.73-13.7716L1504.03-14.6866L1506.41-15.6083L1508.86-16.5367L1511.38-17.4718L1513.97-18.4136L1516.64-19.3621L1519.38-20.3174L1522.2-21.2796L1526.55-22.7355L1531.07-24.2069L1537.3-26.1924L1540.35-27.1832L1543.32-28.1686L1546.22-29.1487L1549.05-30.1234L1551.8-31.0928L1554.48-32.0567L1557.09-33.0152L1559.62-33.9682L1562.08-34.9157C1562.48-35.0732 1562.88-35.2304 1563.28-35.3874L1565.62-36.3267L1567.9-37.2604C1568.27-37.4156 1568.64-37.5705 1569-37.7252L1571.17-38.6506C1571.52-38.8043 1571.87-38.9579 1572.22-39.1111L1574.27-40.0281L1576.25-40.9394C1578.19-41.8479 1580.02-42.7479 1581.73-43.6393L1583.41-44.5279L1585.02-45.4107C1587.11-46.5838 1589-47.7416 1590.7-48.8838C1600.8-55.6848 1603.24-61.2322 1599.27-66.265C1596.35-69.9577 1590.32-73.4985 1581.21-76.8667L1579.41-77.5165C1578.49-77.8403 1577.54-78.1625 1576.56-78.483L1574.57-79.1218C1573.89-79.334 1573.2-79.5455 1572.5-79.7562L1570.35-80.3862L1568.12-81.0116C1567.37-81.2193 1566.6-81.4263 1565.82-81.6325L1563.44-82.2489L1560.99-82.8607L1558.46-83.4678L1555.85-84.0703L1553.17-84.6681L1550.4-85.2612L1547.57-85.8495C1547.09-85.9471 1546.6-86.0446 1546.12-86.1418L1543.17-86.723C1542.67-86.8194 1542.17-86.9157 1541.66-87.0117L1538.6-87.5855L1535.45-88.1545L1532.23-88.7185L1528.94-89.2775L1525.57-89.8316L1522.12-90.3806L1518.6-90.9246L1515-91.4635L1511.32-91.9973L1507.57-92.5259L1503.75-93.0493L1499.84-93.5674L1495.86-94.0804L1489.75-94.8398C1489.07-94.9235 1488.37-95.007 1487.68-95.0903L1481.34-95.8337L1474.84-96.5649L1475.33-101Z"/>
  </g>
  <g id="Ultralight-S" transform="matrix(1 0 0 1 504.149 696)">
   <path d="M-6.53309-102L-4.29995-101.753L0.107702-101.254L4.43721-100.75L8.68862-100.24L12.862-99.7253L16.9573-99.205L20.9747-98.6792L24.9142-98.1479L28.7758-97.6111L32.5596-97.0686C33.1838-96.9778 33.8047-96.8867 34.4223-96.7953L38.0894-96.2445L43.4444-95.4076L46.9173-94.8426L50.3126-94.2718L53.6304-93.6953L56.8706-93.1129C57.4042-93.0154 57.9346-92.9176 58.4617-92.8196L61.5857-92.2284L64.6324-91.6314L67.6016-91.0285L70.4936-90.4196L73.3083-89.8047L76.0458-89.1838C76.9454-88.9759 77.8321-88.7669 78.706-88.5569L81.2892-87.9239L83.7952-87.2847L86.2242-86.6394C86.6227-86.5313 87.0179-86.423 87.4099-86.3144L89.7234-85.6598C90.1026-85.5502 90.4785-85.4403 90.8513-85.3302L93.0494-84.6662L95.1707-83.9959C95.5178-83.8837 95.8617-83.7712 96.2025-83.6584L98.2085-82.9786L100.138-82.2925C110.538-78.5012 117.457-74.4193 120.928-70.0219C126.917-62.436 123.311-54.2451 111.35-46.1883C109.365-44.8513 107.132-43.4992 104.651-42.1316L102.961-41.2177L101.197-40.2991C100.896-40.1456 100.593-39.992 100.287-39.8381L98.4123-38.9126L96.4641-37.9825L94.4423-37.0477L92.3468-36.1082L90.1777-35.164L87.9349-34.2151L85.6183-33.2614L83.228-32.3029C82.8234-32.1427 82.4158-31.9824 82.0051-31.8218L79.5041-30.8561L76.9293-29.8855L74.2807-28.9101L71.5581-27.9298L68.7617-26.9445L65.8914-25.9543L62.9472-24.9592L59.9289-23.959L56.8367-22.9539L50.6078-20.9675L47.6176-19.9983L44.7-19.0363L41.855-18.0813L39.0826-17.1335L36.3829-16.1929L33.7558-15.2594L31.2015-14.3332C30.7819-14.1794 30.3652-14.026 29.9516-13.8728L27.5064-12.9574L25.1339-12.0493L22.8343-11.1485L20.6075-10.255L18.4535-9.36879C18.1006-9.2217 17.7507-9.07492 17.4038-8.92845L15.3592-8.05332C14.6898-7.76283 14.0325-7.47358 13.3874-7.18557L11.4887-6.32523L9.66284-5.47233L7.91002-4.62689L6.23022-3.78894C5.95634-3.6499 5.68551-3.51118 5.41771-3.37277L3.8475-2.54607C2.82505-1.99745 1.85132-1.45386 0.926361-0.915319L-0.424509-0.111305C-1.08165 0.288803-1.71136 0.686058-2.31362 1.08045L-2.90484 1.47209L-4.02687 2.24266C-12.1412 7.95934-13.5047 12.2817-9.38328 16.1659C-6.76939 18.6294-2.24246 20.9416 4.18366 23.0952L5.82975 23.6303C6.39163 23.8076 6.96669 23.9837 7.55493 24.1587L9.35914 24.6805L11.2423 25.1956C11.5628 25.2809 11.8865 25.3659 12.2135 25.4507L14.2151 25.9557C14.5553 26.0393 14.8988 26.1226 15.2455 26.2056L17.3654 26.7005C18.0851 26.8644 18.818 27.0271 19.5641 27.1886L21.8415 27.6699L24.1976 28.1443L26.6324 28.6119L29.1458 29.0725L31.7377 29.5263L34.4081 29.9731L37.157 30.4129L39.9843 30.8457L42.89 31.2716L45.874 31.6903L48.9363 32.102L52.0767 32.5066L55.2954 32.904L60.2698 33.4868L63.6837 33.8664L67.1756 34.2387L72.5595 34.7836L76.2462 35.1377L81.9221 35.6553L85.8033 35.9911L91.7707 36.4811L97.9129 36.9543L104.23 37.4109L110.721 37.8505L115.145 38.1342L119.646 38.4104L121.926 38.5457L121.662 43L114.758 42.5813L110.256 42.2927L105.833 41.9966L99.3484 41.5381L93.0434 41.0625L88.9396 40.7358L84.9155 40.4015L80.971 40.0594L77.1061 39.7095L73.3206 39.3519L69.6146 38.9865L65.988 38.6132L62.4407 38.2321L57.2685 37.6457L53.9194 37.2448L50.6495 36.836L47.4588 36.4192L44.3471 35.9945L41.3145 35.5617L38.3608 35.1209L35.4861 34.672L32.6903 34.215L29.9734 33.7498L27.3352 33.2766L24.7758 32.7951L22.2951 32.3054C21.8882 32.2232 21.4846 32.1405 21.0843 32.0575L18.7215 31.5555C18.3343 31.4712 17.9503 31.3865 17.5696 31.3014L15.3248 30.787C14.9572 30.7006 14.5928 30.6138 14.2318 30.5267L12.1046 29.9998L10.056 29.4646C9.72104 29.3747 9.3894 29.2845 9.06101 29.1939L7.1299 28.6461C-2.32985 25.8862-8.85263 22.811-12.4655 19.406C-19.5364 12.7421-16.4616 5.00417-4.77754-2.64721C-2.06095-4.42619 1.16428-6.24965 4.89936-8.11862L6.65944-8.98446L8.49196-9.85679L10.3969-10.7356L12.3744-11.621L14.4244-12.5129L16.5469-13.4114L18.7419-14.3165C19.1138-14.4679 19.4887-14.6196 19.8667-14.7716L22.1706-15.6866L24.5472-16.6083L26.9965-17.5367L29.5184-18.4718L32.113-19.4136L34.7804-20.3621L37.5205-21.3174L40.3334-22.2796L44.6893-23.7355L49.2091-25.2069L55.4354-27.1924L58.4837-28.1832L61.4583-29.1686L64.3591-30.1487L67.1861-31.1234L69.9393-32.0928L72.6187-33.0567L75.2242-34.0152L77.7558-34.9682L80.2135-35.9157C80.6169-36.0732 81.0173-36.2304 81.4146-36.3874L83.7614-37.3267L86.0342-38.2604C86.4068-38.4156 86.7764-38.5705 87.1428-38.7252L89.3046-39.6506C89.6588-39.8043 90.0098-39.9579 90.3578-40.1111L92.4085-41.0281L94.3852-41.9394C96.3248-42.8479 98.1533-43.7479 99.8705-44.6393L101.551-45.5279L103.157-46.4107C105.248-47.5838 107.142-48.7416 108.838-49.8838C118.935-56.6848 121.377-62.2322 117.404-67.265C114.488-70.9577 108.461-74.4985 99.3499-77.8667L97.5479-78.5165C96.6277-78.8403 95.6786-79.1625 94.7006-79.483L92.7062-80.1218C92.0286-80.334 91.3382-80.5455 90.635-80.7562L88.4869-81.3862L86.2621-82.0116C85.5077-82.2193 84.7405-82.4263 83.9605-82.6325L81.5823-83.2489L79.1274-83.8607L76.5958-84.4678L73.9878-85.0703L71.3032-85.6681L68.5421-86.2612L65.7046-86.8495C65.2254-86.9471 64.7429-87.0446 64.2573-87.1418L61.3052-87.723C60.8069-87.8194 60.3053-87.9157 59.8006-88.0117L56.7341-88.5855L53.5914-89.1545L50.3724-89.7185L47.0773-90.2775L43.7061-90.8316L40.2589-91.3806L36.7356-91.9246L33.1363-92.4635L29.4611-92.9973L25.71-93.5259L21.883-94.0493L17.9803-94.5674L14.0018-95.0804L7.89207-95.8398C7.20376-95.9235 6.51229-96.007 5.81767-96.0903L-0.51893-96.8337L-7.02553-97.5649L-6.53309-102Z"/>
  </g>
 </g>
</svg>
