<?xml version="1.0" encoding="UTF-8"?>
<!--Generator: Apple Native CoreSVG 175-->
<!DOCTYPE svg
PUBLIC "-//W3C//DTD SVG 1.1//EN"
       "http://www.w3.org/Graphics/SVG/1.1/DTD/svg11.dtd">
<svg version="1.1" xmlns="http://www.w3.org/2000/svg" xmlns:xlink="http://www.w3.org/1999/xlink" width="3300" height="2200">
 <!--glyph: "", point size: 100.0, font version: "17.3d3e1", template writer version: "65.1"-->
 <g id="Notes">
  <rect height="2200" id="artboard" style="fill:white;opacity:1" width="3300" x="0" y="0"/>
  <line style="fill:none;stroke:black;opacity:1;stroke-width:0.5;" x1="263" x2="3036" y1="292" y2="292"/>
  <text style="stroke:none;fill:black;font-family:sans-serif;font-size:13;font-weight:bold;" transform="matrix(1 0 0 1 263 322)">Weight/Scale Variations</text>
  <text style="stroke:none;fill:black;font-family:sans-serif;font-size:13;text-anchor:middle;" transform="matrix(1 0 0 1 559.711 322)">Ultralight</text>
  <text style="stroke:none;fill:black;font-family:sans-serif;font-size:13;text-anchor:middle;" transform="matrix(1 0 0 1 856.422 322)">Thin</text>
  <text style="stroke:none;fill:black;font-family:sans-serif;font-size:13;text-anchor:middle;" transform="matrix(1 0 0 1 1153.13 322)">Light</text>
  <text style="stroke:none;fill:black;font-family:sans-serif;font-size:13;text-anchor:middle;" transform="matrix(1 0 0 1 1449.84 322)">Regular</text>
  <text style="stroke:none;fill:black;font-family:sans-serif;font-size:13;text-anchor:middle;" transform="matrix(1 0 0 1 1746.56 322)">Medium</text>
  <text style="stroke:none;fill:black;font-family:sans-serif;font-size:13;text-anchor:middle;" transform="matrix(1 0 0 1 2043.27 322)">Semibold</text>
  <text style="stroke:none;fill:black;font-family:sans-serif;font-size:13;text-anchor:middle;" transform="matrix(1 0 0 1 2339.98 322)">Bold</text>
  <text style="stroke:none;fill:black;font-family:sans-serif;font-size:13;text-anchor:middle;" transform="matrix(1 0 0 1 2636.69 322)">Heavy</text>
  <text style="stroke:none;fill:black;font-family:sans-serif;font-size:13;text-anchor:middle;" transform="matrix(1 0 0 1 2933.4 322)">Black</text>
  <line style="fill:none;stroke:black;opacity:1;stroke-width:0.5;" x1="263" x2="3036" y1="1903" y2="1903"/>
  <g transform="matrix(1 0 0 1 263 1933)">
   <path d="M9.24805 0.830078Q10.8691 0.830078 12.2949 0.214844Q13.7207-0.400391 14.8096-1.49414Q15.8984-2.58789 16.5186-4.01367Q17.1387-5.43945 17.1387-7.05078Q17.1387-8.66211 16.5186-10.0879Q15.8984-11.5137 14.8047-12.6074Q13.7109-13.7012 12.2852-14.3164Q10.8594-14.9316 9.23828-14.9316Q7.62695-14.9316 6.20117-14.3164Q4.77539-13.7012 3.69141-12.6074Q2.60742-11.5137 1.9873-10.0879Q1.36719-8.66211 1.36719-7.05078Q1.36719-5.43945 1.9873-4.01367Q2.60742-2.58789 3.69629-1.49414Q4.78516-0.400391 6.21094 0.214844Q7.63672 0.830078 9.24805 0.830078ZM9.24805-0.654297Q7.91992-0.654297 6.7627-1.14746Q5.60547-1.64062 4.73145-2.51953Q3.85742-3.39844 3.36426-4.56055Q2.87109-5.72266 2.87109-7.05078Q2.87109-8.37891 3.35938-9.54102Q3.84766-10.7031 4.72168-11.582Q5.5957-12.4609 6.75293-12.9541Q7.91016-13.4473 9.23828-13.4473Q10.5762-13.4473 11.7334-12.9541Q12.8906-12.4609 13.7695-11.582Q14.6484-10.7031 15.1465-9.54102Q15.6445-8.37891 15.6445-7.05078Q15.6445-5.72266 15.1514-4.56055Q14.6582-3.39844 13.7842-2.51953Q12.9102-1.64062 11.748-1.14746Q10.5859-0.654297 9.24805-0.654297ZM5.6543-7.05078Q5.6543-6.72852 5.85938-6.52832Q6.06445-6.32812 6.40625-6.32812L8.51562-6.32812L8.51562-4.20898Q8.51562-3.88672 8.71094-3.67676Q8.90625-3.4668 9.23828-3.4668Q9.56055-3.4668 9.77051-3.67676Q9.98047-3.88672 9.98047-4.20898L9.98047-6.32812L12.0898-6.32812Q12.4219-6.32812 12.627-6.52832Q12.832-6.72852 12.832-7.05078Q12.832-7.38281 12.627-7.58789Q12.4219-7.79297 12.0898-7.79297L9.98047-7.79297L9.98047-9.90234Q9.98047-10.2344 9.77051-10.4443Q9.56055-10.6543 9.23828-10.6543Q8.90625-10.6543 8.71094-10.4443Q8.51562-10.2344 8.51562-9.90234L8.51562-7.79297L6.40625-7.79297Q6.06445-7.79297 5.85938-7.58789Q5.6543-7.38281 5.6543-7.05078Z"/>
  </g>
  <g transform="matrix(1 0 0 1 281.867 1933)">
   <path d="M11.709 2.91016Q13.75 2.91016 15.5518 2.12891Q17.3535 1.34766 18.7305-0.0292969Q20.1074-1.40625 20.8887-3.20801Q21.6699-5.00977 21.6699-7.05078Q21.6699-9.0918 20.8887-10.8936Q20.1074-12.6953 18.7305-14.0723Q17.3535-15.4492 15.5469-16.2305Q13.7402-17.0117 11.6992-17.0117Q9.6582-17.0117 7.85645-16.2305Q6.05469-15.4492 4.68262-14.0723Q3.31055-12.6953 2.5293-10.8936Q1.74805-9.0918 1.74805-7.05078Q1.74805-5.00977 2.5293-3.20801Q3.31055-1.40625 4.6875-0.0292969Q6.06445 1.34766 7.86621 2.12891Q9.66797 2.91016 11.709 2.91016ZM11.709 1.25Q9.98047 1.25 8.47656 0.605469Q6.97266-0.0390625 5.83496-1.17676Q4.69727-2.31445 4.05762-3.81836Q3.41797-5.32227 3.41797-7.05078Q3.41797-8.7793 4.05762-10.2832Q4.69727-11.7871 5.83008-12.9297Q6.96289-14.0723 8.4668-14.7119Q9.9707-15.3516 11.6992-15.3516Q13.4277-15.3516 14.9316-14.7119Q16.4355-14.0723 17.5781-12.9297Q18.7207-11.7871 19.3652-10.2832Q20.0098-8.7793 20.0098-7.05078Q20.0098-5.32227 19.3701-3.81836Q18.7305-2.31445 17.5928-1.17676Q16.4551-0.0390625 14.9463 0.605469Q13.4375 1.25 11.709 1.25ZM7.17773-7.05078Q7.17773-6.69922 7.41211-6.47461Q7.64648-6.25 8.01758-6.25L10.8887-6.25L10.8887-3.36914Q10.8887-2.99805 11.1133-2.76855Q11.3379-2.53906 11.6895-2.53906Q12.0605-2.53906 12.29-2.76855Q12.5195-2.99805 12.5195-3.36914L12.5195-6.25L15.4004-6.25Q15.7715-6.25 16.001-6.47461Q16.2305-6.69922 16.2305-7.05078Q16.2305-7.42188 16.001-7.65137Q15.7715-7.88086 15.4004-7.88086L12.5195-7.88086L12.5195-10.752Q12.5195-11.1328 12.29-11.3623Q12.0605-11.5918 11.6895-11.5918Q11.3379-11.5918 11.1133-11.3574Q10.8887-11.123 10.8887-10.752L10.8887-7.88086L8.01758-7.88086Q7.63672-7.88086 7.40723-7.65137Q7.17773-7.42188 7.17773-7.05078Z"/>
  </g>
  <g transform="matrix(1 0 0 1 305.646 1933)">
   <path d="M14.9707 5.66406Q17.0605 5.66406 18.96 5.01465Q20.8594 4.36523 22.4512 3.19336Q24.043 2.02148 25.2197 0.429688Q26.3965-1.16211 27.0459-3.06641Q27.6953-4.9707 27.6953-7.05078Q27.6953-9.14062 27.0459-11.04Q26.3965-12.9395 25.2197-14.5312Q24.043-16.123 22.4512-17.2998Q20.8594-18.4766 18.9551-19.126Q17.0508-19.7754 14.9609-19.7754Q12.8711-19.7754 10.9717-19.126Q9.07227-18.4766 7.48535-17.2998Q5.89844-16.123 4.72168-14.5312Q3.54492-12.9395 2.90039-11.04Q2.25586-9.14062 2.25586-7.05078Q2.25586-4.9707 2.90527-3.06641Q3.55469-1.16211 4.72656 0.429688Q5.89844 2.02148 7.49023 3.19336Q9.08203 4.36523 10.9814 5.01465Q12.8809 5.66406 14.9707 5.66406ZM14.9707 3.84766Q13.1641 3.84766 11.5283 3.2959Q9.89258 2.74414 8.53516 1.74805Q7.17773 0.751953 6.17676-0.610352Q5.17578-1.97266 4.62891-3.6084Q4.08203-5.24414 4.08203-7.05078Q4.08203-8.86719 4.62891-10.5029Q5.17578-12.1387 6.17188-13.501Q7.16797-14.8633 8.52539-15.8594Q9.88281-16.8555 11.5186-17.4023Q13.1543-17.9492 14.9609-17.9492Q16.7773-17.9492 18.4131-17.4023Q20.0488-16.8555 21.4111-15.8594Q22.7734-14.8633 23.7695-13.501Q24.7656-12.1387 25.3174-10.5029Q25.8691-8.86719 25.8691-7.05078Q25.8789-5.24414 25.332-3.6084Q24.7852-1.97266 23.7842-0.610352Q22.7832 0.751953 21.4209 1.74805Q20.0586 2.74414 18.4229 3.2959Q16.7871 3.84766 14.9707 3.84766ZM9.19922-7.05078Q9.19922-6.66992 9.45801-6.4209Q9.7168-6.17188 10.1172-6.17188L14.0625-6.17188L14.0625-2.2168Q14.0625-1.81641 14.3115-1.55762Q14.5605-1.29883 14.9512-1.29883Q15.3516-1.29883 15.6104-1.55273Q15.8691-1.80664 15.8691-2.2168L15.8691-6.17188L19.8242-6.17188Q20.2246-6.17188 20.4785-6.4209Q20.7324-6.66992 20.7324-7.05078Q20.7324-7.46094 20.4785-7.71484Q20.2246-7.96875 19.8242-7.96875L15.8691-7.96875L15.8691-11.9141Q15.8691-12.3242 15.6104-12.583Q15.3516-12.8418 14.9512-12.8418Q14.5605-12.8418 14.3115-12.583Q14.0625-12.3242 14.0625-11.9141L14.0625-7.96875L10.1172-7.96875Q9.70703-7.96875 9.45312-7.71484Q9.19922-7.46094 9.19922-7.05078Z"/>
  </g>
  <text style="stroke:none;fill:black;font-family:sans-serif;font-size:13;font-weight:bold;" transform="matrix(1 0 0 1 263 1953)">Design Variations</text>
  <text style="stroke:none;fill:black;font-family:sans-serif;font-size:13;" transform="matrix(1 0 0 1 263 1971)">Symbols are supported in up to nine weights and three scales.</text>
  <text style="stroke:none;fill:black;font-family:sans-serif;font-size:13;" transform="matrix(1 0 0 1 263 1989)">For optimal layout with text and other symbols, vertically align</text>
  <text style="stroke:none;fill:black;font-family:sans-serif;font-size:13;" transform="matrix(1 0 0 1 263 2007)">symbols with the adjacent text.</text>
  <line style="fill:none;stroke:#00AEEF;stroke-width:0.5;opacity:1.0;" x1="776" x2="776" y1="1919" y2="1933"/>
  <g transform="matrix(1 0 0 1 776 1933)">
   <path d="M3.31055 0.15625Q3.70117 0.15625 3.91602-0.00976562Q4.13086-0.175781 4.26758-0.585938L5.52734-4.0332L11.2891-4.0332L12.5488-0.585938Q12.6855-0.175781 12.9004-0.00976562Q13.1152 0.15625 13.4961 0.15625Q13.8867 0.15625 14.1162-0.0585938Q14.3457-0.273438 14.3457-0.644531Q14.3457-0.869141 14.2383-1.17188L9.6582-13.3691Q9.48242-13.8184 9.17969-14.043Q8.87695-14.2676 8.4082-14.2676Q7.5-14.2676 7.17773-13.3789L2.59766-1.16211Q2.49023-0.859375 2.49023-0.634766Q2.49023-0.263672 2.70996-0.0537109Q2.92969 0.15625 3.31055 0.15625ZM6.00586-5.51758L8.37891-12.0898L8.42773-12.0898L10.8008-5.51758Z"/>
  </g>
  <line style="fill:none;stroke:#00AEEF;stroke-width:0.5;opacity:1.0;" x1="793.197" x2="793.197" y1="1919" y2="1933"/>
  <text style="stroke:none;fill:black;font-family:sans-serif;font-size:13;font-weight:bold;" transform="matrix(1 0 0 1 776 1953)">Margins</text>
  <text style="stroke:none;fill:black;font-family:sans-serif;font-size:13;" transform="matrix(1 0 0 1 776 1971)">Leading and trailing margins on the left and right side of each symbol</text>
  <text style="stroke:none;fill:black;font-family:sans-serif;font-size:13;" transform="matrix(1 0 0 1 776 1989)">can be adjusted by modifying the x-location of the margin guidelines.</text>
  <text style="stroke:none;fill:black;font-family:sans-serif;font-size:13;" transform="matrix(1 0 0 1 776 2007)">Modifications are automatically applied proportionally to all</text>
  <text style="stroke:none;fill:black;font-family:sans-serif;font-size:13;" transform="matrix(1 0 0 1 776 2025)">scales and weights.</text>
  <g transform="matrix(1 0 0 1 1289 1933)">
   <path d="M2.8418 1.86523L4.54102 3.57422Q5.18555 4.22852 5.90332 4.17969Q6.62109 4.13086 7.31445 3.35938L18.0078-8.42773L17.041-9.4043L6.42578 2.27539Q6.16211 2.57812 5.89355 2.61719Q5.625 2.65625 5.27344 2.30469L4.10156 1.14258Q3.75 0.791016 3.79395 0.522461Q3.83789 0.253906 4.14062-0.0195312L15.6152-10.8203L14.6387-11.7871L3.04688-0.898438Q2.30469-0.214844 2.25098 0.498047Q2.19727 1.21094 2.8418 1.86523ZM9.25781-16.3281Q8.94531-16.0254 8.90625-15.6348Q8.86719-15.2441 9.04297-14.9512Q9.21875-14.6777 9.55566-14.541Q9.89258-14.4043 10.3809-14.5215Q11.4746-14.7754 12.5977-14.7314Q13.7207-14.6875 14.7949-13.9844L14.209-12.5293Q13.9551-11.9043 14.0674-11.4404Q14.1797-10.9766 14.5801-10.5664L16.875-8.25195Q17.2363-7.88086 17.5781-7.82227Q17.9199-7.76367 18.3398-7.8418L19.4043-8.03711L20.0684-7.36328L20.0293-6.80664Q20-6.43555 20.1221-6.12305Q20.2441-5.81055 20.6055-5.44922L21.3672-4.70703Q21.7285-4.3457 22.1533-4.33105Q22.5781-4.31641 22.9297-4.66797L25.8398-7.58789Q26.1914-7.93945 26.1816-8.35449Q26.1719-8.76953 25.8105-9.13086L25.0391-9.89258Q24.6875-10.2539 24.3799-10.3857Q24.0723-10.5176 23.7109-10.4883L23.1348-10.4395L22.4902-11.0742L22.7344-12.1973Q22.832-12.6172 22.6953-12.9834Q22.5586-13.3496 22.1191-13.7891L19.9219-15.9766Q18.6719-17.2168 17.2607-17.8369Q15.8496-18.457 14.4189-18.4814Q12.9883-18.5059 11.665-17.959Q10.3418-17.4121 9.25781-16.3281ZM10.752-15.957Q11.6602-16.6211 12.7002-16.9043Q13.7402-17.1875 14.8047-17.085Q15.8691-16.9824 16.8701-16.5137Q17.8711-16.0449 18.7012-15.2051L21.1328-12.793Q21.3086-12.6172 21.3525-12.4512Q21.3965-12.2852 21.3379-12.0312L21.0156-10.5469L22.5195-9.0625L23.5059-9.12109Q23.6914-9.13086 23.7891-9.09668Q23.8867-9.0625 24.0332-8.91602L24.6094-8.33984L22.168-5.89844L21.5918-6.47461Q21.4453-6.62109 21.4062-6.71875Q21.3672-6.81641 21.377-7.01172L21.4453-7.98828L19.9512-9.47266L18.4277-9.21875Q18.1836-9.16992 18.042-9.2041Q17.9004-9.23828 17.7148-9.41406L15.7129-11.416Q15.5176-11.5918 15.4932-11.7529Q15.4688-11.9141 15.5859-12.1875L16.4648-14.2773Q15.293-15.3711 13.8281-15.791Q12.3633-16.2109 10.8398-15.7617Q10.7227-15.7324 10.6885-15.8057Q10.6543-15.8789 10.752-15.957Z"/>
  </g>
  <text style="stroke:none;fill:black;font-family:sans-serif;font-size:13;font-weight:bold;" transform="matrix(1 0 0 1 1289 1953)">Exporting</text>
  <text style="stroke:none;fill:black;font-family:sans-serif;font-size:13;" transform="matrix(1 0 0 1 1289 1971)">Symbols should be outlined when exporting to ensure the</text>
  <text style="stroke:none;fill:black;font-family:sans-serif;font-size:13;" transform="matrix(1 0 0 1 1289 1989)">design is preserved when submitting to Xcode.</text>
  <text id="template-version" style="stroke:none;fill:black;font-family:sans-serif;font-size:13;text-anchor:end;" transform="matrix(1 0 0 1 3036 1933)">Template v.3.0</text>
  <text style="stroke:none;fill:black;font-family:sans-serif;font-size:13;text-anchor:end;" transform="matrix(1 0 0 1 3036 1951)">Requires Xcode 13 or greater</text>
  <text id="descriptive-name" style="stroke:none;fill:black;font-family:sans-serif;font-size:13;text-anchor:end;" transform="matrix(1 0 0 1 3036 1969)">Generated from normalLine</text>
  <text style="stroke:none;fill:black;font-family:sans-serif;font-size:13;text-anchor:end;" transform="matrix(1 0 0 1 3036 1987)">Typeset at 100 points</text>
  <text style="stroke:none;fill:black;font-family:sans-serif;font-size:13;" transform="matrix(1 0 0 1 263 726)">Small</text>
  <text style="stroke:none;fill:black;font-family:sans-serif;font-size:13;" transform="matrix(1 0 0 1 263 1156)">Medium</text>
  <text style="stroke:none;fill:black;font-family:sans-serif;font-size:13;" transform="matrix(1 0 0 1 263 1586)">Large</text>
 </g>
 <g id="Guides">
  <g id="H-reference" style="fill:#27AAE1;stroke:none;" transform="matrix(1 0 0 1 339 696)">
   <path d="M0.993347 0L3.6377 0L29.3282-67.1326L30.0301-67.1326L30.0301-70.459L28.1227-70.459ZM11.6882-24.4797L46.9818-24.4797L46.2311-26.7288L12.4382-26.7288ZM55.1193 0L57.7637 0L30.6381-70.459L29.4327-70.459L29.4327-67.1326Z"/>
  </g>
  <line id="Baseline-S" style="fill:none;stroke:#27AAE1;opacity:1;stroke-width:0.5;" x1="263" x2="3036" y1="696" y2="696"/>
  <line id="Capline-S" style="fill:none;stroke:#27AAE1;opacity:1;stroke-width:0.5;" x1="263" x2="3036" y1="625.541" y2="625.541"/>
  <g id="H-reference" style="fill:#27AAE1;stroke:none;" transform="matrix(1 0 0 1 339 1126)">
   <path d="M0.993347 0L3.6377 0L29.3282-67.1326L30.0301-67.1326L30.0301-70.459L28.1227-70.459ZM11.6882-24.4797L46.9818-24.4797L46.2311-26.7288L12.4382-26.7288ZM55.1193 0L57.7637 0L30.6381-70.459L29.4327-70.459L29.4327-67.1326Z"/>
  </g>
  <line id="Baseline-M" style="fill:none;stroke:#27AAE1;opacity:1;stroke-width:0.5;" x1="263" x2="3036" y1="1126" y2="1126"/>
  <line id="Capline-M" style="fill:none;stroke:#27AAE1;opacity:1;stroke-width:0.5;" x1="263" x2="3036" y1="1055.54" y2="1055.54"/>
  <g id="H-reference" style="fill:#27AAE1;stroke:none;" transform="matrix(1 0 0 1 339 1556)">
   <path d="M0.993347 0L3.6377 0L29.3282-67.1326L30.0301-67.1326L30.0301-70.459L28.1227-70.459ZM11.6882-24.4797L46.9818-24.4797L46.2311-26.7288L12.4382-26.7288ZM55.1193 0L57.7637 0L30.6381-70.459L29.4327-70.459L29.4327-67.1326Z"/>
  </g>
  <line id="Baseline-L" style="fill:none;stroke:#27AAE1;opacity:1;stroke-width:0.5;" x1="263" x2="3036" y1="1556" y2="1556"/>
  <line id="Capline-L" style="fill:none;stroke:#27AAE1;opacity:1;stroke-width:0.5;" x1="263" x2="3036" y1="1485.54" y2="1485.54"/>
  <line id="left-margin-Ultralight-S" style="fill:none;stroke:#FF3B30;stroke-width:0.5;opacity:1.0;" x1="501.671" x2="501.671" y1="600.784" y2="720.121"/>
  <line id="right-margin-Ultralight-S" style="fill:none;stroke:#FF3B30;stroke-width:0.5;opacity:1.0;" x1="617.751" x2="617.751" y1="600.784" y2="720.121"/>
  <line id="left-margin-Regular-S" style="fill:none;stroke:#FF3B30;stroke-width:0.5;opacity:1.0;" x1="1391.81" x2="1391.81" y1="600.784" y2="720.121"/>
  <line id="right-margin-Regular-S" style="fill:none;stroke:#FF3B30;stroke-width:0.5;opacity:1.0;" x1="1507.88" x2="1507.88" y1="600.784" y2="720.121"/>
  <line id="left-margin-Black-S" style="fill:none;stroke:#FF3B30;stroke-width:0.5;opacity:1.0;" x1="2875.36" x2="2875.36" y1="600.784" y2="720.121"/>
  <line id="right-margin-Black-S" style="fill:none;stroke:#FF3B30;stroke-width:0.5;opacity:1.0;" x1="2991.44" x2="2991.44" y1="600.784" y2="720.121"/>
 </g>
 <g id="Symbols">
  <g id="Black-S" transform="matrix(1 0 0 1 2875.36 696)">
   <path d="M-8.19019-92.9992L-8.07339-92.9972L-3.54696-92.6498L0.900083-92.2987L5.26775-91.9439C5.98909-91.8844 6.70711-91.8248 7.42183-91.7651L11.6705-91.4046L15.8399-91.0403L19.9299-90.6722L23.9408-90.3003L27.8723-89.9246C29.1697-89.7988 30.4538-89.6722 31.7247-89.5451L35.4979-89.1617C41.0984-88.5838 46.4317-87.9928 51.4983-87.3887L54.8364-86.984C56.4858-86.7807 58.1055-86.5759 59.6956-86.3696L62.8363-85.9551C63.87-85.8163 64.8906-85.6768 65.898-85.5367L68.8809-85.1142C97.8241-80.9411 115.324-76.1929 121.49-70.8213C125.157-67.6267 125.151-64.2591 121.754-60.846L121.391-60.4927C120.952-60.0804 120.465-59.6675 119.929-59.2542L119.457-58.8999C119.055-58.6046 118.627-58.3091 118.175-58.0135L117.62-57.6588C117.526-57.5997 117.43-57.5406 117.334-57.4814L116.744-57.1267L116.131-56.7719C116.027-56.7128 115.922-56.6536 115.816-56.5945L115.167-56.2398L114.496-55.8852C114.382-55.8261 114.267-55.767 114.151-55.7079L113.445-55.3535L112.715-54.9992L111.962-54.6451L111.174-54.2851L110.36-53.924L109.521-53.5617L108.657-53.1983L107.767-52.8337L106.852-52.4679L105.911-52.101L104.945-51.7329L103.954-51.3636L102.938-50.9932L101.896-50.6216L100.829-50.2489L99.7361-49.8749L98.6181-49.4998L96.8937-48.935L95.7123-48.5569L94.5056-48.1777L92.6479-47.6067L90.7332-47.033L88.7614-46.4566L87.4151-46.0709L85.3481-45.4901L83.2239-44.9067L81.0426-44.3205L78.8042-43.7317L77.2802-43.3376L74.9466-42.7443L72.5558-42.1483L70.1078-41.5496L68.444-41.149L65.9008-40.5458L63.3003-39.9399L59.7441-39.1277L57.9278-38.7198L55.1557-38.1058L50.5107-37.0893L47.8027-36.4875L44.2809-35.691L41.7062-35.0981L38.3623-34.3134L35.921-33.7294L33.5369-33.1491L30.4472-32.3814L28.1966-31.8101L26.0032-31.2427L23.8671-30.679L21.7881-30.1192L20.434-29.7481L17.8021-29.0111L16.5243-28.6452L14.6553-28.0995L12.8436-27.5576L11.6676-27.1986L10.5171-26.8412L8.83906-26.3084L7.75221-25.9553L6.69082-25.604L5.65491-25.2544L4.14881-24.7332L2.70003-24.2159L1.76603-23.8732L0.857517-23.5323L-0.025511-23.193L-0.88305-22.8555L-1.7151-22.5198L-2.52165-22.1858L-3.30271-21.8535L-4.05826-21.5229L-4.78311-21.1966L-5.47621-20.8761L-6.14253-20.5591C-6.25136-20.5066-6.35907-20.4543-6.46568-20.402L-7.09202-20.0905L-7.69184-19.7824L-8.26524-19.4777L-8.81232-19.1764C-8.90131-19.1265-8.98921-19.0767-9.07602-19.027L-9.58382-18.7307L-10.0656-18.4375C-10.1437-18.3889-10.2207-18.3404-10.2967-18.2921L-10.7395-18.0036C-10.8828-17.9079-11.0218-17.8128-11.1566-17.7181L-11.5479-17.4357C-15.207-14.7193-15.2785-12.4114-12.1816-10.2527L-11.8499-10.0299C-6.32268-6.4472 6.98739-3.34106 28.0284-0.728729L30.6987-0.40476C35.6682 0.184463 41.0436 0.747714 46.8243 1.28479L50.0176 1.57514L53.2912 1.86029L56.6452 2.14023C57.2109 2.18646 57.7799 2.23246 58.3523 2.27825L61.8268 2.55037L65.3815 2.81726L69.0165 3.07892L72.7317 3.33534L76.5271 3.58651C77.1664 3.62793 77.809 3.66913 78.4549 3.71012L82.3707 3.9534C83.03 3.99351 83.6926 4.0334 84.3586 4.07307L88.3945 4.30845C89.0739 4.34724 89.7565 4.38581 90.4425 4.42416L94.5987 4.65161C95.298 4.68908 96.0007 4.72633 96.7068 4.76336L100.983 4.98288L105.339 5.1971L109.776 5.40601L114.292 5.6096C115.051 5.64309 115.814 5.67636 116.58 5.7094L121.217 5.90501C121.996 5.93717 122.779 5.9691 123.565 6.00081C124.117 6.02308 124.546 6.48847 124.524 7.04031C124.501 7.59215 124.036 8.02145 123.484 7.99919L118.777 7.80499L114.15 7.60549L109.605 7.40068C108.855 7.36611 108.107 7.33131 107.363 7.29629L102.94 7.0835C102.209 7.04759 101.482 7.01146 100.758 6.97511L96.4564 6.75433L92.2355 6.52822C91.5387 6.49008 90.8454 6.45173 90.1554 6.41315L86.056 6.17901L82.0375 5.93951L78.1 5.69465C77.4505 5.65339 76.8043 5.61191 76.1616 5.57021L72.3454 5.31728L68.6102 5.05897L64.9558 4.79528L61.3822 4.52618L57.8895 4.25167C57.3141 4.20547 56.7421 4.15904 56.1734 4.11239L52.8019 3.82976C52.2467 3.78221 51.6948 3.73442 51.1464 3.68642L47.896 3.39565C43.6159 3.00434 39.5511 2.59853 35.7013 2.17814L32.8543 1.86012C30.0476 1.53936 27.3619 1.21039 24.7969 0.873176L22.2722 0.533213C4.05321-1.98002-7.67012-4.9372-12.9378-8.35163C-16.5653-10.7029-17.4136-13.2798-15.6878-15.9554L-15.4729-16.2707C-15.2084-16.6389-14.8955-17.009-14.5348-17.3805L-14.2139-17.6993C-13.8814-18.0184-13.5138-18.3385-13.1115-18.6593L-12.6977-18.9805C-12.4142-19.1947-12.1152-19.4093-11.801-19.6241L-11.3183-19.9465L-10.8127-20.2693L-10.2844-20.5924L-9.73345-20.9157L-9.15986-21.2392L-8.56374-21.5628L-7.94517-21.8866L-7.30421-22.2104L-6.64095-22.5343L-5.95545-22.8581C-5.83936-22.9121-5.72233-22.966-5.60439-23.02L-4.87418-23.3489L-4.10794-23.6842L-3.31636-24.0211L-2.49942-24.3597L-1.65714-24.6998L-0.789496-25.0416L0.103502-25.385L1.02186-25.7301L1.96558-26.0767L2.93466-26.425L3.92911-26.7749L4.94893-27.1264L5.99412-27.4796L7.06468-27.8344L8.71811-28.3696L9.85211-28.7285L11.0115-29.089L12.1963-29.4512L14.021-29.9974L15.9029-30.5474L17.1893-30.9161L19.1664-31.4723L20.5163-31.8451L22.5886-32.4074L24.7182-32.9735L26.9049-33.5432L28.3945-33.9251L30.6765-34.5011L32.2297-34.8871L34.607-35.4693L37.0416-36.0552L40.3767-36.8422L42.9448-37.4368L45.5702-38.0352L48.2528-38.6373L50.9926-39.2432L55.6476-40.2621L58.3872-40.8723L61.0696-41.4797L63.6949-42.0843L65.4133-42.4858L67.9434-43.0858L70.4163-43.6829L73.6246-44.4748L75.1906-44.8689L77.492-45.4576L78.9945-45.8486L81.2006-46.4327L83.3495-47.0139L84.7503-47.3999L86.1257-47.7846L88.1411-48.3592L89.4529-48.7408L91.3729-49.3107L93.2357-49.8778L94.4458-50.2543L95.6304-50.6296L96.7895-51.0035L97.9232-51.3762L99.0315-51.7476L100.114-52.1178L101.172-52.4866L102.204-52.8542L103.21-53.2206L104.191-53.5856L105.146-53.9494L106.076-54.3119L106.981-54.6731L107.86-55.033L108.714-55.3916L109.542-55.749L110.345-56.105L111.122-56.4598L111.867-56.8098L112.585-57.1569L113.276-57.5013L113.941-57.8428C114.05-57.8995 114.157-57.9561 114.264-58.0126L114.889-58.3501C115.092-58.4621 115.292-58.5737 115.487-58.6849L116.059-59.0171L116.605-59.3468L117.124-59.6739C117.209-59.7282 117.292-59.7824 117.374-59.8365L117.855-60.1598C118.011-60.2672 118.162-60.3742 118.309-60.4808L118.738-60.7993C122.827-63.92 123.176-66.6995 120.176-69.3133C114.204-74.5162 96.3431-79.2283 66.7087-83.3989L63.706-83.8141C63.199-83.883 62.6887-83.9518 62.1752-84.0204L59.0548-84.4302L55.856-84.8364C55.3164-84.9038 54.7734-84.971 54.2272-85.0381L50.9109-85.4388C49.7923-85.5717 48.6607-85.7041 47.5161-85.8358L44.043-86.2292C43.4576-86.2944 42.869-86.3595 42.2771-86.4244L38.6865-86.8123L35.0177-87.1964C34.3997-87.2601 33.7785-87.3236 33.154-87.387L29.3678-87.7655C28.7302-87.8283 28.0894-87.8909 27.4454-87.9534L23.5419-88.3263C22.8848-88.3882 22.2244-88.4498 21.5608-88.5114L17.5401-88.8787L13.4412-89.2422L9.26421-89.6019C8.56154-89.6616 7.85562-89.721 7.14644-89.7804L2.85235-90.1344C2.13016-90.1931 1.40472-90.2516 0.67603-90.31L-3.73512-90.6583C-5.21851-90.7738-6.71489-90.8887-8.22428-91.0028C-8.77499-91.0445-9.18765-91.5247-9.14598-92.0754C-9.1073-92.5868-8.69047-92.9792-8.19019-92.9992Z"/>
  </g>
  <g id="Regular-S" transform="matrix(1 0 0 1 1391.81 696)">
   <path d="M-11.6402-89.9992L-11.5234-89.9972L-6.99696-89.6498L-2.54992-89.2987L1.81775-88.9439C2.53909-88.8844 3.25711-88.8248 3.97183-88.7651L8.2205-88.4046L12.3899-88.0403L16.4799-87.6722L20.4908-87.3003L24.4223-86.9246C25.7197-86.7988 27.0038-86.6722 28.2747-86.5451L32.0479-86.1617C37.6484-85.5838 42.9817-84.9928 48.0483-84.3887L51.3864-83.984C53.0358-83.7807 54.6555-83.5759 56.2456-83.3696L59.3863-82.9551C60.42-82.8163 61.4406-82.6768 62.448-82.5367L65.4309-82.1142C94.3741-77.9411 111.874-73.1929 118.04-67.8213C121.707-64.6267 121.701-61.2591 118.304-57.846L117.941-57.4927C117.502-57.0804 117.015-56.6675 116.479-56.2542L116.007-55.8999C115.605-55.6046 115.177-55.3091 114.725-55.0135L114.17-54.6588C114.076-54.5997 113.98-54.5406 113.884-54.4814L113.294-54.1267L112.681-53.7719C112.577-53.7128 112.472-53.6536 112.366-53.5945L111.717-53.2398L111.046-52.8852C110.932-52.8261 110.817-52.767 110.701-52.7079L109.995-52.3535L109.265-51.9992L108.512-51.6451L107.724-51.2851L106.91-50.924L106.071-50.5617L105.207-50.1983L104.317-49.8337L103.402-49.4679L102.461-49.101L101.495-48.7329L100.504-48.3636L99.4877-47.9932L98.4459-47.6216L97.3786-47.2489L96.2861-46.8749L95.1681-46.4998L93.4437-45.935L92.2623-45.5569L91.0556-45.1777L89.1979-44.6067L87.2832-44.033L85.3114-43.4566L83.9651-43.0709L81.8981-42.4901L79.7739-41.9067L77.5926-41.3205L75.3542-40.7317L73.8302-40.3376L71.4966-39.7443L69.1058-39.1483L66.6578-38.5496L64.994-38.149L62.4508-37.5458L59.8503-36.9399L56.2941-36.1277L54.4778-35.7198L51.7057-35.1058L47.0607-34.0893L44.3527-33.4875L40.8309-32.691L38.2562-32.0981L34.9123-31.3134L32.471-30.7294L30.0869-30.1491L26.9972-29.3814L24.7466-28.8101L22.5532-28.2427L20.4171-27.679L18.3381-27.1192L16.984-26.7481L14.3521-26.0111L13.0743-25.6452L11.2053-25.0995L9.39359-24.5576L8.21761-24.1986L7.06709-23.8412L5.38906-23.3084L4.30221-22.9553L3.24082-22.604L2.20491-22.2544L0.698808-21.7332L-0.749968-21.2159L-1.68397-20.8732L-2.59248-20.5323L-3.47551-20.193L-4.33305-19.8555L-5.1651-19.5198L-5.97165-19.1858L-6.75271-18.8535L-7.50826-18.5229L-8.23311-18.1966L-8.92621-17.8761L-9.59253-17.5591C-9.70136-17.5066-9.80907-17.4543-9.91568-17.402L-10.542-17.0905L-11.1418-16.7824L-11.7152-16.4777L-12.2623-16.1764C-12.3513-16.1265-12.4392-16.0767-12.526-16.027L-13.0338-15.7307L-13.5156-15.4375C-13.5937-15.3889-13.6707-15.3404-13.7467-15.2921L-14.1895-15.0036C-14.3328-14.9079-14.4718-14.8128-14.6066-14.7181L-14.9979-14.4357C-18.657-11.7193-18.7285-9.41139-15.6316-7.25269L-15.2999-7.0299C-9.77268-3.4472 3.53739-0.341063 24.5784 2.27127L27.2487 2.59524C32.2182 3.18446 37.5936 3.74771 43.3743 4.28479L46.5676 4.57514L49.8412 4.86029L53.1952 5.14023C53.7609 5.18646 54.3299 5.23246 54.9023 5.27825L58.3768 5.55037L61.9315 5.81726L65.5665 6.07892L69.2817 6.33534L73.0771 6.58651C73.7164 6.62793 74.359 6.66913 75.0049 6.71012L78.9207 6.9534C79.58 6.99351 80.2426 7.0334 80.9086 7.07307L84.9445 7.30845C85.6239 7.34724 86.3065 7.38581 86.9925 7.42416L91.1487 7.65161C91.848 7.68908 92.5507 7.72633 93.2568 7.76336L97.533 7.98288L101.889 8.1971L106.326 8.40601L110.842 8.6096C111.601 8.64309 112.364 8.67636 113.13 8.7094L117.767 8.90501C118.546 8.93717 119.329 8.9691 120.115 9.00081C120.667 9.02308 121.096 9.48847 121.074 10.0403C121.051 10.5921 120.586 11.0214 120.034 10.9992L115.327 10.805L110.7 10.6055L106.155 10.4007C105.405 10.3661 104.657 10.3313 103.913 10.2963L99.4897 10.0835C98.7592 10.0476 98.0321 10.0115 97.3083 9.97511L93.0064 9.75433L88.7855 9.52822C88.0887 9.49008 87.3954 9.45173 86.7054 9.41315L82.606 9.17901L78.5875 8.93951L74.65 8.69465C74.0005 8.65339 73.3543 8.61191 72.7116 8.57021L68.8954 8.31728L65.1602 8.05897L61.5058 7.79528L57.9322 7.52618L54.4395 7.25167C53.8641 7.20547 53.2921 7.15904 52.7234 7.11239L49.3519 6.82976C48.7967 6.78221 48.2448 6.73442 47.6964 6.68642L44.446 6.39565C40.1659 6.00434 36.1011 5.59853 32.2513 5.17814L29.4043 4.86012C26.5976 4.53936 23.9119 4.21039 21.3469 3.87318L18.8222 3.53321C0.60321 1.01998-11.1201-1.9372-16.3878-5.35163C-20.0153-7.70293-20.8636-10.2798-19.1378-12.9554L-18.9229-13.2707C-18.6584-13.6389-18.3455-14.009-17.9848-14.3805L-17.6639-14.6993C-17.3314-15.0184-16.9638-15.3385-16.5615-15.6593L-16.1477-15.9805C-15.8642-16.1947-15.5652-16.4093-15.251-16.6241L-14.7683-16.9465L-14.2627-17.2693L-13.7344-17.5924L-13.1835-17.9157L-12.6099-18.2392L-12.0137-18.5628L-11.3952-18.8866L-10.7542-19.2104L-10.0909-19.5343L-9.40545-19.8581C-9.28936-19.9121-9.17233-19.966-9.05439-20.02L-8.32418-20.3489L-7.55794-20.6842L-6.76636-21.0211L-5.94942-21.3597L-5.10714-21.6998L-4.2395-22.0416L-3.3465-22.385L-2.42814-22.7301L-1.48442-23.0767L-0.51534-23.425L0.479109-23.7749L1.49893-24.1264L2.54412-24.4796L3.61468-24.8344L5.26811-25.3696L6.40211-25.7285L7.56151-26.089L8.74628-26.4512L10.571-26.9974L12.4529-27.5474L13.7393-27.9161L15.7164-28.4723L17.0663-28.8451L19.1386-29.4074L21.2682-29.9735L23.4549-30.5432L24.9445-30.9251L27.2265-31.5011L28.7797-31.8871L31.157-32.4693L33.5916-33.0552L36.9267-33.8422L39.4948-34.4368L42.1202-35.0352L44.8028-35.6373L47.5426-36.2432L52.1976-37.2621L54.9372-37.8723L57.6196-38.4797L60.2449-39.0843L61.9633-39.4858L64.4934-40.0858L66.9663-40.6829L70.1746-41.4748L71.7406-41.8689L74.042-42.4576L75.5445-42.8486L77.7506-43.4327L79.8995-44.0139L81.3003-44.3999L82.6757-44.7846L84.6911-45.3592L86.0029-45.7408L87.9229-46.3107L89.7857-46.8778L90.9958-47.2543L92.1804-47.6296L93.3395-48.0035L94.4732-48.3762L95.5815-48.7476L96.6643-49.1178L97.7217-49.4866L98.7536-49.8542L99.76-50.2206L100.741-50.5856L101.696-50.9494L102.626-51.3119L103.531-51.6731L104.41-52.033L105.264-52.3916L106.092-52.749L106.895-53.105L107.672-53.4598L108.417-53.8098L109.135-54.1569L109.826-54.5013L110.491-54.8428C110.6-54.8995 110.707-54.9561 110.814-55.0126L111.439-55.3501C111.642-55.4621 111.842-55.5737 112.037-55.6849L112.609-56.0171L113.155-56.3468L113.674-56.6739C113.759-56.7282 113.842-56.7824 113.924-56.8365L114.405-57.1598C114.561-57.2672 114.712-57.3742 114.859-57.4808L115.288-57.7993C119.377-60.92 119.726-63.6995 116.726-66.3133C110.754-71.5162 92.8931-76.2283 63.2587-80.3989L60.256-80.8141C59.749-80.883 59.2387-80.9518 58.7252-81.0204L55.6048-81.4302L52.406-81.8364C51.8664-81.9038 51.3234-81.971 50.7772-82.0381L47.4609-82.4388C46.3423-82.5717 45.2107-82.7041 44.0661-82.8358L40.593-83.2292C40.0076-83.2944 39.419-83.3595 38.8271-83.4244L35.2365-83.8123L31.5677-84.1964C30.9497-84.2601 30.3285-84.3236 29.704-84.387L25.9178-84.7655C25.2802-84.8283 24.6394-84.8909 23.9954-84.9534L20.0919-85.3263C19.4348-85.3882 18.7744-85.4498 18.1108-85.5114L14.0901-85.8787L9.99119-86.2422L5.81421-86.6019C5.11154-86.6616 4.40562-86.721 3.69644-86.7804L-0.597655-87.1344C-1.31984-87.1931-2.04528-87.2516-2.77397-87.31L-7.18512-87.6583C-8.66851-87.7738-10.1649-87.8887-11.6743-88.0028C-12.225-88.0445-12.6377-88.5247-12.596-89.0754C-12.5573-89.5868-12.1405-89.9792-11.6402-89.9992Z"/>
  </g>
  <g id="Ultralight-S" transform="matrix(1 0 0 1 501.671 696)">
   <path d="M-4.50219-91.9992L-4.38539-91.9972L0.141043-91.6498L4.58808-91.2987L8.95575-90.9439C9.67709-90.8844 10.3951-90.8248 11.1098-90.7651L15.3585-90.4046L19.5279-90.0403L23.6179-89.6722L27.6288-89.3003L31.5603-88.9246C32.8577-88.7988 34.1418-88.6722 35.4127-88.5451L39.1859-88.1617C44.7864-87.5838 50.1197-86.9928 55.1863-86.3887L58.5244-85.984C60.1738-85.7807 61.7935-85.5759 63.3836-85.3696L66.5243-84.9551C67.558-84.8163 68.5786-84.6768 69.586-84.5367L72.5689-84.1142C101.512-79.9411 119.012-75.1929 125.178-69.8213C128.845-66.6267 128.839-63.2591 125.442-59.846L125.079-59.4927C124.64-59.0804 124.153-58.6675 123.617-58.2542L123.145-57.8999C122.743-57.6046 122.315-57.3091 121.863-57.0135L121.308-56.6588C121.214-56.5997 121.118-56.5406 121.022-56.4814L120.432-56.1267L119.819-55.7719C119.715-55.7128 119.61-55.6536 119.504-55.5945L118.855-55.2398L118.184-54.8852C118.07-54.8261 117.955-54.767 117.839-54.7079L117.133-54.3535L116.403-53.9992L115.65-53.6451L114.862-53.2851L114.048-52.924L113.209-52.5617L112.345-52.1983L111.455-51.8337L110.54-51.4679L109.599-51.101L108.633-50.7329L107.642-50.3636L106.626-49.9932L105.584-49.6216L104.517-49.2489L103.424-48.8749L102.306-48.4998L100.582-47.935L99.4003-47.5569L98.1936-47.1777L96.3359-46.6067L94.4212-46.033L92.4494-45.4566L91.1031-45.0709L89.0361-44.4901L86.9119-43.9067L84.7306-43.3205L82.4922-42.7317L80.9682-42.3376L78.6346-41.7443L76.2438-41.1483L73.7958-40.5496L72.132-40.149L69.5888-39.5458L66.9883-38.9399L63.4321-38.1277L61.6158-37.7198L58.8437-37.1058L54.1987-36.0893L51.4907-35.4875L47.9689-34.691L45.3942-34.0981L42.0503-33.3134L39.609-32.7294L37.2249-32.1491L34.1352-31.3814L31.8846-30.8101L29.6912-30.2427L27.5551-29.679L25.4761-29.1192L24.122-28.7481L21.4901-28.0111L20.2123-27.6452L18.3433-27.0995L16.5316-26.5576L15.3556-26.1986L14.2051-25.8412L12.5271-25.3084L11.4402-24.9553L10.3788-24.604L9.34291-24.2544L7.83681-23.7332L6.38803-23.2159L5.45403-22.8732L4.54552-22.5323L3.66249-22.193L2.80495-21.8555L1.9729-21.5198L1.16635-21.1858L0.385294-20.8535L-0.370263-20.5229L-1.09511-20.1966L-1.78821-19.8761L-2.45453-19.5591C-2.56336-19.5066-2.67107-19.4543-2.77768-19.402L-3.40402-19.0905L-4.00384-18.7824L-4.57724-18.4777L-5.12432-18.1764C-5.21331-18.1265-5.30121-18.0767-5.38802-18.027L-5.89582-17.7307L-6.37756-17.4375C-6.45568-17.3889-6.53272-17.3404-6.60869-17.2921L-7.05153-17.0036C-7.19484-16.9079-7.33385-16.8128-7.46857-16.7181L-7.85991-16.4357C-11.519-13.7193-11.5905-11.4114-8.49358-9.25269L-8.16192-9.0299C-2.63468-5.4472 10.6754-2.34106 31.7164 0.271271L34.3867 0.59524C39.3562 1.18446 44.7316 1.74771 50.5123 2.28479L53.7056 2.57514L56.9792 2.86029L60.3332 3.14023C60.8989 3.18646 61.4679 3.23246 62.0403 3.27825L65.5148 3.55037L69.0695 3.81726L72.7045 4.07892L76.4197 4.33534L80.2151 4.58651C80.8544 4.62793 81.497 4.66913 82.1429 4.71012L86.0587 4.9534C86.718 4.99351 87.3806 5.0334 88.0466 5.07307L92.0825 5.30845C92.7619 5.34724 93.4445 5.38581 94.1305 5.42416L98.2867 5.65161C98.986 5.68908 99.6887 5.72633 100.395 5.76336L104.671 5.98288L109.027 6.1971L113.464 6.40601L117.98 6.6096C118.739 6.64309 119.502 6.67636 120.268 6.7094L124.905 6.90501C125.684 6.93717 126.467 6.9691 127.253 7.00081C127.805 7.02308 128.234 7.48847 128.212 8.04031C128.189 8.59215 127.724 9.02145 127.172 8.99919L122.465 8.80499L117.838 8.60549L113.293 8.40068C112.543 8.36611 111.795 8.33131 111.051 8.29629L106.628 8.0835C105.897 8.04759 105.17 8.01146 104.446 7.97511L100.144 7.75433L95.9235 7.52822C95.2267 7.49008 94.5334 7.45173 93.8434 7.41315L89.744 7.17901L85.7255 6.93951L81.788 6.69465C81.1385 6.65339 80.4923 6.61191 79.8496 6.57021L76.0334 6.31728L72.2982 6.05897L68.6438 5.79528L65.0702 5.52618L61.5775 5.25167C61.0021 5.20547 60.4301 5.15904 59.8614 5.11239L56.4899 4.82976C55.9347 4.78221 55.3828 4.73442 54.8344 4.68642L51.584 4.39565C47.3039 4.00434 43.2391 3.59853 39.3893 3.17814L36.5423 2.86012C33.7356 2.53936 31.0499 2.21039 28.4849 1.87318L25.9602 1.53321C7.74121-0.980018-3.98212-3.9372-9.24976-7.35163C-12.8773-9.70293-13.7256-12.2798-11.9998-14.9554L-11.7849-15.2707C-11.5204-15.6389-11.2075-16.009-10.8468-16.3805L-10.5259-16.6993C-10.1934-17.0184-9.82578-17.3385-9.42353-17.6593L-9.00972-17.9805C-8.72616-18.1947-8.42723-18.4093-8.11303-18.6241L-7.6303-18.9465L-7.12475-19.2693L-6.59644-19.5924L-6.04545-19.9157L-5.47186-20.2392L-4.87574-20.5628L-4.25717-20.8866L-3.61621-21.2104L-2.95295-21.5343L-2.26745-21.8581C-2.15136-21.9121-2.03433-21.966-1.91639-22.02L-1.18618-22.3489L-0.419945-22.6842L0.371641-23.0211L1.18858-23.3597L2.03086-23.6998L2.8985-24.0416L3.7915-24.385L4.70986-24.7301L5.65358-25.0767L6.62266-25.425L7.61711-25.7749L8.63693-26.1264L9.68212-26.4796L10.7527-26.8344L12.4061-27.3696L13.5401-27.7285L14.6995-28.089L15.8843-28.4512L17.709-28.9974L19.5909-29.5474L20.8773-29.9161L22.8544-30.4723L24.2043-30.8451L26.2766-31.4074L28.4062-31.9735L30.5929-32.5432L32.0825-32.9251L34.3645-33.5011L35.9177-33.8871L38.295-34.4693L40.7296-35.0552L44.0647-35.8422L46.6328-36.4368L49.2582-37.0352L51.9408-37.6373L54.6806-38.2432L59.3356-39.2621L62.0752-39.8723L64.7576-40.4797L67.3829-41.0843L69.1013-41.4858L71.6314-42.0858L74.1043-42.6829L77.3126-43.4748L78.8786-43.8689L81.18-44.4576L82.6825-44.8486L84.8886-45.4327L87.0375-46.0139L88.4383-46.3999L89.8137-46.7846L91.8291-47.3592L93.1409-47.7408L95.0609-48.3107L96.9237-48.8778L98.1338-49.2543L99.3184-49.6296L100.478-50.0035L101.611-50.3762L102.72-50.7476L103.802-51.1178L104.86-51.4866L105.892-51.8542L106.898-52.2206L107.879-52.5856L108.834-52.9494L109.764-53.3119L110.669-53.6731L111.548-54.033L112.402-54.3916L113.23-54.749L114.033-55.105L114.81-55.4598L115.555-55.8098L116.273-56.1569L116.964-56.5013L117.629-56.8428C117.738-56.8995 117.845-56.9561 117.952-57.0126L118.577-57.3501C118.78-57.4621 118.98-57.5737 119.175-57.6849L119.747-58.0171L120.293-58.3468L120.812-58.6739C120.897-58.7282 120.98-58.7824 121.062-58.8365L121.543-59.1598C121.699-59.2672 121.85-59.3742 121.997-59.4808L122.426-59.7993C126.515-62.92 126.864-65.6995 123.864-68.3133C117.892-73.5162 100.031-78.2283 70.3967-82.3989L67.394-82.8141C66.887-82.883 66.3767-82.9518 65.8632-83.0204L62.7428-83.4302L59.544-83.8364C59.0044-83.9038 58.4614-83.971 57.9152-84.0381L54.5989-84.4388C53.4803-84.5717 52.3487-84.7041 51.2041-84.8358L47.731-85.2292C47.1456-85.2944 46.557-85.3595 45.9651-85.4244L42.3745-85.8123L38.7057-86.1964C38.0877-86.2601 37.4665-86.3236 36.842-86.387L33.0558-86.7655C32.4182-86.8283 31.7774-86.8909 31.1334-86.9534L27.2299-87.3263C26.5728-87.3882 25.9124-87.4498 25.2488-87.5114L21.2281-87.8787L17.1292-88.2422L12.9522-88.6019C12.2495-88.6616 11.5436-88.721 10.8344-88.7804L6.54035-89.1344C5.81816-89.1931 5.09272-89.2516 4.36403-89.31L-0.0471209-89.6583C-1.53051-89.7738-3.02689-89.8887-4.53628-90.0028C-5.08699-90.0445-5.49965-90.5247-5.45798-91.0754C-5.4193-91.5868-5.00247-91.9792-4.50219-91.9992Z"/>
  </g>
 </g>
</svg>
