<?xml version="1.0" encoding="UTF-8"?>
<!--Generator: Apple Native CoreSVG 175-->
<!DOCTYPE svg
PUBLIC "-//W3C//DTD SVG 1.1//EN"
       "http://www.w3.org/Graphics/SVG/1.1/DTD/svg11.dtd">
<svg version="1.1" xmlns="http://www.w3.org/2000/svg" xmlns:xlink="http://www.w3.org/1999/xlink" width="3300" height="2200">
 <!--glyph: "", point size: 100.0, font version: "17.3d3e1", template writer version: "65.1"-->
 <g id="Notes">
  <rect height="2200" id="artboard" style="fill:white;opacity:1" width="3300" x="0" y="0"/>
  <line style="fill:none;stroke:black;opacity:1;stroke-width:0.5;" x1="263" x2="3036" y1="292" y2="292"/>
  <text style="stroke:none;fill:black;font-family:sans-serif;font-size:13;font-weight:bold;" transform="matrix(1 0 0 1 263 322)">Weight/Scale Variations</text>
  <text style="stroke:none;fill:black;font-family:sans-serif;font-size:13;text-anchor:middle;" transform="matrix(1 0 0 1 559.711 322)">Ultralight</text>
  <text style="stroke:none;fill:black;font-family:sans-serif;font-size:13;text-anchor:middle;" transform="matrix(1 0 0 1 856.422 322)">Thin</text>
  <text style="stroke:none;fill:black;font-family:sans-serif;font-size:13;text-anchor:middle;" transform="matrix(1 0 0 1 1153.13 322)">Light</text>
  <text style="stroke:none;fill:black;font-family:sans-serif;font-size:13;text-anchor:middle;" transform="matrix(1 0 0 1 1449.84 322)">Regular</text>
  <text style="stroke:none;fill:black;font-family:sans-serif;font-size:13;text-anchor:middle;" transform="matrix(1 0 0 1 1746.56 322)">Medium</text>
  <text style="stroke:none;fill:black;font-family:sans-serif;font-size:13;text-anchor:middle;" transform="matrix(1 0 0 1 2043.27 322)">Semibold</text>
  <text style="stroke:none;fill:black;font-family:sans-serif;font-size:13;text-anchor:middle;" transform="matrix(1 0 0 1 2339.98 322)">Bold</text>
  <text style="stroke:none;fill:black;font-family:sans-serif;font-size:13;text-anchor:middle;" transform="matrix(1 0 0 1 2636.69 322)">Heavy</text>
  <text style="stroke:none;fill:black;font-family:sans-serif;font-size:13;text-anchor:middle;" transform="matrix(1 0 0 1 2933.4 322)">Black</text>
  <line style="fill:none;stroke:black;opacity:1;stroke-width:0.5;" x1="263" x2="3036" y1="1903" y2="1903"/>
  <g transform="matrix(1 0 0 1 263 1933)">
   <path d="M9.24805 0.830078Q10.8691 0.830078 12.2949 0.214844Q13.7207-0.400391 14.8096-1.49414Q15.8984-2.58789 16.5186-4.01367Q17.1387-5.43945 17.1387-7.05078Q17.1387-8.66211 16.5186-10.0879Q15.8984-11.5137 14.8047-12.6074Q13.7109-13.7012 12.2852-14.3164Q10.8594-14.9316 9.23828-14.9316Q7.62695-14.9316 6.20117-14.3164Q4.77539-13.7012 3.69141-12.6074Q2.60742-11.5137 1.9873-10.0879Q1.36719-8.66211 1.36719-7.05078Q1.36719-5.43945 1.9873-4.01367Q2.60742-2.58789 3.69629-1.49414Q4.78516-0.400391 6.21094 0.214844Q7.63672 0.830078 9.24805 0.830078ZM9.24805-0.654297Q7.91992-0.654297 6.7627-1.14746Q5.60547-1.64062 4.73145-2.51953Q3.85742-3.39844 3.36426-4.56055Q2.87109-5.72266 2.87109-7.05078Q2.87109-8.37891 3.35938-9.54102Q3.84766-10.7031 4.72168-11.582Q5.5957-12.4609 6.75293-12.9541Q7.91016-13.4473 9.23828-13.4473Q10.5762-13.4473 11.7334-12.9541Q12.8906-12.4609 13.7695-11.582Q14.6484-10.7031 15.1465-9.54102Q15.6445-8.37891 15.6445-7.05078Q15.6445-5.72266 15.1514-4.56055Q14.6582-3.39844 13.7842-2.51953Q12.9102-1.64062 11.748-1.14746Q10.5859-0.654297 9.24805-0.654297ZM5.6543-7.05078Q5.6543-6.72852 5.85938-6.52832Q6.06445-6.32812 6.40625-6.32812L8.51562-6.32812L8.51562-4.20898Q8.51562-3.88672 8.71094-3.67676Q8.90625-3.4668 9.23828-3.4668Q9.56055-3.4668 9.77051-3.67676Q9.98047-3.88672 9.98047-4.20898L9.98047-6.32812L12.0898-6.32812Q12.4219-6.32812 12.627-6.52832Q12.832-6.72852 12.832-7.05078Q12.832-7.38281 12.627-7.58789Q12.4219-7.79297 12.0898-7.79297L9.98047-7.79297L9.98047-9.90234Q9.98047-10.2344 9.77051-10.4443Q9.56055-10.6543 9.23828-10.6543Q8.90625-10.6543 8.71094-10.4443Q8.51562-10.2344 8.51562-9.90234L8.51562-7.79297L6.40625-7.79297Q6.06445-7.79297 5.85938-7.58789Q5.6543-7.38281 5.6543-7.05078Z"/>
  </g>
  <g transform="matrix(1 0 0 1 281.867 1933)">
   <path d="M11.709 2.91016Q13.75 2.91016 15.5518 2.12891Q17.3535 1.34766 18.7305-0.0292969Q20.1074-1.40625 20.8887-3.20801Q21.6699-5.00977 21.6699-7.05078Q21.6699-9.0918 20.8887-10.8936Q20.1074-12.6953 18.7305-14.0723Q17.3535-15.4492 15.5469-16.2305Q13.7402-17.0117 11.6992-17.0117Q9.6582-17.0117 7.85645-16.2305Q6.05469-15.4492 4.68262-14.0723Q3.31055-12.6953 2.5293-10.8936Q1.74805-9.0918 1.74805-7.05078Q1.74805-5.00977 2.5293-3.20801Q3.31055-1.40625 4.6875-0.0292969Q6.06445 1.34766 7.86621 2.12891Q9.66797 2.91016 11.709 2.91016ZM11.709 1.25Q9.98047 1.25 8.47656 0.605469Q6.97266-0.0390625 5.83496-1.17676Q4.69727-2.31445 4.05762-3.81836Q3.41797-5.32227 3.41797-7.05078Q3.41797-8.7793 4.05762-10.2832Q4.69727-11.7871 5.83008-12.9297Q6.96289-14.0723 8.4668-14.7119Q9.9707-15.3516 11.6992-15.3516Q13.4277-15.3516 14.9316-14.7119Q16.4355-14.0723 17.5781-12.9297Q18.7207-11.7871 19.3652-10.2832Q20.0098-8.7793 20.0098-7.05078Q20.0098-5.32227 19.3701-3.81836Q18.7305-2.31445 17.5928-1.17676Q16.4551-0.0390625 14.9463 0.605469Q13.4375 1.25 11.709 1.25ZM7.17773-7.05078Q7.17773-6.69922 7.41211-6.47461Q7.64648-6.25 8.01758-6.25L10.8887-6.25L10.8887-3.36914Q10.8887-2.99805 11.1133-2.76855Q11.3379-2.53906 11.6895-2.53906Q12.0605-2.53906 12.29-2.76855Q12.5195-2.99805 12.5195-3.36914L12.5195-6.25L15.4004-6.25Q15.7715-6.25 16.001-6.47461Q16.2305-6.69922 16.2305-7.05078Q16.2305-7.42188 16.001-7.65137Q15.7715-7.88086 15.4004-7.88086L12.5195-7.88086L12.5195-10.752Q12.5195-11.1328 12.29-11.3623Q12.0605-11.5918 11.6895-11.5918Q11.3379-11.5918 11.1133-11.3574Q10.8887-11.123 10.8887-10.752L10.8887-7.88086L8.01758-7.88086Q7.63672-7.88086 7.40723-7.65137Q7.17773-7.42188 7.17773-7.05078Z"/>
  </g>
  <g transform="matrix(1 0 0 1 305.646 1933)">
   <path d="M14.9707 5.66406Q17.0605 5.66406 18.96 5.01465Q20.8594 4.36523 22.4512 3.19336Q24.043 2.02148 25.2197 0.429688Q26.3965-1.16211 27.0459-3.06641Q27.6953-4.9707 27.6953-7.05078Q27.6953-9.14062 27.0459-11.04Q26.3965-12.9395 25.2197-14.5312Q24.043-16.123 22.4512-17.2998Q20.8594-18.4766 18.9551-19.126Q17.0508-19.7754 14.9609-19.7754Q12.8711-19.7754 10.9717-19.126Q9.07227-18.4766 7.48535-17.2998Q5.89844-16.123 4.72168-14.5312Q3.54492-12.9395 2.90039-11.04Q2.25586-9.14062 2.25586-7.05078Q2.25586-4.9707 2.90527-3.06641Q3.55469-1.16211 4.72656 0.429688Q5.89844 2.02148 7.49023 3.19336Q9.08203 4.36523 10.9814 5.01465Q12.8809 5.66406 14.9707 5.66406ZM14.9707 3.84766Q13.1641 3.84766 11.5283 3.2959Q9.89258 2.74414 8.53516 1.74805Q7.17773 0.751953 6.17676-0.610352Q5.17578-1.97266 4.62891-3.6084Q4.08203-5.24414 4.08203-7.05078Q4.08203-8.86719 4.62891-10.5029Q5.17578-12.1387 6.17188-13.501Q7.16797-14.8633 8.52539-15.8594Q9.88281-16.8555 11.5186-17.4023Q13.1543-17.9492 14.9609-17.9492Q16.7773-17.9492 18.4131-17.4023Q20.0488-16.8555 21.4111-15.8594Q22.7734-14.8633 23.7695-13.501Q24.7656-12.1387 25.3174-10.5029Q25.8691-8.86719 25.8691-7.05078Q25.8789-5.24414 25.332-3.6084Q24.7852-1.97266 23.7842-0.610352Q22.7832 0.751953 21.4209 1.74805Q20.0586 2.74414 18.4229 3.2959Q16.7871 3.84766 14.9707 3.84766ZM9.19922-7.05078Q9.19922-6.66992 9.45801-6.4209Q9.7168-6.17188 10.1172-6.17188L14.0625-6.17188L14.0625-2.2168Q14.0625-1.81641 14.3115-1.55762Q14.5605-1.29883 14.9512-1.29883Q15.3516-1.29883 15.6104-1.55273Q15.8691-1.80664 15.8691-2.2168L15.8691-6.17188L19.8242-6.17188Q20.2246-6.17188 20.4785-6.4209Q20.7324-6.66992 20.7324-7.05078Q20.7324-7.46094 20.4785-7.71484Q20.2246-7.96875 19.8242-7.96875L15.8691-7.96875L15.8691-11.9141Q15.8691-12.3242 15.6104-12.583Q15.3516-12.8418 14.9512-12.8418Q14.5605-12.8418 14.3115-12.583Q14.0625-12.3242 14.0625-11.9141L14.0625-7.96875L10.1172-7.96875Q9.70703-7.96875 9.45312-7.71484Q9.19922-7.46094 9.19922-7.05078Z"/>
  </g>
  <text style="stroke:none;fill:black;font-family:sans-serif;font-size:13;font-weight:bold;" transform="matrix(1 0 0 1 263 1953)">Design Variations</text>
  <text style="stroke:none;fill:black;font-family:sans-serif;font-size:13;" transform="matrix(1 0 0 1 263 1971)">Symbols are supported in up to nine weights and three scales.</text>
  <text style="stroke:none;fill:black;font-family:sans-serif;font-size:13;" transform="matrix(1 0 0 1 263 1989)">For optimal layout with text and other symbols, vertically align</text>
  <text style="stroke:none;fill:black;font-family:sans-serif;font-size:13;" transform="matrix(1 0 0 1 263 2007)">symbols with the adjacent text.</text>
  <line style="fill:none;stroke:#00AEEF;stroke-width:0.5;opacity:1.0;" x1="776" x2="776" y1="1919" y2="1933"/>
  <g transform="matrix(1 0 0 1 776 1933)">
   <path d="M3.31055 0.15625Q3.70117 0.15625 3.91602-0.00976562Q4.13086-0.175781 4.26758-0.585938L5.52734-4.0332L11.2891-4.0332L12.5488-0.585938Q12.6855-0.175781 12.9004-0.00976562Q13.1152 0.15625 13.4961 0.15625Q13.8867 0.15625 14.1162-0.0585938Q14.3457-0.273438 14.3457-0.644531Q14.3457-0.869141 14.2383-1.17188L9.6582-13.3691Q9.48242-13.8184 9.17969-14.043Q8.87695-14.2676 8.4082-14.2676Q7.5-14.2676 7.17773-13.3789L2.59766-1.16211Q2.49023-0.859375 2.49023-0.634766Q2.49023-0.263672 2.70996-0.0537109Q2.92969 0.15625 3.31055 0.15625ZM6.00586-5.51758L8.37891-12.0898L8.42773-12.0898L10.8008-5.51758Z"/>
  </g>
  <line style="fill:none;stroke:#00AEEF;stroke-width:0.5;opacity:1.0;" x1="793.197" x2="793.197" y1="1919" y2="1933"/>
  <text style="stroke:none;fill:black;font-family:sans-serif;font-size:13;font-weight:bold;" transform="matrix(1 0 0 1 776 1953)">Margins</text>
  <text style="stroke:none;fill:black;font-family:sans-serif;font-size:13;" transform="matrix(1 0 0 1 776 1971)">Leading and trailing margins on the left and right side of each symbol</text>
  <text style="stroke:none;fill:black;font-family:sans-serif;font-size:13;" transform="matrix(1 0 0 1 776 1989)">can be adjusted by modifying the x-location of the margin guidelines.</text>
  <text style="stroke:none;fill:black;font-family:sans-serif;font-size:13;" transform="matrix(1 0 0 1 776 2007)">Modifications are automatically applied proportionally to all</text>
  <text style="stroke:none;fill:black;font-family:sans-serif;font-size:13;" transform="matrix(1 0 0 1 776 2025)">scales and weights.</text>
  <g transform="matrix(1 0 0 1 1289 1933)">
   <path d="M2.8418 1.86523L4.54102 3.57422Q5.18555 4.22852 5.90332 4.17969Q6.62109 4.13086 7.31445 3.35938L18.0078-8.42773L17.041-9.4043L6.42578 2.27539Q6.16211 2.57812 5.89355 2.61719Q5.625 2.65625 5.27344 2.30469L4.10156 1.14258Q3.75 0.791016 3.79395 0.522461Q3.83789 0.253906 4.14062-0.0195312L15.6152-10.8203L14.6387-11.7871L3.04688-0.898438Q2.30469-0.214844 2.25098 0.498047Q2.19727 1.21094 2.8418 1.86523ZM9.25781-16.3281Q8.94531-16.0254 8.90625-15.6348Q8.86719-15.2441 9.04297-14.9512Q9.21875-14.6777 9.55566-14.541Q9.89258-14.4043 10.3809-14.5215Q11.4746-14.7754 12.5977-14.7314Q13.7207-14.6875 14.7949-13.9844L14.209-12.5293Q13.9551-11.9043 14.0674-11.4404Q14.1797-10.9766 14.5801-10.5664L16.875-8.25195Q17.2363-7.88086 17.5781-7.82227Q17.9199-7.76367 18.3398-7.8418L19.4043-8.03711L20.0684-7.36328L20.0293-6.80664Q20-6.43555 20.1221-6.12305Q20.2441-5.81055 20.6055-5.44922L21.3672-4.70703Q21.7285-4.3457 22.1533-4.33105Q22.5781-4.31641 22.9297-4.66797L25.8398-7.58789Q26.1914-7.93945 26.1816-8.35449Q26.1719-8.76953 25.8105-9.13086L25.0391-9.89258Q24.6875-10.2539 24.3799-10.3857Q24.0723-10.5176 23.7109-10.4883L23.1348-10.4395L22.4902-11.0742L22.7344-12.1973Q22.832-12.6172 22.6953-12.9834Q22.5586-13.3496 22.1191-13.7891L19.9219-15.9766Q18.6719-17.2168 17.2607-17.8369Q15.8496-18.457 14.4189-18.4814Q12.9883-18.5059 11.665-17.959Q10.3418-17.4121 9.25781-16.3281ZM10.752-15.957Q11.6602-16.6211 12.7002-16.9043Q13.7402-17.1875 14.8047-17.085Q15.8691-16.9824 16.8701-16.5137Q17.8711-16.0449 18.7012-15.2051L21.1328-12.793Q21.3086-12.6172 21.3525-12.4512Q21.3965-12.2852 21.3379-12.0312L21.0156-10.5469L22.5195-9.0625L23.5059-9.12109Q23.6914-9.13086 23.7891-9.09668Q23.8867-9.0625 24.0332-8.91602L24.6094-8.33984L22.168-5.89844L21.5918-6.47461Q21.4453-6.62109 21.4062-6.71875Q21.3672-6.81641 21.377-7.01172L21.4453-7.98828L19.9512-9.47266L18.4277-9.21875Q18.1836-9.16992 18.042-9.2041Q17.9004-9.23828 17.7148-9.41406L15.7129-11.416Q15.5176-11.5918 15.4932-11.7529Q15.4688-11.9141 15.5859-12.1875L16.4648-14.2773Q15.293-15.3711 13.8281-15.791Q12.3633-16.2109 10.8398-15.7617Q10.7227-15.7324 10.6885-15.8057Q10.6543-15.8789 10.752-15.957Z"/>
  </g>
  <text style="stroke:none;fill:black;font-family:sans-serif;font-size:13;font-weight:bold;" transform="matrix(1 0 0 1 1289 1953)">Exporting</text>
  <text style="stroke:none;fill:black;font-family:sans-serif;font-size:13;" transform="matrix(1 0 0 1 1289 1971)">Symbols should be outlined when exporting to ensure the</text>
  <text style="stroke:none;fill:black;font-family:sans-serif;font-size:13;" transform="matrix(1 0 0 1 1289 1989)">design is preserved when submitting to Xcode.</text>
  <text id="template-version" style="stroke:none;fill:black;font-family:sans-serif;font-size:13;text-anchor:end;" transform="matrix(1 0 0 1 3036 1933)">Template v.3.0</text>
  <text style="stroke:none;fill:black;font-family:sans-serif;font-size:13;text-anchor:end;" transform="matrix(1 0 0 1 3036 1951)">Requires Xcode 13 or greater</text>
  <text id="descriptive-name" style="stroke:none;fill:black;font-family:sans-serif;font-size:13;text-anchor:end;" transform="matrix(1 0 0 1 3036 1969)">Generated from pen-icon.2</text>
  <text style="stroke:none;fill:black;font-family:sans-serif;font-size:13;text-anchor:end;" transform="matrix(1 0 0 1 3036 1987)">Typeset at 100 points</text>
  <text style="stroke:none;fill:black;font-family:sans-serif;font-size:13;" transform="matrix(1 0 0 1 263 726)">Small</text>
  <text style="stroke:none;fill:black;font-family:sans-serif;font-size:13;" transform="matrix(1 0 0 1 263 1156)">Medium</text>
  <text style="stroke:none;fill:black;font-family:sans-serif;font-size:13;" transform="matrix(1 0 0 1 263 1586)">Large</text>
 </g>
 <g id="Guides">
  <g id="H-reference" style="fill:#27AAE1;stroke:none;" transform="matrix(1 0 0 1 339 696)">
   <path d="M0.993347 0L3.6377 0L29.3282-67.1326L30.0301-67.1326L30.0301-70.459L28.1227-70.459ZM11.6882-24.4797L46.9818-24.4797L46.2311-26.7288L12.4382-26.7288ZM55.1193 0L57.7637 0L30.6381-70.459L29.4327-70.459L29.4327-67.1326Z"/>
  </g>
  <line id="Baseline-S" style="fill:none;stroke:#27AAE1;opacity:1;stroke-width:0.5;" x1="263" x2="3036" y1="696" y2="696"/>
  <line id="Capline-S" style="fill:none;stroke:#27AAE1;opacity:1;stroke-width:0.5;" x1="263" x2="3036" y1="625.541" y2="625.541"/>
  <g id="H-reference" style="fill:#27AAE1;stroke:none;" transform="matrix(1 0 0 1 339 1126)">
   <path d="M0.993347 0L3.6377 0L29.3282-67.1326L30.0301-67.1326L30.0301-70.459L28.1227-70.459ZM11.6882-24.4797L46.9818-24.4797L46.2311-26.7288L12.4382-26.7288ZM55.1193 0L57.7637 0L30.6381-70.459L29.4327-70.459L29.4327-67.1326Z"/>
  </g>
  <line id="Baseline-M" style="fill:none;stroke:#27AAE1;opacity:1;stroke-width:0.5;" x1="263" x2="3036" y1="1126" y2="1126"/>
  <line id="Capline-M" style="fill:none;stroke:#27AAE1;opacity:1;stroke-width:0.5;" x1="263" x2="3036" y1="1055.54" y2="1055.54"/>
  <g id="H-reference" style="fill:#27AAE1;stroke:none;" transform="matrix(1 0 0 1 339 1556)">
   <path d="M0.993347 0L3.6377 0L29.3282-67.1326L30.0301-67.1326L30.0301-70.459L28.1227-70.459ZM11.6882-24.4797L46.9818-24.4797L46.2311-26.7288L12.4382-26.7288ZM55.1193 0L57.7637 0L30.6381-70.459L29.4327-70.459L29.4327-67.1326Z"/>
  </g>
  <line id="Baseline-L" style="fill:none;stroke:#27AAE1;opacity:1;stroke-width:0.5;" x1="263" x2="3036" y1="1556" y2="1556"/>
  <line id="Capline-L" style="fill:none;stroke:#27AAE1;opacity:1;stroke-width:0.5;" x1="263" x2="3036" y1="1485.54" y2="1485.54"/>
  <line id="left-margin-Ultralight-S" style="fill:none;stroke:#00AEEF;stroke-width:0.5;opacity:1.0;" x1="511.234" x2="511.234" y1="600.784" y2="720.121"/>
  <line id="right-margin-Ultralight-S" style="fill:none;stroke:#00AEEF;stroke-width:0.5;opacity:1.0;" x1="608.188" x2="608.188" y1="600.784" y2="720.121"/>
  <line id="left-margin-Regular-S" style="fill:none;stroke:#00AEEF;stroke-width:0.5;opacity:1.0;" x1="1394.79" x2="1394.79" y1="600.784" y2="720.121"/>
  <line id="right-margin-Regular-S" style="fill:none;stroke:#00AEEF;stroke-width:0.5;opacity:1.0;" x1="1504.9" x2="1504.9" y1="600.784" y2="720.121"/>
  <line id="left-margin-Black-S" style="fill:none;stroke:#00AEEF;stroke-width:0.5;opacity:1.0;" x1="2877.35" x2="2877.35" y1="600.784" y2="720.121"/>
  <line id="right-margin-Black-S" style="fill:none;stroke:#00AEEF;stroke-width:0.5;opacity:1.0;" x1="2989.45" x2="2989.45" y1="600.784" y2="720.121"/>
  <line id="left-margin-Regular-M" style="fill:none;stroke:#00AEEF;stroke-width:0.5;opacity:1.0;" x1="1381.12" x2="1381.12" y1="1030.78" y2="1150.12"/>
  <line id="right-margin-Regular-M" style="fill:none;stroke:#00AEEF;stroke-width:0.5;opacity:1.0;" x1="1518.57" x2="1518.57" y1="1030.78" y2="1150.12"/>
 </g>
 <g id="Symbols">
  <g id="Black-L" transform="matrix(1 0 0 1 2841.71 1556)">
   <path d="M110.602-95.1203C114.838-95.0863 118.246-91.7728 118.213-87.7192L117.56-6.22114C117.545-4.3537 116.787-2.56245 115.44-1.21218L89.1146 25.1751C87.6526 26.6405 85.2251 26.6935 83.6927 25.2933C83.5562 25.1685 83.4294 25.0343 83.3135 24.8917L61.6522-1.7609C60.5919-3.06549 60.0223-4.67393 60.0355-6.32603L60.6916-88.1803C60.7241-92.2338 64.1842-95.4923 68.42-95.4584L110.602-95.1203ZM113.73-6.9601L63.8783-7.35967L63.8703-6.29529C63.8645-5.5725 64.0818-4.86642 64.4914-4.2642L64.6786-4.01273L86.34 22.6398L112.665-3.7474C113.264-4.34752 113.63-5.12185 113.709-5.9423L113.725-6.25188L113.73-6.9601ZM110.573-91.4505L68.3906-91.7886C66.369-91.8048 64.7007-90.321 64.5391-88.4233L64.5264-88.1495L63.9046-10.6466L113.756-10.247L114.378-87.75C114.394-89.6846 112.842-91.2821 110.859-91.4381L110.573-91.4505Z"/>
  </g>
  <g id="Heavy-L" transform="matrix(1 0 0 1 2545.92 1556)">
   <path d="M109.876-93.9061C114.078-93.7469 117.361-90.3577 117.209-86.3363L114.144-5.48442C114.074-3.63179 113.268-1.8768 111.892-0.576855L84.9868 24.8269C83.4925 26.2377 81.0822 26.2183 79.6031 24.7834C79.4713 24.6556 79.3495 24.5186 79.2387 24.3736L58.5343-2.71624C57.5208-4.04223 57.0033-5.65519 57.0654-7.29419L60.1436-88.4995C60.296-92.5209 63.8261-95.6517 68.0283-95.4924L109.876-93.9061ZM110.365-6.33126L60.9093-8.20594L60.8698-7.14998C60.8426-6.43292 61.0373-5.72583 61.4259-5.1161L61.6042-4.86101L82.3087 22.2289L109.214-3.17485C109.826-3.7526 110.212-4.51012 110.315-5.32191L110.34-5.62863L110.365-6.33126ZM109.738-90.2654L67.8903-91.8517C65.8847-91.9278 64.1853-90.5049 63.9687-88.6266L63.948-88.3552L61.0329-11.4668L110.489-9.59214L113.405-86.4805C113.477-88.3999 111.985-90.0311 110.022-90.2447L109.738-90.2654Z"/>
  </g>
  <g id="Bold-L" transform="matrix(1 0 0 1 2250.62 1556)">
   <path d="M109.041-91.8121C113.186-91.4367 116.254-87.9173 115.895-83.9513L108.671-4.21382C108.505-2.38672 107.618-0.694263 106.19 0.51888L78.2851 24.2263C76.7353 25.543 74.3544 25.3987 72.9673 23.9041C72.8437 23.7709 72.7304 23.6292 72.6284 23.4802L53.5743-4.3639C52.6417-5.7268 52.214-7.34756 52.3604-8.96397L59.6158-89.0499C59.9751-93.0159 63.626-95.9266 67.7703-95.5511L109.041-91.8121ZM104.981-5.24673L56.2061-9.66549L56.1123-8.62406C56.0482-7.91688 56.204-7.20804 56.5563-6.58536L56.7193-6.32402L75.7734 21.5201L103.679-2.18738C104.313-2.72655 104.734-3.45508 104.878-4.25194L104.919-4.55372L104.981-5.24673ZM108.716-88.2216L67.445-91.9606C65.467-92.1398 63.7139-90.8219 63.4023-88.9771L63.3678-88.71L56.4975-12.8814L105.272-8.46266L112.143-84.2912C112.314-86.1841 110.924-87.8735 108.995-88.1864L108.716-88.2216Z"/>
  </g>
  <g id="Semibold-L" transform="matrix(1 0 0 1 1954.89 1556)">
   <path d="M108.466-90.3685C112.57-89.8441 115.491-86.2348 114.989-82.3071L104.897-3.33787C104.666-1.52838 103.723 0.12097 102.26 1.27427L73.6649 23.8123C72.0769 25.064 69.7163 24.8337 68.3926 23.2978C68.2746 23.161 68.1672 23.0161 68.0714 22.8643L50.155-5.49978C49.278-6.88814 48.9122-8.51427 49.1168-10.1151L59.252-89.4294C59.7539-93.3572 63.488-96.1161 67.5924-95.5916L108.466-90.3685ZM101.268-4.49906L52.9638-10.6717L52.8325-9.64028C52.743-8.93991 52.8719-8.22986 53.1992-7.59825L53.3516-7.33262L71.268 21.0314L99.8628-1.50662C100.513-2.0192 100.958-2.72775 101.13-3.51431L101.182-3.81269L101.268-4.49906ZM108.011-86.8126L67.138-92.0357C65.1791-92.286 63.3889-91.0405 63.0119-89.2187L62.9678-88.9546L53.3708-13.8566L101.675-7.68401L111.273-82.7819C111.512-84.6565 110.193-86.386 108.288-86.7674L108.011-86.8126Z"/>
  </g>
  <g id="Medium-L" transform="matrix(1 0 0 1 1658.92 1556)">
   <path d="M108.029-89.274C112.103-88.6365 114.912-84.9591 114.302-81.0603L102.036-2.67369C101.755-0.877544 100.769 0.739113 99.2794 1.84704L70.1618 23.4984C68.5447 24.7009 66.1996 24.4053 64.9238 22.8382C64.8101 22.6985 64.7073 22.5511 64.616 22.3972L47.5623-6.36106C46.7275-7.76871 46.4087-9.39892 46.6573-10.9879L58.9762-89.7172C59.5862-93.6159 63.3834-96.2598 67.4575-95.6223L108.029-89.274ZM98.4535-3.93214L50.5053-11.4346L50.3457-10.4108C50.2369-9.71562 50.3454-9.00466 50.6538-8.36627L50.7981-8.09738L67.8519 20.6609L96.9695-0.990443C97.6317-1.48286 98.0948-2.17625 98.2882-2.955L98.348-3.25081L98.4535-3.93214ZM107.477-85.7443L66.9052-92.0926C64.9607-92.3969 63.1424-91.2062 62.7158-89.4019L62.6645-89.14L51-14.5961L98.9482-7.0936L110.613-81.6375C110.904-83.4982 109.638-85.2582 107.751-85.6915L107.477-85.7443Z"/>
  </g>
  <g id="Regular-L" transform="matrix(1 0 0 1 1363.18 1556)">
   <path d="M107.46-87.8462C111.495-87.0614 114.157-83.2952 113.405-79.4342L98.3044-1.80736C97.9584-0.0286316 96.9169 1.54539 95.392 2.59414L65.5924 23.089C63.9374 24.2272 61.6124 23.8465 60.3994 22.2386C60.2913 22.0953 60.1942 21.9447 60.109 21.7881L44.1805-7.48446C43.4008-8.91728 43.1432-10.5528 43.4493-12.1264L58.6163-90.0925C59.3674-93.9535 63.247-96.4472 67.2815-95.6623L107.46-87.8462ZM94.782-3.19269L47.2986-12.4298L47.1019-11.4159C46.968-10.7274 47.0499-10.0153 47.3336-9.36803L47.4675-9.09489L63.396 20.1777L93.1956-0.317168C93.8733-0.783279 94.3601-1.4569 94.5814-2.22547L94.6518-2.51792L94.782-3.19269ZM106.78-84.3508L66.6015-92.1669C64.6759-92.5414 62.821-91.4224 62.3297-89.6409L62.2689-89.3819L47.9077-15.5606L95.3911-6.32349L109.753-80.1447C110.111-81.9875 108.915-83.787 107.051-84.2881L106.78-84.3508Z"/>
  </g>
  <g id="Light-L" transform="matrix(1 0 0 1 1069.23 1556)">
   <path d="M107.299-82.5996C111.188-81.2731 113.312-77.1805 112.043-73.4583L86.5211 1.37621C85.9362 3.09096 84.6904 4.50829 83.0373 5.33955L50.7315 21.5843C48.9373 22.4865 46.6862 21.793 45.7035 20.0353C45.616 19.8787 45.5403 19.7163 45.4772 19.5495L33.6837-11.6127C33.1064-13.1381 33.0738-14.7931 33.5912-16.3101L59.2246-91.4717C60.494-95.1938 64.6761-97.1359 68.5655-95.8094L107.299-82.5996ZM83.2206-0.475333L37.4452-16.0868L37.1124-15.1092C36.8861-14.4455 36.8702-13.729 37.0632-13.0493L37.1587-12.7605L48.9522 18.4017L81.258 2.15699C81.9927 1.78754 82.5665 1.18655 82.8903 0.455399L82.9998 0.175313L83.2206-0.475333ZM106.15-79.2299L67.4163-92.4397C65.56-93.0728 63.5703-92.2168 62.8413-90.519L62.7458-90.2708L38.4746-19.1049L84.2499-3.49352L108.522-74.6592C109.128-76.4357 108.187-78.381 106.409-79.131L106.15-79.2299Z"/>
  </g>
  <g id="Thin-L" transform="matrix(1 0 0 1 776.174 1556)">
   <path d="M107.086-75.6605C110.783-73.6177 112.196-69.0932 110.241-65.5548L70.9366 5.58673C70.036 7.21686 68.5199 8.42696 66.6972 8.97059L31.0768 19.5943C29.0985 20.1843 26.9451 19.0771 26.2671 17.1213C26.2067 16.947 26.1593 16.769 26.1255 16.5889L19.8008-17.0727C19.4912-18.7204 19.7562-20.4013 20.553-21.8434L60.0291-93.2959C61.984-96.8343 66.5662-98.0468 70.2637-96.004L107.086-75.6605ZM67.9297 3.11859L24.4133-20.9234L23.9005-19.994C23.5519-19.3631 23.4068-18.6407 23.4797-17.9181L23.5244-17.6087L29.849 16.053L65.4694 5.42926C66.2795 5.18764 66.9685 4.68273 67.4278 4.00107L67.5891 3.73733L67.9297 3.11859ZM105.316-72.4571L68.4939-92.8005C66.7292-93.7755 64.5614-93.2674 63.5178-91.6805L63.3766-91.4465L25.9985-23.7926L69.5149 0.249342L106.893-67.4042C107.826-69.093 107.225-71.231 105.561-72.3103L105.316-72.4571Z"/>
  </g>
  <g id="Ultralight-L" transform="matrix(1 0 0 1 481.336 1556)">
   <path d="M106.976-72.1063C110.576-69.6967 111.624-64.951 109.318-61.5067L62.9543 7.74334C61.8919 9.33013 60.2375 10.4341 58.3278 10.8304L21.0097 18.575C18.9372 19.0051 16.8339 17.686 16.3118 15.6287C16.2653 15.4454 16.2325 15.2594 16.2136 15.0725L12.6901-19.8693C12.5176-21.5796 12.935-23.2737 13.8749-24.6775L60.4412-94.2302C62.7472-97.6745 67.5343-98.5133 71.1335-96.1036L106.976-72.1063ZM60.0978 4.95938L17.7384-23.4007L17.1334-22.496C16.7222-21.8818 16.511-21.1565 16.5224-20.4119L16.5409-20.0919L20.0645 14.8499L57.3826 7.1053C58.2313 6.92916 58.9793 6.47346 59.508 5.81714L59.6958 5.56177L60.0978 4.95938ZM104.889-68.9881L69.0458-92.9853C67.328-94.1354 65.069-93.8056 63.8644-92.2754L63.6996-92.0486L19.6083-26.1937L61.9677 2.16642L106.059-63.6882C107.16-65.3321 106.733-67.5689 105.126-68.8167L104.889-68.9881Z"/>
  </g>
  <g id="Black-M" transform="matrix(1 0 0 1 2861.95 1126)">
   <path d="M86.2905-81.9621C89.5813-81.9702 92.2553-79.4237 92.263-76.2745L92.4175-12.9574C92.4211-11.5066 91.8466-10.1089 90.8111-9.04902L70.5749 11.6637C69.451 12.814 67.5657 12.8749 66.3639 11.7996C66.2568 11.7038 66.1573 11.6005 66.066 11.4907L49.0219-9.03837C48.1877-10.0432 47.7321-11.2881 47.729-12.5716L47.5738-76.1654C47.5661-79.3146 50.2276-81.8741 53.5184-81.8821L86.2905-81.9621ZM89.4361-13.5004L50.7058-13.4058L50.7083-12.5789C50.7096-12.0174 50.8842-11.4706 51.2073-11.0061L51.3548-10.8123L68.3989 9.71677L88.635-10.996C89.0953-11.467 89.3734-12.0715 89.4282-12.7095L89.4383-12.9502L89.4361-13.5004ZM86.2975-79.111L53.5254-79.031C51.9547-79.0272 50.6708-77.861 50.5607-76.3854L50.553-76.1726L50.6996-15.9595L89.4298-16.0541L89.2837-76.2672C89.28-77.7702 88.0617-78.9987 86.5198-79.1037L86.2975-79.111Z"/>
  </g>
  <g id="Heavy-M" transform="matrix(1 0 0 1 2565.88 1126)">
   <path d="M85.5956-81.2592C88.8669-81.1947 91.4689-78.6045 91.4071-75.4739L90.1656-12.5309C90.1371-11.0887 89.5353-9.71198 88.4826-8.68121L67.9106 11.4621C66.7681 12.5808 64.8927 12.5998 63.7218 11.5045C63.6174 11.4068 63.5207 11.302 63.4325 11.1908L46.9423-9.59143C46.1352-10.6087 45.7098-11.8562 45.735-13.1321L46.9819-76.3501C47.0437-79.4808 49.7457-81.9664 53.0171-81.9018L85.5956-81.2592ZM87.2138-13.1363L48.7124-13.8958L48.6966-13.0737C48.6856-12.5155 48.8471-11.9681 49.158-11.4993L49.3003-11.3034L65.7905 9.47886L86.3624-10.6645C86.8303-11.1226 87.12-11.7174 87.1886-12.3504L87.2039-12.5894L87.2138-13.1363ZM85.5397-78.425L52.9612-79.0676C51.3998-79.0984 50.0979-77.9674 49.9559-76.5031L49.9436-76.2917L48.7625-16.4344L87.2639-15.6749L88.4454-75.5323C88.4749-77.0265 87.2909-78.2744 85.7605-78.4128L85.5397-78.425Z"/>
  </g>
  <g id="Bold-M" transform="matrix(1 0 0 1 2269.89 1126)">
   <path d="M84.8182-80.473C88.0678-80.3273 90.5891-77.6881 90.4497-74.5783L87.6464-12.0538C87.5822-10.6212 86.9497-9.26794 85.8778-8.26977L64.9303 11.2366C63.7669 12.32 61.9026 12.292 60.7661 11.1743C60.6649 11.0746 60.5714 10.968 60.4865 10.8553L44.616-10.2101C43.8392-11.2412 43.4475-12.4917 43.5043-13.7591L46.3198-76.5568C46.4593-79.6667 49.2066-82.0696 52.4563-81.9239L84.8182-80.473ZM84.728-12.7291L46.4825-14.4438L46.4463-13.6272C46.4215-13.0727 46.5683-12.5247 46.8656-12.051L47.0022-11.8527L62.8726 9.21271L83.8201-10.2937C84.2965-10.7373 84.5993-11.3212 84.6833-11.9486L84.7044-12.1857L84.728-12.7291ZM84.6919-77.6575L52.33-79.1085C50.7791-79.178 49.4569-78.0864 49.2793-76.6347L49.2618-76.4249L46.5956-16.9655L84.841-15.2508L87.5077-74.7102C87.5742-76.1944 86.4286-77.4642 84.9111-77.64L84.6919-77.6575Z"/>
  </g>
  <g id="Semibold-M" transform="matrix(1 0 0 1 1973.68 1126)">
   <path d="M84.2822-79.9309C87.5169-79.7292 89.9826-77.0564 89.7896-73.9609L85.9098-11.7249C85.8209-10.2989 85.1673-8.96183 84.0821-7.98613L62.8757 11.0812C61.6979 12.1401 59.8412 12.0799 58.7286 10.9466C58.6294 10.8456 58.5381 10.7378 58.4555 10.624L43.0122-10.6366C42.2563-11.6773 41.8879-12.9297 41.9666-14.1914L45.8634-76.6993C46.0564-79.7948 48.835-82.1407 52.0696-81.9391L84.2822-79.9309ZM83.0142-12.4484L44.9452-14.8216L44.895-14.0088C44.8606-13.4568 44.9973-12.9084 45.2852-12.4313L45.4178-12.2314L60.8611 9.02923L82.0675-10.0381C82.5498-10.4717 82.8616-11.0481 82.9562-11.6716L82.9813-11.9075L83.0142-12.4484ZM84.1075-77.1285L51.8949-79.1366C50.3511-79.2329 49.0151-78.1685 48.8129-76.7254L48.7918-76.5168L45.1017-17.3317L83.1707-14.9584L86.8612-74.1435C86.9533-75.6209 85.8342-76.9057 84.3256-77.1072L84.1075-77.1285Z"/>
  </g>
  <g id="Medium-M" transform="matrix(1 0 0 1 1677.34 1126)">
   <path d="M83.8759-79.5199C87.0991-79.2758 89.5227-76.5774 89.2892-73.4928L84.5929-11.4755C84.4853-10.0545 83.8157-8.72972 82.7205-7.77106L61.3177 10.9633C60.1291 12.0038 58.2782 11.919 57.1836 10.774C57.086 10.672 56.9964 10.5632 56.9155 10.4487L41.7962-10.96C41.0562-12.0079 40.7054-13.2619 40.8006-14.5191L45.5173-76.8074C45.7509-79.892 48.5532-82.1947 51.7765-81.9506L83.8759-79.5199ZM81.7148-12.2355L43.7796-15.1081L43.7187-14.2981C43.677-13.7481 43.8061-13.1993 44.0869-12.7197L44.2165-12.5186L59.3358 8.89011L80.7386-9.84427C81.2254-10.2703 81.544-10.841 81.6466-11.4616L81.6748-11.6965L81.7148-12.2355ZM83.6644-76.7273L51.565-79.158C50.0266-79.2745 48.68-78.2307 48.4592-76.7942L48.4354-76.5864L43.969-17.6094L81.9042-14.7367L86.371-73.7137C86.4825-75.1859 85.3834-76.4822 83.8816-76.7032L83.6644-76.7273Z"/>
  </g>
  <g id="Regular-M" transform="matrix(1 0 0 1 1381.12 1126)">
   <path d="M83.3458-78.9838C86.5542-78.6844 88.9229-75.9526 88.6364-72.8822L82.8753-11.1502C82.7433-9.73572 82.0529-8.42697 80.9445-7.49053L59.2857 10.8096C58.0828 11.8259 56.2394 11.7092 55.1684 10.5489C55.0729 10.4455 54.9855 10.3355 54.9069 10.2199L40.2101-11.3819C39.4907-12.4392 39.1629-13.6952 39.2797-14.9466L45.0659-76.9483C45.3524-80.0187 48.1857-82.2651 51.3941-81.9656L83.3458-78.9838ZM80.0199-11.9578L42.2592-15.4818L42.1844-14.6755C42.1333-14.128 42.2524-13.5788 42.5239-13.0959L42.6496-12.8932L57.3464 8.70865L79.0052-9.59146C79.4978-10.0077 79.8253-10.5709 79.9384-11.1877L79.9706-11.4213L80.0199-11.9578ZM83.0864-76.2041L51.1347-79.1859C49.6034-79.3288 48.243-78.3119 47.9979-76.884L47.9706-76.6772L42.4915-17.9715L80.2522-14.4476L85.7317-73.1532C85.8684-74.6187 84.7955-75.9298 83.3025-76.1762L83.0864-76.2041Z"/>
  </g>
  <g id="Light-M" transform="matrix(1 0 0 1 1086.89 1126)">
   <path d="M83.2012-74.2799C86.2796-73.4949 88.1661-70.4704 87.4148-67.5245L72.3109-8.296C71.9648-6.93885 71.0912-5.77058 69.8679-5.02912L45.9621 9.46058C44.6345 10.2653 42.8573 9.86815 41.9928 8.57352C41.9157 8.45814 41.8475 8.33763 41.7887 8.21297L30.7991-15.0831C30.2612-16.2234 30.1352-17.4969 30.4413-18.6975L45.6113-78.1849C46.3625-81.1308 49.467-82.8825 52.5453-82.0975L83.2012-74.2799ZM69.6545-9.52159L33.4251-18.7605L33.2282-17.9868C33.0943-17.4615 33.1258-16.9084 33.316-16.3963L33.4071-16.1796L44.3967 7.11645L68.3025-7.37325C68.8462-7.70279 69.2517-8.20094 69.4567-8.78416L69.524-9.00669L69.6545-9.52159ZM82.5211-71.6129L51.8652-79.4305C50.396-79.8052 48.9149-79.0241 48.4566-77.6713L48.3982-77.4742L34.0343-21.1492L70.2636-11.9104L84.6279-68.2352C84.9865-69.6412 84.1433-71.083 82.7273-71.5526L82.5211-71.6129Z"/>
  </g>
  <g id="Thin-M" transform="matrix(1 0 0 1 793.457 1126)">
   <path d="M83.0101-68.0587C85.9163-66.6314 87.1651-63.2198 85.7992-60.4386L58.3386-4.52105C57.7094-3.23976 56.5935-2.25729 55.2181-1.77371L28.3406 7.67642C26.8479 8.20125 25.1584 7.4332 24.567 5.96093C24.5143 5.82973 24.4715 5.69525 24.4389 5.55859L18.3524-19.9782C18.0545-21.2282 18.1953-22.5249 18.7519-23.6584L46.3325-79.8203C47.6984-82.6015 51.1616-83.6992 54.0678-82.2719L83.0101-68.0587ZM55.9454-6.29945L21.7413-23.0968L21.3831-22.3663C21.1395-21.8704 21.0552-21.312 21.1377-20.7615L21.1833-20.5262L27.2698 5.01063L54.1473-4.43949C54.7585-4.65442 55.2673-5.06644 55.5938-5.60529L55.7075-5.81316L55.9454-6.29945ZM81.7735-65.5407L52.8313-79.754C51.4442-80.4352 49.8034-79.9661 49.0632-78.7126L48.9637-78.5282L22.8488-25.352L57.0529-8.55469L83.1681-61.7307C83.82-63.0581 83.2807-64.6727 81.9665-65.4374L81.7735-65.5407Z"/>
  </g>
  <g id="Ultralight-M" transform="matrix(1 0 0 1 498.425 1126)">
   <path d="M82.9121-64.8722C85.7302-63.116 86.6523-59.5061 84.9717-56.8092L51.1821-2.58754C50.4078-1.34511 49.1678-0.457793 47.7146-0.106303L19.315 6.76258C17.7378 7.14406 16.0931 6.18604 15.6416 4.62278C15.6014 4.48346 15.5715 4.34183 15.5524 4.19903L11.9773-22.4855C11.8023-23.7917 12.0797-25.1002 12.7647-26.1993L46.702-80.658C48.3826-83.3549 52.0295-84.1174 54.8476-82.3613L82.9121-64.8722ZM48.9237-4.64909L15.7569-25.3178L15.316-24.6094C15.0163-24.1285 14.8727-23.5675 14.9-22.9973L14.9223-22.7525L18.4974 3.93205L46.897-2.93684C47.5429-3.09305 48.1046-3.46096 48.4933-3.97708L48.6308-4.17745L48.9237-4.64909ZM81.3906-62.4306L53.3261-79.9197C51.9811-80.7579 50.2585-80.4486 49.3738-79.2459L49.2533-79.0681L17.1197-27.5046L50.2865-6.83593L82.4204-58.3991C83.2225-59.6863 82.8389-61.3894 81.5768-62.3053L81.3906-62.4306Z"/>
  </g>
  <g id="Black-S" transform="matrix(1 0 0 1 2877.35 696)">
   <path d="M67.8279-71.7929C70.4052-71.7929 72.4946-69.7935 72.4946-67.327L72.4946-17.738C72.4946-16.6017 72.042-15.5082 71.2289-14.6801L55.3407 1.50307C54.4583 2.40184 52.9817 2.44589 52.0425 1.60147C51.9588 1.52621 51.881 1.44515 51.8098 1.35894L38.5004-14.7516C37.849-15.5402 37.4946-16.5161 37.4946-17.5213L37.4946-67.327C37.4946-69.7935 39.5839-71.7929 42.1612-71.7929L67.8279-71.7929ZM70.1606-18.1689L39.8276-18.1689L39.8279-17.5213C39.8279-17.0815 39.9636-16.653 40.2157-16.2886L40.3308-16.1365L53.6402-0.0258967L69.5284-16.209C69.8898-16.5771 70.1087-17.05 70.1529-17.5496L70.1612-17.738L70.1606-18.1689ZM67.8279-69.56L42.1612-69.56C40.9311-69.56 39.9234-68.6491 39.8343-67.4937L39.8279-67.327L39.8276-20.1689L70.1606-20.1689L70.1612-67.327C70.1612-68.5042 69.2094-69.4686 68.002-69.5539L67.8279-69.56Z"/>
  </g>
  <g id="Heavy-S" transform="matrix(1 0 0 1 2580.87 696)">
   <path d="M67.252-71.7929C69.8293-71.7929 71.9187-69.7935 71.9187-67.327L71.9187-17.738C71.9187-16.6017 71.4661-15.5082 70.653-14.6801L54.7648 1.50307C53.8824 2.40184 52.4058 2.44589 51.4666 1.60147C51.3829 1.52621 51.3051 1.44515 51.2339 1.35894L37.9245-14.7516C37.2731-15.5402 36.9187-16.5161 36.9187-17.5213L36.9187-67.327C36.9187-69.7935 39.008-71.7929 41.5853-71.7929L67.252-71.7929ZM69.5847-18.1689L39.2517-18.1689L39.252-17.5213C39.252-17.0815 39.3877-16.653 39.6398-16.2886L39.7549-16.1365L53.0643-0.0258967L68.9525-16.209C69.3139-16.5771 69.5328-17.05 69.577-17.5496L69.5853-17.738L69.5847-18.1689ZM67.252-69.56L41.5853-69.56C40.3552-69.56 39.3475-68.6491 39.2584-67.4937L39.252-67.327L39.2517-20.1689L69.5847-20.1689L69.5853-67.327C69.5853-68.5042 68.6335-69.4686 67.4261-69.5539L67.252-69.56Z"/>
  </g>
  <g id="Bold-S" transform="matrix(1 0 0 1 2284.43 696)">
   <path d="M66.6079-71.7929C69.1852-71.7929 71.2746-69.7935 71.2746-67.327L71.2746-17.738C71.2746-16.6017 70.822-15.5082 70.0089-14.6801L54.1207 1.50307C53.2383 2.40184 51.7617 2.44589 50.8225 1.60147C50.7388 1.52621 50.661 1.44515 50.5898 1.35894L37.2804-14.7516C36.629-15.5402 36.2746-16.5161 36.2746-17.5213L36.2746-67.327C36.2746-69.7935 38.3639-71.7929 40.9412-71.7929L66.6079-71.7929ZM68.9406-18.1689L38.6076-18.1689L38.6079-17.5213C38.6079-17.0815 38.7436-16.653 38.9957-16.2886L39.1108-16.1365L52.4202-0.0258967L68.3084-16.209C68.6698-16.5771 68.8887-17.05 68.9329-17.5496L68.9412-17.738L68.9406-18.1689ZM66.6079-69.56L40.9412-69.56C39.7111-69.56 38.7034-68.6491 38.6143-67.4937L38.6079-67.327L38.6076-20.1689L68.9406-20.1689L68.9412-67.327C68.9412-68.5042 67.9894-69.4686 66.782-69.5539L66.6079-69.56Z"/>
  </g>
  <g id="Semibold-S" transform="matrix(1 0 0 1 1987.9 696)">
   <path d="M66.1638-71.7929C68.7411-71.7929 70.8305-69.7935 70.8305-67.327L70.8305-17.738C70.8305-16.6017 70.3779-15.5082 69.5649-14.6801L53.6766 1.50307C52.7943 2.40184 51.3176 2.44589 50.3784 1.60147C50.2947 1.52621 50.2169 1.44515 50.1457 1.35894L36.8363-14.7516C36.1849-15.5402 35.8305-16.5161 35.8305-17.5213L35.8305-67.327C35.8305-69.7935 37.9198-71.7929 40.4971-71.7929L66.1638-71.7929ZM68.4965-18.1689L38.1635-18.1689L38.1638-17.5213C38.1638-17.0815 38.2995-16.653 38.5516-16.2886L38.6667-16.1365L51.9761-0.0258967L67.8643-16.209C68.2257-16.5771 68.4446-17.05 68.4888-17.5496L68.4971-17.738L68.4965-18.1689ZM66.1638-69.56L40.4971-69.56C39.2671-69.56 38.2593-68.6491 38.1702-67.4937L38.1638-67.327L38.1635-20.1689L68.4965-20.1689L68.4971-67.327C68.4971-68.5042 67.5453-69.4686 66.3379-69.5539L66.1638-69.56Z"/>
  </g>
  <g id="Medium-S" transform="matrix(1 0 0 1 1691.32 696)">
   <path d="M65.8271-71.7929C68.4044-71.7929 70.4938-69.7935 70.4938-67.327L70.4938-17.738C70.4938-16.6017 70.0412-15.5082 69.2281-14.6801L53.3399 1.50307C52.4575 2.40184 50.9809 2.44589 50.0417 1.60147C49.958 1.52621 49.8802 1.44515 49.809 1.35894L36.4996-14.7516C35.8482-15.5402 35.4938-16.5161 35.4938-17.5213L35.4938-67.327C35.4938-69.7935 37.5831-71.7929 40.1604-71.7929L65.8271-71.7929ZM68.1598-18.1689L37.8268-18.1689L37.8271-17.5213C37.8271-17.0815 37.9628-16.653 38.2149-16.2886L38.33-16.1365L51.6394-0.0258967L67.5276-16.209C67.889-16.5771 68.1079-17.05 68.1521-17.5496L68.1604-17.738L68.1598-18.1689ZM65.8271-69.56L40.1604-69.56C38.9303-69.56 37.9226-68.6491 37.8335-67.4937L37.8271-67.327L37.8268-20.1689L68.1598-20.1689L68.1604-67.327C68.1604-68.5042 67.2086-69.4686 66.0012-69.5539L65.8271-69.56Z"/>
  </g>
  <g id="Regular-S" transform="matrix(1 0 0 1 1394.79 696)">
   <path d="M65.3879-71.7929C67.9652-71.7929 70.0546-69.7935 70.0546-67.327L70.0546-17.738C70.0546-16.6017 69.602-15.5082 68.7889-14.6801L52.9007 1.50307C52.0183 2.40184 50.5417 2.44589 49.6025 1.60147C49.5188 1.52621 49.441 1.44515 49.3698 1.35894L36.0604-14.7516C35.409-15.5402 35.0546-16.5161 35.0546-17.5213L35.0546-67.327C35.0546-69.7935 37.1439-71.7929 39.7212-71.7929L65.3879-71.7929ZM67.7206-18.1689L37.3876-18.1689L37.3879-17.5213C37.3879-17.0815 37.5236-16.653 37.7757-16.2886L37.8908-16.1365L51.2002-0.0258967L67.0884-16.209C67.4498-16.5771 67.6687-17.05 67.7129-17.5496L67.7212-17.738L67.7206-18.1689ZM65.3879-69.56L39.7212-69.56C38.4911-69.56 37.4834-68.6491 37.3943-67.4937L37.3879-67.327L37.3876-20.1689L67.7206-20.1689L67.7212-67.327C67.7212-68.5042 66.7694-69.4686 65.562-69.5539L65.3879-69.56Z"/>
  </g>
  <g id="Light-S" transform="matrix(1 0 0 1 1100.27 696)">
   <path d="M65.26-67.6318C67.7222-67.2023 69.385-64.9439 68.974-62.5876L60.7091-15.2131C60.5197-14.1276 59.9051-13.1583 58.9904-12.5027L41.1145 0.309729C40.1217 1.0213 38.7037 0.81727 37.9472-0.145976C37.8797-0.231817 37.819-0.322224 37.7653-0.416457L27.7354-18.0258C27.2444-18.8877 27.0685-19.8791 27.236-20.8394L35.537-68.4209C35.9481-70.7772 38.2773-72.3392 40.7396-71.9096L65.26-67.6318ZM58.5512-16.0138L29.5728-21.0693L29.4652-20.4505C29.3919-20.0304 29.45-19.5984 29.6302-19.2082L29.7148-19.0437L39.7447-1.43438L57.6206-14.2468C58.0272-14.5382 58.3151-14.9535 58.4406-15.4234L58.48-15.602L58.5512-16.0138ZM64.8878-65.4986L40.3674-69.7764C39.1923-69.9814 38.0777-69.2791 37.8-68.1902L37.7661-68.032L29.9061-22.98L58.8845-17.9245L66.7448-62.9765C66.941-64.1011 66.1924-65.1811 65.0532-65.4637L64.8878-65.4986Z"/>
  </g>
  <g id="Thin-S" transform="matrix(1 0 0 1 806.46 696)">
   <path d="M65.0909-62.1284C67.4009-61.1307 68.4995-58.5299 67.5448-56.3193L48.349-11.8737C47.9092-10.8553 47.0802-10.0504 46.031-9.62289L25.5263-1.26857C24.3875-0.804589 23.0469-1.33672 22.532-2.45711C22.4862-2.55696 22.4478-2.65972 22.4174-2.76456L16.7248-22.3561C16.4462-23.3151 16.5063-24.3269 16.8954-25.2279L36.175-69.8677C37.1298-72.0783 39.7764-73.0616 42.0864-72.0639L65.0909-62.1284ZM46.4239-13.1634L19.2371-24.9053L18.9867-24.3247C18.8165-23.9305 18.7722-23.4939 18.8571-23.0697L18.9014-22.8888L24.594-3.29721L45.0987-11.6515C45.565-11.8415 45.9443-12.1806 46.1773-12.6113L46.2577-12.777L46.4239-13.1634ZM64.2265-60.1271L41.222-70.0626C40.1195-70.5387 38.8637-70.1124 38.3366-69.1113L38.2664-68.9644L20.0113-26.6978L47.1981-14.956L65.4535-57.2225C65.9091-58.2776 65.4293-59.5104 64.3802-60.0542L64.2265-60.1271Z"/>
  </g>
  <g id="Ultralight-S" transform="matrix(1 0 0 1 511.234 696)">
   <path d="M65.0042-59.3096C67.2363-58.0209 68.046-55.2447 66.8127-53.1087L42.0182-10.1633C41.4501-9.17927 40.5114-8.45853 39.3932-8.14788L17.542-2.07696C16.3285-1.7398 15.0276-2.43998 14.6365-3.64086C14.6016-3.74788 14.5748-3.85697 14.5562-3.96725L11.0853-24.5741C10.9154-25.5828 11.0964-26.6051 11.599-27.4756L36.5019-70.6087C37.7351-72.7447 40.5442-73.4316 42.7763-72.1429L65.0042-59.3096ZM40.2124-11.7035L13.9432-26.87L13.6197-26.309C13.3998-25.9281 13.303-25.4891 13.3392-25.0475L13.3628-24.8582L16.8338-4.25135L38.685-10.3223C39.182-10.4603 39.608-10.7604 39.8961-11.171L39.9975-11.33L40.2124-11.7035ZM63.8878-57.3758L41.6598-70.2091C40.5945-70.8242 39.2663-70.5392 38.6115-69.5831L38.5226-69.442L14.9432-28.6021L41.2124-13.4356L64.792-54.2753C65.3806-55.2948 65.0385-56.6059 64.0355-57.2834L63.8878-57.3758Z"/>
  </g>
 </g>
</svg>
