<?xml version="1.0" encoding="UTF-8"?>
<!--Generator: Apple Native CoreSVG 175-->
<!DOCTYPE svg
PUBLIC "-//W3C//DTD SVG 1.1//EN"
       "http://www.w3.org/Graphics/SVG/1.1/DTD/svg11.dtd">
<svg version="1.1" xmlns="http://www.w3.org/2000/svg" xmlns:xlink="http://www.w3.org/1999/xlink" width="3300" height="2200">
 <!--glyph: "", point size: 100.0, font version: "17.3d3e1", template writer version: "65.1"-->
 <g id="Notes">
  <rect height="2200" id="artboard" style="fill:white;opacity:1" width="3300" x="0" y="0"/>
  <line style="fill:none;stroke:black;opacity:1;stroke-width:0.5;" x1="263" x2="3036" y1="292" y2="292"/>
  <text style="stroke:none;fill:black;font-family:sans-serif;font-size:13;font-weight:bold;" transform="matrix(1 0 0 1 263 322)">Weight/Scale Variations</text>
  <text style="stroke:none;fill:black;font-family:sans-serif;font-size:13;text-anchor:middle;" transform="matrix(1 0 0 1 559.711 322)">Ultralight</text>
  <text style="stroke:none;fill:black;font-family:sans-serif;font-size:13;text-anchor:middle;" transform="matrix(1 0 0 1 856.422 322)">Thin</text>
  <text style="stroke:none;fill:black;font-family:sans-serif;font-size:13;text-anchor:middle;" transform="matrix(1 0 0 1 1153.13 322)">Light</text>
  <text style="stroke:none;fill:black;font-family:sans-serif;font-size:13;text-anchor:middle;" transform="matrix(1 0 0 1 1449.84 322)">Regular</text>
  <text style="stroke:none;fill:black;font-family:sans-serif;font-size:13;text-anchor:middle;" transform="matrix(1 0 0 1 1746.56 322)">Medium</text>
  <text style="stroke:none;fill:black;font-family:sans-serif;font-size:13;text-anchor:middle;" transform="matrix(1 0 0 1 2043.27 322)">Semibold</text>
  <text style="stroke:none;fill:black;font-family:sans-serif;font-size:13;text-anchor:middle;" transform="matrix(1 0 0 1 2339.98 322)">Bold</text>
  <text style="stroke:none;fill:black;font-family:sans-serif;font-size:13;text-anchor:middle;" transform="matrix(1 0 0 1 2636.69 322)">Heavy</text>
  <text style="stroke:none;fill:black;font-family:sans-serif;font-size:13;text-anchor:middle;" transform="matrix(1 0 0 1 2933.4 322)">Black</text>
  <line style="fill:none;stroke:black;opacity:1;stroke-width:0.5;" x1="263" x2="3036" y1="1903" y2="1903"/>
  <g transform="matrix(1 0 0 1 263 1933)">
   <path d="M9.24805 0.830078Q10.8691 0.830078 12.2949 0.214844Q13.7207-0.400391 14.8096-1.49414Q15.8984-2.58789 16.5186-4.01367Q17.1387-5.43945 17.1387-7.05078Q17.1387-8.66211 16.5186-10.0879Q15.8984-11.5137 14.8047-12.6074Q13.7109-13.7012 12.2852-14.3164Q10.8594-14.9316 9.23828-14.9316Q7.62695-14.9316 6.20117-14.3164Q4.77539-13.7012 3.69141-12.6074Q2.60742-11.5137 1.9873-10.0879Q1.36719-8.66211 1.36719-7.05078Q1.36719-5.43945 1.9873-4.01367Q2.60742-2.58789 3.69629-1.49414Q4.78516-0.400391 6.21094 0.214844Q7.63672 0.830078 9.24805 0.830078ZM9.24805-0.654297Q7.91992-0.654297 6.7627-1.14746Q5.60547-1.64062 4.73145-2.51953Q3.85742-3.39844 3.36426-4.56055Q2.87109-5.72266 2.87109-7.05078Q2.87109-8.37891 3.35938-9.54102Q3.84766-10.7031 4.72168-11.582Q5.5957-12.4609 6.75293-12.9541Q7.91016-13.4473 9.23828-13.4473Q10.5762-13.4473 11.7334-12.9541Q12.8906-12.4609 13.7695-11.582Q14.6484-10.7031 15.1465-9.54102Q15.6445-8.37891 15.6445-7.05078Q15.6445-5.72266 15.1514-4.56055Q14.6582-3.39844 13.7842-2.51953Q12.9102-1.64062 11.748-1.14746Q10.5859-0.654297 9.24805-0.654297ZM5.6543-7.05078Q5.6543-6.72852 5.85938-6.52832Q6.06445-6.32812 6.40625-6.32812L8.51562-6.32812L8.51562-4.20898Q8.51562-3.88672 8.71094-3.67676Q8.90625-3.4668 9.23828-3.4668Q9.56055-3.4668 9.77051-3.67676Q9.98047-3.88672 9.98047-4.20898L9.98047-6.32812L12.0898-6.32812Q12.4219-6.32812 12.627-6.52832Q12.832-6.72852 12.832-7.05078Q12.832-7.38281 12.627-7.58789Q12.4219-7.79297 12.0898-7.79297L9.98047-7.79297L9.98047-9.90234Q9.98047-10.2344 9.77051-10.4443Q9.56055-10.6543 9.23828-10.6543Q8.90625-10.6543 8.71094-10.4443Q8.51562-10.2344 8.51562-9.90234L8.51562-7.79297L6.40625-7.79297Q6.06445-7.79297 5.85938-7.58789Q5.6543-7.38281 5.6543-7.05078Z"/>
  </g>
  <g transform="matrix(1 0 0 1 281.867 1933)">
   <path d="M11.709 2.91016Q13.75 2.91016 15.5518 2.12891Q17.3535 1.34766 18.7305-0.0292969Q20.1074-1.40625 20.8887-3.20801Q21.6699-5.00977 21.6699-7.05078Q21.6699-9.0918 20.8887-10.8936Q20.1074-12.6953 18.7305-14.0723Q17.3535-15.4492 15.5469-16.2305Q13.7402-17.0117 11.6992-17.0117Q9.6582-17.0117 7.85645-16.2305Q6.05469-15.4492 4.68262-14.0723Q3.31055-12.6953 2.5293-10.8936Q1.74805-9.0918 1.74805-7.05078Q1.74805-5.00977 2.5293-3.20801Q3.31055-1.40625 4.6875-0.0292969Q6.06445 1.34766 7.86621 2.12891Q9.66797 2.91016 11.709 2.91016ZM11.709 1.25Q9.98047 1.25 8.47656 0.605469Q6.97266-0.0390625 5.83496-1.17676Q4.69727-2.31445 4.05762-3.81836Q3.41797-5.32227 3.41797-7.05078Q3.41797-8.7793 4.05762-10.2832Q4.69727-11.7871 5.83008-12.9297Q6.96289-14.0723 8.4668-14.7119Q9.9707-15.3516 11.6992-15.3516Q13.4277-15.3516 14.9316-14.7119Q16.4355-14.0723 17.5781-12.9297Q18.7207-11.7871 19.3652-10.2832Q20.0098-8.7793 20.0098-7.05078Q20.0098-5.32227 19.3701-3.81836Q18.7305-2.31445 17.5928-1.17676Q16.4551-0.0390625 14.9463 0.605469Q13.4375 1.25 11.709 1.25ZM7.17773-7.05078Q7.17773-6.69922 7.41211-6.47461Q7.64648-6.25 8.01758-6.25L10.8887-6.25L10.8887-3.36914Q10.8887-2.99805 11.1133-2.76855Q11.3379-2.53906 11.6895-2.53906Q12.0605-2.53906 12.29-2.76855Q12.5195-2.99805 12.5195-3.36914L12.5195-6.25L15.4004-6.25Q15.7715-6.25 16.001-6.47461Q16.2305-6.69922 16.2305-7.05078Q16.2305-7.42188 16.001-7.65137Q15.7715-7.88086 15.4004-7.88086L12.5195-7.88086L12.5195-10.752Q12.5195-11.1328 12.29-11.3623Q12.0605-11.5918 11.6895-11.5918Q11.3379-11.5918 11.1133-11.3574Q10.8887-11.123 10.8887-10.752L10.8887-7.88086L8.01758-7.88086Q7.63672-7.88086 7.40723-7.65137Q7.17773-7.42188 7.17773-7.05078Z"/>
  </g>
  <g transform="matrix(1 0 0 1 305.646 1933)">
   <path d="M14.9707 5.66406Q17.0605 5.66406 18.96 5.01465Q20.8594 4.36523 22.4512 3.19336Q24.043 2.02148 25.2197 0.429688Q26.3965-1.16211 27.0459-3.06641Q27.6953-4.9707 27.6953-7.05078Q27.6953-9.14062 27.0459-11.04Q26.3965-12.9395 25.2197-14.5312Q24.043-16.123 22.4512-17.2998Q20.8594-18.4766 18.9551-19.126Q17.0508-19.7754 14.9609-19.7754Q12.8711-19.7754 10.9717-19.126Q9.07227-18.4766 7.48535-17.2998Q5.89844-16.123 4.72168-14.5312Q3.54492-12.9395 2.90039-11.04Q2.25586-9.14062 2.25586-7.05078Q2.25586-4.9707 2.90527-3.06641Q3.55469-1.16211 4.72656 0.429688Q5.89844 2.02148 7.49023 3.19336Q9.08203 4.36523 10.9814 5.01465Q12.8809 5.66406 14.9707 5.66406ZM14.9707 3.84766Q13.1641 3.84766 11.5283 3.2959Q9.89258 2.74414 8.53516 1.74805Q7.17773 0.751953 6.17676-0.610352Q5.17578-1.97266 4.62891-3.6084Q4.08203-5.24414 4.08203-7.05078Q4.08203-8.86719 4.62891-10.5029Q5.17578-12.1387 6.17188-13.501Q7.16797-14.8633 8.52539-15.8594Q9.88281-16.8555 11.5186-17.4023Q13.1543-17.9492 14.9609-17.9492Q16.7773-17.9492 18.4131-17.4023Q20.0488-16.8555 21.4111-15.8594Q22.7734-14.8633 23.7695-13.501Q24.7656-12.1387 25.3174-10.5029Q25.8691-8.86719 25.8691-7.05078Q25.8789-5.24414 25.332-3.6084Q24.7852-1.97266 23.7842-0.610352Q22.7832 0.751953 21.4209 1.74805Q20.0586 2.74414 18.4229 3.2959Q16.7871 3.84766 14.9707 3.84766ZM9.19922-7.05078Q9.19922-6.66992 9.45801-6.4209Q9.7168-6.17188 10.1172-6.17188L14.0625-6.17188L14.0625-2.2168Q14.0625-1.81641 14.3115-1.55762Q14.5605-1.29883 14.9512-1.29883Q15.3516-1.29883 15.6104-1.55273Q15.8691-1.80664 15.8691-2.2168L15.8691-6.17188L19.8242-6.17188Q20.2246-6.17188 20.4785-6.4209Q20.7324-6.66992 20.7324-7.05078Q20.7324-7.46094 20.4785-7.71484Q20.2246-7.96875 19.8242-7.96875L15.8691-7.96875L15.8691-11.9141Q15.8691-12.3242 15.6104-12.583Q15.3516-12.8418 14.9512-12.8418Q14.5605-12.8418 14.3115-12.583Q14.0625-12.3242 14.0625-11.9141L14.0625-7.96875L10.1172-7.96875Q9.70703-7.96875 9.45312-7.71484Q9.19922-7.46094 9.19922-7.05078Z"/>
  </g>
  <text style="stroke:none;fill:black;font-family:sans-serif;font-size:13;font-weight:bold;" transform="matrix(1 0 0 1 263 1953)">Design Variations</text>
  <text style="stroke:none;fill:black;font-family:sans-serif;font-size:13;" transform="matrix(1 0 0 1 263 1971)">Symbols are supported in up to nine weights and three scales.</text>
  <text style="stroke:none;fill:black;font-family:sans-serif;font-size:13;" transform="matrix(1 0 0 1 263 1989)">For optimal layout with text and other symbols, vertically align</text>
  <text style="stroke:none;fill:black;font-family:sans-serif;font-size:13;" transform="matrix(1 0 0 1 263 2007)">symbols with the adjacent text.</text>
  <line style="fill:none;stroke:#00AEEF;stroke-width:0.5;opacity:1.0;" x1="776" x2="776" y1="1919" y2="1933"/>
  <g transform="matrix(1 0 0 1 776 1933)">
   <path d="M3.31055 0.15625Q3.70117 0.15625 3.91602-0.00976562Q4.13086-0.175781 4.26758-0.585938L5.52734-4.0332L11.2891-4.0332L12.5488-0.585938Q12.6855-0.175781 12.9004-0.00976562Q13.1152 0.15625 13.4961 0.15625Q13.8867 0.15625 14.1162-0.0585938Q14.3457-0.273438 14.3457-0.644531Q14.3457-0.869141 14.2383-1.17188L9.6582-13.3691Q9.48242-13.8184 9.17969-14.043Q8.87695-14.2676 8.4082-14.2676Q7.5-14.2676 7.17773-13.3789L2.59766-1.16211Q2.49023-0.859375 2.49023-0.634766Q2.49023-0.263672 2.70996-0.0537109Q2.92969 0.15625 3.31055 0.15625ZM6.00586-5.51758L8.37891-12.0898L8.42773-12.0898L10.8008-5.51758Z"/>
  </g>
  <line style="fill:none;stroke:#00AEEF;stroke-width:0.5;opacity:1.0;" x1="793.197" x2="793.197" y1="1919" y2="1933"/>
  <text style="stroke:none;fill:black;font-family:sans-serif;font-size:13;font-weight:bold;" transform="matrix(1 0 0 1 776 1953)">Margins</text>
  <text style="stroke:none;fill:black;font-family:sans-serif;font-size:13;" transform="matrix(1 0 0 1 776 1971)">Leading and trailing margins on the left and right side of each symbol</text>
  <text style="stroke:none;fill:black;font-family:sans-serif;font-size:13;" transform="matrix(1 0 0 1 776 1989)">can be adjusted by modifying the x-location of the margin guidelines.</text>
  <text style="stroke:none;fill:black;font-family:sans-serif;font-size:13;" transform="matrix(1 0 0 1 776 2007)">Modifications are automatically applied proportionally to all</text>
  <text style="stroke:none;fill:black;font-family:sans-serif;font-size:13;" transform="matrix(1 0 0 1 776 2025)">scales and weights.</text>
  <g transform="matrix(1 0 0 1 1289 1933)">
   <path d="M2.8418 1.86523L4.54102 3.57422Q5.18555 4.22852 5.90332 4.17969Q6.62109 4.13086 7.31445 3.35938L18.0078-8.42773L17.041-9.4043L6.42578 2.27539Q6.16211 2.57812 5.89355 2.61719Q5.625 2.65625 5.27344 2.30469L4.10156 1.14258Q3.75 0.791016 3.79395 0.522461Q3.83789 0.253906 4.14062-0.0195312L15.6152-10.8203L14.6387-11.7871L3.04688-0.898438Q2.30469-0.214844 2.25098 0.498047Q2.19727 1.21094 2.8418 1.86523ZM9.25781-16.3281Q8.94531-16.0254 8.90625-15.6348Q8.86719-15.2441 9.04297-14.9512Q9.21875-14.6777 9.55566-14.541Q9.89258-14.4043 10.3809-14.5215Q11.4746-14.7754 12.5977-14.7314Q13.7207-14.6875 14.7949-13.9844L14.209-12.5293Q13.9551-11.9043 14.0674-11.4404Q14.1797-10.9766 14.5801-10.5664L16.875-8.25195Q17.2363-7.88086 17.5781-7.82227Q17.9199-7.76367 18.3398-7.8418L19.4043-8.03711L20.0684-7.36328L20.0293-6.80664Q20-6.43555 20.1221-6.12305Q20.2441-5.81055 20.6055-5.44922L21.3672-4.70703Q21.7285-4.3457 22.1533-4.33105Q22.5781-4.31641 22.9297-4.66797L25.8398-7.58789Q26.1914-7.93945 26.1816-8.35449Q26.1719-8.76953 25.8105-9.13086L25.0391-9.89258Q24.6875-10.2539 24.3799-10.3857Q24.0723-10.5176 23.7109-10.4883L23.1348-10.4395L22.4902-11.0742L22.7344-12.1973Q22.832-12.6172 22.6953-12.9834Q22.5586-13.3496 22.1191-13.7891L19.9219-15.9766Q18.6719-17.2168 17.2607-17.8369Q15.8496-18.457 14.4189-18.4814Q12.9883-18.5059 11.665-17.959Q10.3418-17.4121 9.25781-16.3281ZM10.752-15.957Q11.6602-16.6211 12.7002-16.9043Q13.7402-17.1875 14.8047-17.085Q15.8691-16.9824 16.8701-16.5137Q17.8711-16.0449 18.7012-15.2051L21.1328-12.793Q21.3086-12.6172 21.3525-12.4512Q21.3965-12.2852 21.3379-12.0312L21.0156-10.5469L22.5195-9.0625L23.5059-9.12109Q23.6914-9.13086 23.7891-9.09668Q23.8867-9.0625 24.0332-8.91602L24.6094-8.33984L22.168-5.89844L21.5918-6.47461Q21.4453-6.62109 21.4062-6.71875Q21.3672-6.81641 21.377-7.01172L21.4453-7.98828L19.9512-9.47266L18.4277-9.21875Q18.1836-9.16992 18.042-9.2041Q17.9004-9.23828 17.7148-9.41406L15.7129-11.416Q15.5176-11.5918 15.4932-11.7529Q15.4688-11.9141 15.5859-12.1875L16.4648-14.2773Q15.293-15.3711 13.8281-15.791Q12.3633-16.2109 10.8398-15.7617Q10.7227-15.7324 10.6885-15.8057Q10.6543-15.8789 10.752-15.957Z"/>
  </g>
  <text style="stroke:none;fill:black;font-family:sans-serif;font-size:13;font-weight:bold;" transform="matrix(1 0 0 1 1289 1953)">Exporting</text>
  <text style="stroke:none;fill:black;font-family:sans-serif;font-size:13;" transform="matrix(1 0 0 1 1289 1971)">Symbols should be outlined when exporting to ensure the</text>
  <text style="stroke:none;fill:black;font-family:sans-serif;font-size:13;" transform="matrix(1 0 0 1 1289 1989)">design is preserved when submitting to Xcode.</text>
  <text id="template-version" style="stroke:none;fill:black;font-family:sans-serif;font-size:13;text-anchor:end;" transform="matrix(1 0 0 1 3036 1933)">Template v.3.0</text>
  <text style="stroke:none;fill:black;font-family:sans-serif;font-size:13;text-anchor:end;" transform="matrix(1 0 0 1 3036 1951)">Requires Xcode 13 or greater</text>
  <text id="descriptive-name" style="stroke:none;fill:black;font-family:sans-serif;font-size:13;text-anchor:end;" transform="matrix(1 0 0 1 3036 1969)">Generated from dashedLine</text>
  <text style="stroke:none;fill:black;font-family:sans-serif;font-size:13;text-anchor:end;" transform="matrix(1 0 0 1 3036 1987)">Typeset at 100 points</text>
  <text style="stroke:none;fill:black;font-family:sans-serif;font-size:13;" transform="matrix(1 0 0 1 263 726)">Small</text>
  <text style="stroke:none;fill:black;font-family:sans-serif;font-size:13;" transform="matrix(1 0 0 1 263 1156)">Medium</text>
  <text style="stroke:none;fill:black;font-family:sans-serif;font-size:13;" transform="matrix(1 0 0 1 263 1586)">Large</text>
 </g>
 <g id="Guides">
  <g id="H-reference" style="fill:#27AAE1;stroke:none;" transform="matrix(1 0 0 1 339 696)">
   <path d="M0.993347 0L3.6377 0L29.3282-67.1326L30.0301-67.1326L30.0301-70.459L28.1227-70.459ZM11.6882-24.4797L46.9818-24.4797L46.2311-26.7288L12.4382-26.7288ZM55.1193 0L57.7637 0L30.6381-70.459L29.4327-70.459L29.4327-67.1326Z"/>
  </g>
  <line id="Baseline-S" style="fill:none;stroke:#27AAE1;opacity:1;stroke-width:0.5;" x1="263" x2="3036" y1="696" y2="696"/>
  <line id="Capline-S" style="fill:none;stroke:#27AAE1;opacity:1;stroke-width:0.5;" x1="263" x2="3036" y1="625.541" y2="625.541"/>
  <g id="H-reference" style="fill:#27AAE1;stroke:none;" transform="matrix(1 0 0 1 339 1126)">
   <path d="M0.993347 0L3.6377 0L29.3282-67.1326L30.0301-67.1326L30.0301-70.459L28.1227-70.459ZM11.6882-24.4797L46.9818-24.4797L46.2311-26.7288L12.4382-26.7288ZM55.1193 0L57.7637 0L30.6381-70.459L29.4327-70.459L29.4327-67.1326Z"/>
  </g>
  <line id="Baseline-M" style="fill:none;stroke:#27AAE1;opacity:1;stroke-width:0.5;" x1="263" x2="3036" y1="1126" y2="1126"/>
  <line id="Capline-M" style="fill:none;stroke:#27AAE1;opacity:1;stroke-width:0.5;" x1="263" x2="3036" y1="1055.54" y2="1055.54"/>
  <g id="H-reference" style="fill:#27AAE1;stroke:none;" transform="matrix(1 0 0 1 339 1556)">
   <path d="M0.993347 0L3.6377 0L29.3282-67.1326L30.0301-67.1326L30.0301-70.459L28.1227-70.459ZM11.6882-24.4797L46.9818-24.4797L46.2311-26.7288L12.4382-26.7288ZM55.1193 0L57.7637 0L30.6381-70.459L29.4327-70.459L29.4327-67.1326Z"/>
  </g>
  <line id="Baseline-L" style="fill:none;stroke:#27AAE1;opacity:1;stroke-width:0.5;" x1="263" x2="3036" y1="1556" y2="1556"/>
  <line id="Capline-L" style="fill:none;stroke:#27AAE1;opacity:1;stroke-width:0.5;" x1="263" x2="3036" y1="1485.54" y2="1485.54"/>
  <line id="left-margin-Ultralight-S" style="fill:none;stroke:#FF3B30;stroke-width:0.5;opacity:1.0;" x1="500.922" x2="500.922" y1="600.784" y2="720.121"/>
  <line id="right-margin-Ultralight-S" style="fill:none;stroke:#FF3B30;stroke-width:0.5;opacity:1.0;" x1="618.5" x2="618.5" y1="600.784" y2="720.121"/>
  <line id="left-margin-Regular-S" style="fill:none;stroke:#FF3B30;stroke-width:0.5;opacity:1.0;" x1="1391.06" x2="1391.06" y1="600.784" y2="720.121"/>
  <line id="right-margin-Regular-S" style="fill:none;stroke:#FF3B30;stroke-width:0.5;opacity:1.0;" x1="1508.63" x2="1508.63" y1="600.784" y2="720.121"/>
  <line id="left-margin-Black-S" style="fill:none;stroke:#FF3B30;stroke-width:0.5;opacity:1.0;" x1="2874.61" x2="2874.61" y1="600.784" y2="720.121"/>
  <line id="right-margin-Black-S" style="fill:none;stroke:#FF3B30;stroke-width:0.5;opacity:1.0;" x1="2992.19" x2="2992.19" y1="600.784" y2="720.121"/>
 </g>
 <g id="Symbols">
  <g id="Black-S" transform="matrix(1 0 0 1 2874.61 696)">
   <path d="M1.45056-99.5369C3.88959-99.2654 6.29076-98.9912 8.65404-98.7143L8.98811-101.639C6.61931-101.916 4.21268-102.191 1.76822-102.463L1.45056-99.5369ZM15.8752-97.8455C18.3165-97.5437 20.7144-97.239 23.0691-96.9312L23.4413-99.8508L21.0655-100.158L16.2274-100.768L15.8752-97.8455ZM30.6519-98.88L30.2575-95.9634L33.8896-95.4518C35.0876-95.2804 36.273-95.1081 37.4459-94.9349L37.8653-97.8479L36.0903-98.108L32.4837-98.624C31.8762-98.7096 31.2657-98.7949 30.6519-98.88ZM44.6147-93.8404L46.4383-93.5498L50.0177-92.964C50.6067-92.8658 51.192-92.7674 51.7735-92.6687L52.254-95.572L48.7034-96.1637C47.5048-96.3599 46.2912-96.555 45.0626-96.749L44.6147-93.8404ZM58.922-91.4074C61.3718-90.9577 63.7468-90.5028 66.0469-90.0427L66.6102-92.9307C64.295-93.3938 61.905-93.8516 59.4404-94.304L58.922-91.4074ZM73.1252-88.5584C75.5745-88.0194 77.9256-87.4736 80.1785-86.921L80.8627-89.7821C78.5872-90.3402 76.2138-90.8912 73.7425-91.4351L73.1252-88.5584ZM87.1748-85.0959C89.6216-84.4154 91.9265-83.7254 94.0891-83.026L94.9735-85.8302C92.7718-86.5423 90.4289-87.2437 87.9446-87.9346L87.1748-85.0959ZM100.878-80.6182C103.304-79.6687 105.48-78.704 107.406-77.7251L108.71-80.3561C106.697-81.3795 104.435-82.3819 101.926-83.3641L100.878-80.6182ZM113.373-74.0509C115.521-72.3875 116.952-70.7158 117.689-69.0558L120.34-70.2633C119.385-72.4152 117.643-74.4506 115.139-76.3895L113.373-74.0509ZM117.465-63.0176C116.659-61.3383 115.254-59.5723 113.242-57.7357L115.188-55.5489C117.459-57.6214 119.093-59.6764 120.079-61.7299L117.465-63.0176ZM107.788-53.5583C105.969-52.3521 103.919-51.1267 101.636-49.8828L103.014-47.2906C105.367-48.573 107.489-49.8411 109.38-51.0957L107.788-53.5583ZM95.1868-46.6106C93.126-45.6311 90.9295-44.6414 88.5974-43.6417L89.7306-40.9308C92.0961-41.9448 94.3265-42.9498 96.4219-43.9457L95.1868-46.6106ZM81.8726-40.8791C79.7105-40.0258 77.4534-39.1656 75.1014-38.2986L76.0958-35.5323C78.4679-36.4068 80.7453-37.2747 82.9281-38.1362L81.8726-40.8791ZM68.2479-35.8459C66.0305-35.0746 63.7403-34.298 61.3772-33.5162L62.28-30.718C64.6567-31.5043 66.9608-32.2855 69.1923-33.0617L68.2479-35.8459ZM54.449-31.2692C53.2593-30.8847 52.0873-30.5019 50.9329-30.1208L47.5225-28.9825L48.4416-26.1897C50.6681-26.9411 52.9652-27.6995 55.3329-28.4648L54.449-31.2692ZM40.6249-26.5969C38.2464-25.753 35.9592-24.9178 33.7632-24.0913L34.7759-21.3319C36.9544-22.1518 39.2245-22.9807 41.5862-23.8187L40.6249-26.5969ZM26.9476-21.436C24.5682-20.4743 22.3178-19.5249 20.1964-18.5876L21.3589-15.8894C23.4514-16.8139 25.6735-17.7514 28.0251-18.7018L26.9476-21.436ZM13.54-15.4771C11.1543-14.2919 8.98555-13.1264 7.0333-11.9801L8.49153-9.43341C10.383-10.5441 12.4927-11.6779 14.8203-12.8342L13.54-15.4771ZM0.794637-7.82303C-1.6377-5.93764-3.45825-4.09094-4.66416-2.26463L-2.24765-0.6283C-1.23854-2.15655 0.363575-3.78169 2.56154-5.48541L0.794637-7.82303ZM-5.74721 6.18303C-4.79981 8.31121-2.89802 10.2533-0.0786032 12.05L1.46967 9.55848C-0.906362 8.04432-2.41635 6.50232-3.09707 4.97319L-5.74721 6.18303ZM6.75446 15.4529C8.83414 16.2896 11.166 17.0987 13.7509 17.8812L14.5834 15.0607C12.0765 14.3018 9.82431 13.5203 7.82774 12.7171L6.75446 15.4529ZM20.9401 19.8309C23.182 20.3786 25.5647 20.912 28.0883 21.4314L28.6673 18.5465C26.1771 18.0341 23.8285 17.5082 21.6218 16.9692L20.9401 19.8309ZM34.9717 22.7507C37.2738 23.1623 39.6736 23.5642 42.1713 23.9565L42.6168 21.0475C40.1388 20.6583 37.7589 20.2597 35.4771 19.8517L34.9717 22.7507ZM49.4103 25.0283C51.7443 25.3543 54.1526 25.673 56.6353 25.9845L56.9927 23.063C54.5231 22.7532 52.128 22.4362 49.8074 22.1121L49.4103 25.0283ZM63.8875 26.8495L67.4634 27.2457C68.6704 27.3763 69.8923 27.5055 71.1293 27.6331L71.424 24.7045L67.7726 24.3186L64.2111 23.924L63.8875 26.8495ZM78.6744 25.4199L78.4049 28.351L81.9923 28.6822C83.2006 28.7913 84.4214 28.8993 85.6548 29.006L85.9023 26.0728L82.2507 25.75C81.0461 25.6412 79.854 25.5311 78.6744 25.4199ZM92.9109 29.6082L95.3009 29.7959L100.167 30.163L100.377 27.2269C97.9213 27.0466 95.5084 26.8621 93.1387 26.6734L92.9109 29.6082ZM107.459 30.6775C109.841 30.839 112.261 30.9968 114.719 31.151L114.899 28.2128C112.446 28.059 110.03 27.9014 107.653 27.7402L107.459 30.6775Z"/>
  </g>
  <g id="Regular-S" transform="matrix(1 0 0 1 1391.06 696)">
   <path d="M3.07568-100.131C5.49368-99.8648 7.87413-99.596 10.217-99.3246L10.5482-102.192C8.19986-102.464 5.81398-102.733 3.3906-103L3.07568-100.131ZM17.3759-98.4727C19.7961-98.1769 22.1734-97.8781 24.5078-97.5763L24.8767-100.439L22.5214-100.74L17.7251-101.338L17.3759-98.4727ZM32.0252-99.487L31.6342-96.6275L35.2349-96.1259C36.4226-95.9578 37.5978-95.7889 38.7605-95.6191L39.1764-98.4751L37.4167-98.7301L33.8411-99.236C33.2389-99.3199 32.6336-99.4036 32.0252-99.487ZM45.8675-94.546L47.6753-94.2611L51.2239-93.6867C51.8078-93.5905 52.388-93.494 52.9645-93.3972L53.4409-96.2437L49.9209-96.8239C48.7327-97.0162 47.5295-97.2075 46.3115-97.3977L45.8675-94.546ZM60.0514-92.1606C62.4801-91.7197 64.8346-91.2737 67.1149-90.8226L67.6733-93.6541C65.378-94.1082 63.0087-94.557 60.5654-95.0005L60.0514-92.1606ZM74.1321-89.3673C76.5603-88.8389 78.8911-88.3037 81.1245-87.762L81.8029-90.5671C79.547-91.1143 77.194-91.6545 74.7441-92.1877L74.1321-89.3673ZM88.0605-85.9726C90.4862-85.3054 92.7712-84.6289 94.9152-83.9431L95.792-86.6926C93.6092-87.3907 91.2865-88.0784 88.8237-88.7558L88.0605-85.9726ZM101.645-81.5825C104.05-80.6515 106.208-79.7057 108.117-78.746L109.41-81.3255C107.414-82.3289 105.172-83.3116 102.684-84.2747L101.645-81.5825ZM114.033-75.1437C116.162-73.5128 117.581-71.8738 118.312-70.2463L120.94-71.4301C119.993-73.54 118.266-75.5355 115.783-77.4365L114.033-75.1437ZM118.09-64.3263C117.29-62.6798 115.898-60.9483 113.903-59.1476L115.832-57.0037C118.084-59.0356 119.703-61.0504 120.681-63.0637L118.09-64.3263ZM108.496-55.052C106.693-53.8694 104.66-52.668 102.397-51.4484L103.763-48.9069C106.096-50.1642 108.199-51.4075 110.075-52.6376L108.496-55.052ZM96.0034-48.2402C93.9604-47.2799 91.7828-46.3096 89.4709-45.3294L90.5943-42.6715C92.9394-43.6657 95.1505-44.651 97.2279-45.6275L96.0034-48.2402ZM82.804-42.6208C80.6606-41.7843 78.423-40.9409 76.0913-40.0908L77.0771-37.3787C79.4287-38.2361 81.6865-39.087 83.8505-39.9316L82.804-42.6208ZM69.2969-37.6861C67.0986-36.9299 64.8281-36.1685 62.4855-35.4021L63.3804-32.6585C65.7367-33.4295 68.0209-34.1954 70.2331-34.9565L69.2969-37.6861ZM55.617-33.199C54.4376-32.822 53.2757-32.4467 52.1312-32.073L48.7502-30.957L49.6614-28.2189C51.8687-28.9556 54.1459-29.6991 56.4933-30.4494L55.617-33.199ZM41.9122-28.6181C39.5541-27.7907 37.2866-26.9718 35.1096-26.1615L36.1136-23.4561C38.2733-24.26 40.5238-25.0727 42.8651-25.8942L41.9122-28.6181ZM28.3528-23.5581C25.9939-22.6153 23.7629-21.6845 21.6598-20.7655L22.8123-18.1201C24.8868-19.0265 27.0897-19.9457 29.421-20.8775L28.3528-23.5581ZM15.0609-17.7159C12.6957-16.5539 10.5457-15.4112 8.61027-14.2872L10.0559-11.7904C11.9311-12.8794 14.0226-13.991 16.3301-15.1247L15.0609-17.7159ZM2.42542-10.2115C0.014061-8.36303-1.79078-6.55246-2.9863-4.76189L-0.590628-3.15757C0.409778-4.65592 1.99807-6.24926 4.17708-7.91965L2.42542-10.2115ZM-4.06 3.5205C-3.12078 5.60704-1.23539 7.51114 1.55971 9.27271L3.09463 6.82992C0.73909 5.34538-0.757877 3.83355-1.43273 2.33433L-4.06 3.5205ZM8.33383 12.609C10.3956 13.4293 12.7073 14.2226 15.2699 14.9898L16.0953 12.2244C13.61 11.4804 11.3772 10.7142 9.39785 9.92672L8.33383 12.609ZM22.3971 16.9014C24.6196 17.4383 26.9818 17.9613 29.4837 18.4705L30.0576 15.6421C27.5889 15.1397 25.2606 14.6241 23.0729 14.0956L22.3971 16.9014ZM36.3077 19.764C38.5899 20.1676 40.9691 20.5616 43.4452 20.9463L43.8869 18.0941C41.4302 17.7125 39.0708 17.3217 36.8088 16.9218L36.3077 19.764ZM50.6217 21.9971C52.9356 22.3167 55.3232 22.6292 57.7844 22.9345L58.1387 20.0702C55.6904 19.7665 53.316 19.4557 51.0155 19.1379L50.6217 21.9971ZM64.9741 23.7826L68.5192 24.1711C69.7157 24.2991 70.9271 24.4258 72.1534 24.5509L72.4456 21.6796L68.8256 21.3012L65.2949 20.9144L64.9741 23.7826ZM79.6335 22.381L79.3662 25.2548L82.9227 25.5794C84.1206 25.6865 85.3309 25.7923 86.5536 25.8969L86.799 23.0212L83.1789 22.7047C81.9847 22.598 80.8029 22.4901 79.6335 22.381ZM93.7471 26.4874L96.1165 26.6714L100.941 27.0313L101.149 24.1526C98.7143 23.9758 96.3223 23.795 93.9729 23.61L93.7471 26.4874ZM108.17 27.5357C110.531 27.6941 112.93 27.8488 115.367 28L115.545 25.1193C113.113 24.9684 110.719 24.814 108.362 24.6559L108.17 27.5357Z"/>
  </g>
  <g id="Ultralight-S" transform="matrix(1 0 0 1 500.922 696)">
   <path d="M4.21368-104.131C6.63168-103.865 9.01213-103.596 11.355-103.325L11.6862-106.192C9.33785-106.464 6.95198-106.733 4.5286-107L4.21368-104.131ZM18.5139-102.473C20.9341-102.177 23.3114-101.878 25.6458-101.576L26.0147-104.439L23.6594-104.74L18.8631-105.338L18.5139-102.473ZM33.1632-103.487L32.7722-100.628L36.3729-100.126C37.5606-99.9578 38.7358-99.7889 39.8985-99.6191L40.3144-102.475L38.5547-102.73L34.9791-103.236C34.3769-103.32 33.7716-103.404 33.1632-103.487ZM47.0055-98.546L48.8133-98.2611L52.3619-97.6867C52.9458-97.5905 53.526-97.494 54.1025-97.3972L54.5789-100.244L51.0589-100.824C49.8707-101.016 48.6675-101.208 47.4495-101.398L47.0055-98.546ZM61.1894-96.1606C63.6181-95.7197 65.9726-95.2737 68.2529-94.8226L68.8113-97.6541C66.516-98.1082 64.1467-98.557 61.7034-99.0005L61.1894-96.1606ZM75.2701-93.3673C77.6983-92.8389 80.0291-92.3037 82.2625-91.762L82.9409-94.5671C80.685-95.1143 78.332-95.6545 75.8821-96.1877L75.2701-93.3673ZM89.1985-89.9726C91.6242-89.3054 93.9092-88.6289 96.0532-87.9431L96.93-90.6926C94.7472-91.3907 92.4245-92.0784 89.9617-92.7558L89.1985-89.9726ZM102.783-85.5825C105.188-84.6515 107.346-83.7057 109.255-82.746L110.548-85.3255C108.552-86.3289 106.31-87.3116 103.822-88.2747L102.783-85.5825ZM115.171-79.1437C117.3-77.5128 118.719-75.8738 119.45-74.2463L122.078-75.4301C121.131-77.54 119.404-79.5355 116.921-81.4365L115.171-79.1437ZM119.228-68.3263C118.428-66.6798 117.036-64.9483 115.041-63.1476L116.97-61.0037C119.222-63.0356 120.841-65.0504 121.819-67.0637L119.228-68.3263ZM109.634-59.052C107.831-57.8694 105.798-56.668 103.535-55.4484L104.901-52.9069C107.234-54.1642 109.337-55.4075 111.213-56.6376L109.634-59.052ZM97.1414-52.2402C95.0984-51.2799 92.9208-50.3096 90.6089-49.3294L91.7323-46.6715C94.0774-47.6657 96.2885-48.651 98.3659-49.6275L97.1414-52.2402ZM83.942-46.6208C81.7986-45.7843 79.561-44.9409 77.2293-44.0908L78.2151-41.3787C80.5667-42.2361 82.8245-43.087 84.9885-43.9316L83.942-46.6208ZM70.4349-41.6861C68.2366-40.9299 65.9661-40.1685 63.6235-39.4021L64.5184-36.6585C66.8747-37.4295 69.1589-38.1954 71.3711-38.9565L70.4349-41.6861ZM56.755-37.199C55.5756-36.822 54.4137-36.4467 53.2692-36.073L49.8882-34.957L50.7994-32.2189C53.0067-32.9556 55.2839-33.6991 57.6313-34.4494L56.755-37.199ZM43.0502-32.6181C40.6921-31.7907 38.4246-30.9718 36.2476-30.1615L37.2516-27.4561C39.4113-28.26 41.6618-29.0727 44.0031-29.8942L43.0502-32.6181ZM29.4908-27.5581C27.1319-26.6153 24.9009-25.6845 22.7978-24.7655L23.9503-22.1201C26.0248-23.0265 28.2277-23.9457 30.559-24.8775L29.4908-27.5581ZM16.1989-21.7159C13.8337-20.5539 11.6837-19.4112 9.74827-18.2872L11.1939-15.7904C13.0691-16.8794 15.1606-17.991 17.4681-19.1247L16.1989-21.7159ZM3.56342-14.2115C1.15206-12.363-0.652785-10.5525-1.8483-8.76189L0.547372-7.15757C1.54778-8.65592 3.13607-10.2493 5.31508-11.9196L3.56342-14.2115ZM-2.922-0.479496C-1.98278 1.60704-0.0973909 3.51114 2.69771 5.27271L4.23263 2.82992C1.87709 1.34538 0.380123-0.166451-0.294727-1.66567L-2.922-0.479496ZM9.47183 8.60902C11.5336 9.42933 13.8453 10.2226 16.4079 10.9898L17.2333 8.22444C14.748 7.48043 12.5152 6.71425 10.5359 5.92672L9.47183 8.60902ZM23.5351 12.9014C25.7576 13.4383 28.1198 13.9613 30.6217 14.4705L31.1956 11.6421C28.7269 11.1397 26.3986 10.6241 24.2109 10.0956L23.5351 12.9014ZM37.4457 15.764C39.7279 16.1676 42.1071 16.5616 44.5832 16.9463L45.0249 14.0941C42.5682 13.7125 40.2088 13.3217 37.9468 12.9218L37.4457 15.764ZM51.7597 17.9971C54.0736 18.3167 56.4612 18.6292 58.9224 18.9345L59.2767 16.0702C56.8284 15.7665 54.454 15.4557 52.1535 15.1379L51.7597 17.9971ZM66.1121 19.7826L69.6572 20.1711C70.8537 20.2991 72.0651 20.4258 73.2914 20.5509L73.5836 17.6796L69.9636 17.3012L66.4329 16.9144L66.1121 19.7826ZM80.7715 18.381L80.5042 21.2548L84.0607 21.5794C85.2586 21.6865 86.4689 21.7923 87.6916 21.8969L87.937 19.0212L84.3169 18.7047C83.1227 18.598 81.9409 18.4901 80.7715 18.381ZM94.8851 22.4874L97.2545 22.6714L102.079 23.0313L102.287 20.1526C99.8523 19.9758 97.4603 19.795 95.1109 19.61L94.8851 22.4874ZM109.308 23.5357C111.669 23.6941 114.068 23.8488 116.505 24L116.683 21.1193C114.251 20.9684 111.857 20.814 109.5 20.6559L109.308 23.5357Z"/>
  </g>
 </g>
</svg>
