<?xml version="1.0" encoding="UTF-8"?>
<!--Generator: Apple Native CoreSVG 175-->
<!DOCTYPE svg
PUBLIC "-//W3C//DTD SVG 1.1//EN"
       "http://www.w3.org/Graphics/SVG/1.1/DTD/svg11.dtd">
<svg version="1.1" xmlns="http://www.w3.org/2000/svg" xmlns:xlink="http://www.w3.org/1999/xlink" width="3300" height="2200">
 <!--glyph: "", point size: 100.0, font version: "17.3d3e1", template writer version: "65.1"-->
 <g id="Notes">
  <rect height="2200" id="artboard" style="fill:white;opacity:1" width="3300" x="0" y="0"/>
  <line style="fill:none;stroke:black;opacity:1;stroke-width:0.5;" x1="263" x2="3036" y1="292" y2="292"/>
  <text style="stroke:none;fill:black;font-family:sans-serif;font-size:13;font-weight:bold;" transform="matrix(1 0 0 1 263 322)">Weight/Scale Variations</text>
  <text style="stroke:none;fill:black;font-family:sans-serif;font-size:13;text-anchor:middle;" transform="matrix(1 0 0 1 559.711 322)">Ultralight</text>
  <text style="stroke:none;fill:black;font-family:sans-serif;font-size:13;text-anchor:middle;" transform="matrix(1 0 0 1 856.422 322)">Thin</text>
  <text style="stroke:none;fill:black;font-family:sans-serif;font-size:13;text-anchor:middle;" transform="matrix(1 0 0 1 1153.13 322)">Light</text>
  <text style="stroke:none;fill:black;font-family:sans-serif;font-size:13;text-anchor:middle;" transform="matrix(1 0 0 1 1449.84 322)">Regular</text>
  <text style="stroke:none;fill:black;font-family:sans-serif;font-size:13;text-anchor:middle;" transform="matrix(1 0 0 1 1746.56 322)">Medium</text>
  <text style="stroke:none;fill:black;font-family:sans-serif;font-size:13;text-anchor:middle;" transform="matrix(1 0 0 1 2043.27 322)">Semibold</text>
  <text style="stroke:none;fill:black;font-family:sans-serif;font-size:13;text-anchor:middle;" transform="matrix(1 0 0 1 2339.98 322)">Bold</text>
  <text style="stroke:none;fill:black;font-family:sans-serif;font-size:13;text-anchor:middle;" transform="matrix(1 0 0 1 2636.69 322)">Heavy</text>
  <text style="stroke:none;fill:black;font-family:sans-serif;font-size:13;text-anchor:middle;" transform="matrix(1 0 0 1 2933.4 322)">Black</text>
  <line style="fill:none;stroke:black;opacity:1;stroke-width:0.5;" x1="263" x2="3036" y1="1903" y2="1903"/>
  <g transform="matrix(1 0 0 1 263 1933)">
   <path d="M9.24805 0.830078Q10.8691 0.830078 12.2949 0.214844Q13.7207-0.400391 14.8096-1.49414Q15.8984-2.58789 16.5186-4.01367Q17.1387-5.43945 17.1387-7.05078Q17.1387-8.66211 16.5186-10.0879Q15.8984-11.5137 14.8047-12.6074Q13.7109-13.7012 12.2852-14.3164Q10.8594-14.9316 9.23828-14.9316Q7.62695-14.9316 6.20117-14.3164Q4.77539-13.7012 3.69141-12.6074Q2.60742-11.5137 1.9873-10.0879Q1.36719-8.66211 1.36719-7.05078Q1.36719-5.43945 1.9873-4.01367Q2.60742-2.58789 3.69629-1.49414Q4.78516-0.400391 6.21094 0.214844Q7.63672 0.830078 9.24805 0.830078ZM9.24805-0.654297Q7.91992-0.654297 6.7627-1.14746Q5.60547-1.64062 4.73145-2.51953Q3.85742-3.39844 3.36426-4.56055Q2.87109-5.72266 2.87109-7.05078Q2.87109-8.37891 3.35938-9.54102Q3.84766-10.7031 4.72168-11.582Q5.5957-12.4609 6.75293-12.9541Q7.91016-13.4473 9.23828-13.4473Q10.5762-13.4473 11.7334-12.9541Q12.8906-12.4609 13.7695-11.582Q14.6484-10.7031 15.1465-9.54102Q15.6445-8.37891 15.6445-7.05078Q15.6445-5.72266 15.1514-4.56055Q14.6582-3.39844 13.7842-2.51953Q12.9102-1.64062 11.748-1.14746Q10.5859-0.654297 9.24805-0.654297ZM5.6543-7.05078Q5.6543-6.72852 5.85938-6.52832Q6.06445-6.32812 6.40625-6.32812L8.51562-6.32812L8.51562-4.20898Q8.51562-3.88672 8.71094-3.67676Q8.90625-3.4668 9.23828-3.4668Q9.56055-3.4668 9.77051-3.67676Q9.98047-3.88672 9.98047-4.20898L9.98047-6.32812L12.0898-6.32812Q12.4219-6.32812 12.627-6.52832Q12.832-6.72852 12.832-7.05078Q12.832-7.38281 12.627-7.58789Q12.4219-7.79297 12.0898-7.79297L9.98047-7.79297L9.98047-9.90234Q9.98047-10.2344 9.77051-10.4443Q9.56055-10.6543 9.23828-10.6543Q8.90625-10.6543 8.71094-10.4443Q8.51562-10.2344 8.51562-9.90234L8.51562-7.79297L6.40625-7.79297Q6.06445-7.79297 5.85938-7.58789Q5.6543-7.38281 5.6543-7.05078Z"/>
  </g>
  <g transform="matrix(1 0 0 1 281.867 1933)">
   <path d="M11.709 2.91016Q13.75 2.91016 15.5518 2.12891Q17.3535 1.34766 18.7305-0.0292969Q20.1074-1.40625 20.8887-3.20801Q21.6699-5.00977 21.6699-7.05078Q21.6699-9.0918 20.8887-10.8936Q20.1074-12.6953 18.7305-14.0723Q17.3535-15.4492 15.5469-16.2305Q13.7402-17.0117 11.6992-17.0117Q9.6582-17.0117 7.85645-16.2305Q6.05469-15.4492 4.68262-14.0723Q3.31055-12.6953 2.5293-10.8936Q1.74805-9.0918 1.74805-7.05078Q1.74805-5.00977 2.5293-3.20801Q3.31055-1.40625 4.6875-0.0292969Q6.06445 1.34766 7.86621 2.12891Q9.66797 2.91016 11.709 2.91016ZM11.709 1.25Q9.98047 1.25 8.47656 0.605469Q6.97266-0.0390625 5.83496-1.17676Q4.69727-2.31445 4.05762-3.81836Q3.41797-5.32227 3.41797-7.05078Q3.41797-8.7793 4.05762-10.2832Q4.69727-11.7871 5.83008-12.9297Q6.96289-14.0723 8.4668-14.7119Q9.9707-15.3516 11.6992-15.3516Q13.4277-15.3516 14.9316-14.7119Q16.4355-14.0723 17.5781-12.9297Q18.7207-11.7871 19.3652-10.2832Q20.0098-8.7793 20.0098-7.05078Q20.0098-5.32227 19.3701-3.81836Q18.7305-2.31445 17.5928-1.17676Q16.4551-0.0390625 14.9463 0.605469Q13.4375 1.25 11.709 1.25ZM7.17773-7.05078Q7.17773-6.69922 7.41211-6.47461Q7.64648-6.25 8.01758-6.25L10.8887-6.25L10.8887-3.36914Q10.8887-2.99805 11.1133-2.76855Q11.3379-2.53906 11.6895-2.53906Q12.0605-2.53906 12.29-2.76855Q12.5195-2.99805 12.5195-3.36914L12.5195-6.25L15.4004-6.25Q15.7715-6.25 16.001-6.47461Q16.2305-6.69922 16.2305-7.05078Q16.2305-7.42188 16.001-7.65137Q15.7715-7.88086 15.4004-7.88086L12.5195-7.88086L12.5195-10.752Q12.5195-11.1328 12.29-11.3623Q12.0605-11.5918 11.6895-11.5918Q11.3379-11.5918 11.1133-11.3574Q10.8887-11.123 10.8887-10.752L10.8887-7.88086L8.01758-7.88086Q7.63672-7.88086 7.40723-7.65137Q7.17773-7.42188 7.17773-7.05078Z"/>
  </g>
  <g transform="matrix(1 0 0 1 305.646 1933)">
   <path d="M14.9707 5.66406Q17.0605 5.66406 18.96 5.01465Q20.8594 4.36523 22.4512 3.19336Q24.043 2.02148 25.2197 0.429688Q26.3965-1.16211 27.0459-3.06641Q27.6953-4.9707 27.6953-7.05078Q27.6953-9.14062 27.0459-11.04Q26.3965-12.9395 25.2197-14.5312Q24.043-16.123 22.4512-17.2998Q20.8594-18.4766 18.9551-19.126Q17.0508-19.7754 14.9609-19.7754Q12.8711-19.7754 10.9717-19.126Q9.07227-18.4766 7.48535-17.2998Q5.89844-16.123 4.72168-14.5312Q3.54492-12.9395 2.90039-11.04Q2.25586-9.14062 2.25586-7.05078Q2.25586-4.9707 2.90527-3.06641Q3.55469-1.16211 4.72656 0.429688Q5.89844 2.02148 7.49023 3.19336Q9.08203 4.36523 10.9814 5.01465Q12.8809 5.66406 14.9707 5.66406ZM14.9707 3.84766Q13.1641 3.84766 11.5283 3.2959Q9.89258 2.74414 8.53516 1.74805Q7.17773 0.751953 6.17676-0.610352Q5.17578-1.97266 4.62891-3.6084Q4.08203-5.24414 4.08203-7.05078Q4.08203-8.86719 4.62891-10.5029Q5.17578-12.1387 6.17188-13.501Q7.16797-14.8633 8.52539-15.8594Q9.88281-16.8555 11.5186-17.4023Q13.1543-17.9492 14.9609-17.9492Q16.7773-17.9492 18.4131-17.4023Q20.0488-16.8555 21.4111-15.8594Q22.7734-14.8633 23.7695-13.501Q24.7656-12.1387 25.3174-10.5029Q25.8691-8.86719 25.8691-7.05078Q25.8789-5.24414 25.332-3.6084Q24.7852-1.97266 23.7842-0.610352Q22.7832 0.751953 21.4209 1.74805Q20.0586 2.74414 18.4229 3.2959Q16.7871 3.84766 14.9707 3.84766ZM9.19922-7.05078Q9.19922-6.66992 9.45801-6.4209Q9.7168-6.17188 10.1172-6.17188L14.0625-6.17188L14.0625-2.2168Q14.0625-1.81641 14.3115-1.55762Q14.5605-1.29883 14.9512-1.29883Q15.3516-1.29883 15.6104-1.55273Q15.8691-1.80664 15.8691-2.2168L15.8691-6.17188L19.8242-6.17188Q20.2246-6.17188 20.4785-6.4209Q20.7324-6.66992 20.7324-7.05078Q20.7324-7.46094 20.4785-7.71484Q20.2246-7.96875 19.8242-7.96875L15.8691-7.96875L15.8691-11.9141Q15.8691-12.3242 15.6104-12.583Q15.3516-12.8418 14.9512-12.8418Q14.5605-12.8418 14.3115-12.583Q14.0625-12.3242 14.0625-11.9141L14.0625-7.96875L10.1172-7.96875Q9.70703-7.96875 9.45312-7.71484Q9.19922-7.46094 9.19922-7.05078Z"/>
  </g>
  <text style="stroke:none;fill:black;font-family:sans-serif;font-size:13;font-weight:bold;" transform="matrix(1 0 0 1 263 1953)">Design Variations</text>
  <text style="stroke:none;fill:black;font-family:sans-serif;font-size:13;" transform="matrix(1 0 0 1 263 1971)">Symbols are supported in up to nine weights and three scales.</text>
  <text style="stroke:none;fill:black;font-family:sans-serif;font-size:13;" transform="matrix(1 0 0 1 263 1989)">For optimal layout with text and other symbols, vertically align</text>
  <text style="stroke:none;fill:black;font-family:sans-serif;font-size:13;" transform="matrix(1 0 0 1 263 2007)">symbols with the adjacent text.</text>
  <line style="fill:none;stroke:#00AEEF;stroke-width:0.5;opacity:1.0;" x1="776" x2="776" y1="1919" y2="1933"/>
  <g transform="matrix(1 0 0 1 776 1933)">
   <path d="M3.31055 0.15625Q3.70117 0.15625 3.91602-0.00976562Q4.13086-0.175781 4.26758-0.585938L5.52734-4.0332L11.2891-4.0332L12.5488-0.585938Q12.6855-0.175781 12.9004-0.00976562Q13.1152 0.15625 13.4961 0.15625Q13.8867 0.15625 14.1162-0.0585938Q14.3457-0.273438 14.3457-0.644531Q14.3457-0.869141 14.2383-1.17188L9.6582-13.3691Q9.48242-13.8184 9.17969-14.043Q8.87695-14.2676 8.4082-14.2676Q7.5-14.2676 7.17773-13.3789L2.59766-1.16211Q2.49023-0.859375 2.49023-0.634766Q2.49023-0.263672 2.70996-0.0537109Q2.92969 0.15625 3.31055 0.15625ZM6.00586-5.51758L8.37891-12.0898L8.42773-12.0898L10.8008-5.51758Z"/>
  </g>
  <line style="fill:none;stroke:#00AEEF;stroke-width:0.5;opacity:1.0;" x1="793.197" x2="793.197" y1="1919" y2="1933"/>
  <text style="stroke:none;fill:black;font-family:sans-serif;font-size:13;font-weight:bold;" transform="matrix(1 0 0 1 776 1953)">Margins</text>
  <text style="stroke:none;fill:black;font-family:sans-serif;font-size:13;" transform="matrix(1 0 0 1 776 1971)">Leading and trailing margins on the left and right side of each symbol</text>
  <text style="stroke:none;fill:black;font-family:sans-serif;font-size:13;" transform="matrix(1 0 0 1 776 1989)">can be adjusted by modifying the x-location of the margin guidelines.</text>
  <text style="stroke:none;fill:black;font-family:sans-serif;font-size:13;" transform="matrix(1 0 0 1 776 2007)">Modifications are automatically applied proportionally to all</text>
  <text style="stroke:none;fill:black;font-family:sans-serif;font-size:13;" transform="matrix(1 0 0 1 776 2025)">scales and weights.</text>
  <g transform="matrix(1 0 0 1 1289 1933)">
   <path d="M2.8418 1.86523L4.54102 3.57422Q5.18555 4.22852 5.90332 4.17969Q6.62109 4.13086 7.31445 3.35938L18.0078-8.42773L17.041-9.4043L6.42578 2.27539Q6.16211 2.57812 5.89355 2.61719Q5.625 2.65625 5.27344 2.30469L4.10156 1.14258Q3.75 0.791016 3.79395 0.522461Q3.83789 0.253906 4.14062-0.0195312L15.6152-10.8203L14.6387-11.7871L3.04688-0.898438Q2.30469-0.214844 2.25098 0.498047Q2.19727 1.21094 2.8418 1.86523ZM9.25781-16.3281Q8.94531-16.0254 8.90625-15.6348Q8.86719-15.2441 9.04297-14.9512Q9.21875-14.6777 9.55566-14.541Q9.89258-14.4043 10.3809-14.5215Q11.4746-14.7754 12.5977-14.7314Q13.7207-14.6875 14.7949-13.9844L14.209-12.5293Q13.9551-11.9043 14.0674-11.4404Q14.1797-10.9766 14.5801-10.5664L16.875-8.25195Q17.2363-7.88086 17.5781-7.82227Q17.9199-7.76367 18.3398-7.8418L19.4043-8.03711L20.0684-7.36328L20.0293-6.80664Q20-6.43555 20.1221-6.12305Q20.2441-5.81055 20.6055-5.44922L21.3672-4.70703Q21.7285-4.3457 22.1533-4.33105Q22.5781-4.31641 22.9297-4.66797L25.8398-7.58789Q26.1914-7.93945 26.1816-8.35449Q26.1719-8.76953 25.8105-9.13086L25.0391-9.89258Q24.6875-10.2539 24.3799-10.3857Q24.0723-10.5176 23.7109-10.4883L23.1348-10.4395L22.4902-11.0742L22.7344-12.1973Q22.832-12.6172 22.6953-12.9834Q22.5586-13.3496 22.1191-13.7891L19.9219-15.9766Q18.6719-17.2168 17.2607-17.8369Q15.8496-18.457 14.4189-18.4814Q12.9883-18.5059 11.665-17.959Q10.3418-17.4121 9.25781-16.3281ZM10.752-15.957Q11.6602-16.6211 12.7002-16.9043Q13.7402-17.1875 14.8047-17.085Q15.8691-16.9824 16.8701-16.5137Q17.8711-16.0449 18.7012-15.2051L21.1328-12.793Q21.3086-12.6172 21.3525-12.4512Q21.3965-12.2852 21.3379-12.0312L21.0156-10.5469L22.5195-9.0625L23.5059-9.12109Q23.6914-9.13086 23.7891-9.09668Q23.8867-9.0625 24.0332-8.91602L24.6094-8.33984L22.168-5.89844L21.5918-6.47461Q21.4453-6.62109 21.4062-6.71875Q21.3672-6.81641 21.377-7.01172L21.4453-7.98828L19.9512-9.47266L18.4277-9.21875Q18.1836-9.16992 18.042-9.2041Q17.9004-9.23828 17.7148-9.41406L15.7129-11.416Q15.5176-11.5918 15.4932-11.7529Q15.4688-11.9141 15.5859-12.1875L16.4648-14.2773Q15.293-15.3711 13.8281-15.791Q12.3633-16.2109 10.8398-15.7617Q10.7227-15.7324 10.6885-15.8057Q10.6543-15.8789 10.752-15.957Z"/>
  </g>
  <text style="stroke:none;fill:black;font-family:sans-serif;font-size:13;font-weight:bold;" transform="matrix(1 0 0 1 1289 1953)">Exporting</text>
  <text style="stroke:none;fill:black;font-family:sans-serif;font-size:13;" transform="matrix(1 0 0 1 1289 1971)">Symbols should be outlined when exporting to ensure the</text>
  <text style="stroke:none;fill:black;font-family:sans-serif;font-size:13;" transform="matrix(1 0 0 1 1289 1989)">design is preserved when submitting to Xcode.</text>
  <text id="template-version" style="stroke:none;fill:black;font-family:sans-serif;font-size:13;text-anchor:end;" transform="matrix(1 0 0 1 3036 1933)">Template v.3.0</text>
  <text style="stroke:none;fill:black;font-family:sans-serif;font-size:13;text-anchor:end;" transform="matrix(1 0 0 1 3036 1951)">Requires Xcode 13 or greater</text>
  <text id="descriptive-name" style="stroke:none;fill:black;font-family:sans-serif;font-size:13;text-anchor:end;" transform="matrix(1 0 0 1 3036 1969)">Generated from dashedLine</text>
  <text style="stroke:none;fill:black;font-family:sans-serif;font-size:13;text-anchor:end;" transform="matrix(1 0 0 1 3036 1987)">Typeset at 100 points</text>
  <text style="stroke:none;fill:black;font-family:sans-serif;font-size:13;" transform="matrix(1 0 0 1 263 726)">Small</text>
  <text style="stroke:none;fill:black;font-family:sans-serif;font-size:13;" transform="matrix(1 0 0 1 263 1156)">Medium</text>
  <text style="stroke:none;fill:black;font-family:sans-serif;font-size:13;" transform="matrix(1 0 0 1 263 1586)">Large</text>
 </g>
 <g id="Guides">
  <g id="H-reference" style="fill:#27AAE1;stroke:none;" transform="matrix(1 0 0 1 339 696)">
   <path d="M0.993347 0L3.6377 0L29.3282-67.1326L30.0301-67.1326L30.0301-70.459L28.1227-70.459ZM11.6882-24.4797L46.9818-24.4797L46.2311-26.7288L12.4382-26.7288ZM55.1193 0L57.7637 0L30.6381-70.459L29.4327-70.459L29.4327-67.1326Z"/>
  </g>
  <line id="Baseline-S" style="fill:none;stroke:#27AAE1;opacity:1;stroke-width:0.5;" x1="263" x2="3036" y1="696" y2="696"/>
  <line id="Capline-S" style="fill:none;stroke:#27AAE1;opacity:1;stroke-width:0.5;" x1="263" x2="3036" y1="625.541" y2="625.541"/>
  <g id="H-reference" style="fill:#27AAE1;stroke:none;" transform="matrix(1 0 0 1 339 1126)">
   <path d="M0.993347 0L3.6377 0L29.3282-67.1326L30.0301-67.1326L30.0301-70.459L28.1227-70.459ZM11.6882-24.4797L46.9818-24.4797L46.2311-26.7288L12.4382-26.7288ZM55.1193 0L57.7637 0L30.6381-70.459L29.4327-70.459L29.4327-67.1326Z"/>
  </g>
  <line id="Baseline-M" style="fill:none;stroke:#27AAE1;opacity:1;stroke-width:0.5;" x1="263" x2="3036" y1="1126" y2="1126"/>
  <line id="Capline-M" style="fill:none;stroke:#27AAE1;opacity:1;stroke-width:0.5;" x1="263" x2="3036" y1="1055.54" y2="1055.54"/>
  <g id="H-reference" style="fill:#27AAE1;stroke:none;" transform="matrix(1 0 0 1 339 1556)">
   <path d="M0.993347 0L3.6377 0L29.3282-67.1326L30.0301-67.1326L30.0301-70.459L28.1227-70.459ZM11.6882-24.4797L46.9818-24.4797L46.2311-26.7288L12.4382-26.7288ZM55.1193 0L57.7637 0L30.6381-70.459L29.4327-70.459L29.4327-67.1326Z"/>
  </g>
  <line id="Baseline-L" style="fill:none;stroke:#27AAE1;opacity:1;stroke-width:0.5;" x1="263" x2="3036" y1="1556" y2="1556"/>
  <line id="Capline-L" style="fill:none;stroke:#27AAE1;opacity:1;stroke-width:0.5;" x1="263" x2="3036" y1="1485.54" y2="1485.54"/>
  <line id="left-margin-Ultralight-S" style="fill:none;stroke:#00AEEF;stroke-width:0.5;opacity:1.0;" x1="502.288" x2="502.288" y1="600.784" y2="720.121"/>
  <line id="right-margin-Ultralight-S" style="fill:none;stroke:#FF3B30;stroke-width:0.5;opacity:1.0;" x1="617.134" x2="617.134" y1="600.784" y2="720.121"/>
  <line id="left-margin-Regular-S" style="fill:none;stroke:#00AEEF;stroke-width:0.5;opacity:1.0;" x1="1392.43" x2="1392.43" y1="600.784" y2="720.121"/>
  <line id="right-margin-Regular-S" style="fill:none;stroke:#FF3B30;stroke-width:0.5;opacity:1.0;" x1="1507.26" x2="1507.26" y1="600.784" y2="720.121"/>
  <line id="left-margin-Black-S" style="fill:none;stroke:#FF3B30;stroke-width:0.5;opacity:1.0;" x1="2875.98" x2="2875.98" y1="600.784" y2="720.121"/>
  <line id="right-margin-Black-S" style="fill:none;stroke:#00AEEF;stroke-width:0.5;opacity:1.0;" x1="2990.82" x2="2990.82" y1="600.784" y2="720.121"/>
 </g>
 <g id="Symbols">
  <g id="Black-S" transform="matrix(1 0 0 1 2875.98 696)">
   <path d="M-1481.98-108L-1482.47-103.56L-1476.4-102.877C-1475.4-102.763-1474.4-102.648-1473.41-102.533L-1467.56-101.835C-1466.6-101.718-1465.64-101.6-1464.69-101.482L-1464.14-105.916C-1467-106.271-1469.92-106.622-1472.89-106.97L-1478.91-107.659C-1479.93-107.773-1480.95-107.887-1481.98-108ZM-1458.01-100.634C-1455.36-100.289-1452.76-99.9403-1450.22-99.5881L-1445.19-98.879C-1443.53-98.6411-1441.9-98.4016-1440.29-98.1605L-1439.63-102.578L-1444.54-103.3C-1446.21-103.54-1447.89-103.777-1449.6-104.013L-1454.79-104.716C-1455.66-104.832-1456.54-104.948-1457.43-105.064L-1458.01-100.634ZM-1433.66-97.1373C-1427.42-96.1457-1421.55-95.1285-1416.05-94.086L-1415.22-98.4747C-1417.29-98.8688-1419.43-99.2593-1421.61-99.6461L-1426.04-100.415C-1426.79-100.542-1427.55-100.669-1428.31-100.795L-1432.96-101.549L-1433.66-97.1373ZM-1409.5-92.7943C-1403.15-91.4961-1397.37-90.1605-1392.13-88.7878L-1390.99-93.108C-1396.31-94.5025-1402.17-95.8564-1408.59-97.1704L-1409.5-92.7943ZM-1385.72-87.004C-1379.13-85.0586-1373.62-83.0459-1369.19-80.9725L-1367.29-85.0151C-1371.93-87.1936-1377.65-89.282-1384.44-91.2873L-1385.72-87.004ZM-1363.49-77.8954C-1357.06-73.8155-1355.04-69.9257-1356.7-65.8452L-1352.54-64.1664C-1349.93-70.5925-1353.02-76.5521-1361.09-81.6645L-1363.49-77.8954ZM-1360.02-61.1093C-1363.03-58.0108-1367.74-54.7293-1374.13-51.3044L-1372-47.37C-1365.24-50.9947-1360.17-54.5259-1356.8-58.0031L-1360.02-61.1093ZM-1380.25-48.2235C-1385.02-45.9624-1390.47-43.6496-1396.6-41.2863L-1394.99-37.1194C-1388.75-39.5214-1383.19-41.8781-1378.32-44.1906L-1380.25-48.2235ZM-1402.43-39.1033C-1407.63-37.2052-1413.25-35.2761-1419.31-33.3163L-1417.93-29.0672C-1411.82-31.0437-1406.14-32.9907-1400.88-34.9088L-1402.43-39.1033ZM-1425.75-31.2604C-1431.87-29.2972-1437.55-27.3749-1442.81-25.4935L-1441.29-21.2894C-1436.09-23.1533-1430.45-25.0596-1424.37-27.0081L-1425.75-31.2604ZM-1449.15-23.1616C-1455.43-20.7904-1461.01-18.4852-1465.87-16.2447L-1463.99-12.1898C-1459.23-14.3832-1453.75-16.6484-1447.56-18.9841L-1449.15-23.1616ZM-1472.01-13.2563C-1479.04-9.62711-1484.16-6.15536-1487.39-2.78596L-1484.14 0.29826C-1481.31-2.65365-1476.58-5.86812-1469.95-9.29004L-1472.01-13.2563ZM-1491.44 4.14456C-1492.66 10.1012-1488.15 15.0582-1478.76 19.1438L-1476.97 15.0501C-1484.64 11.7089-1487.72 8.32883-1487.04 5.03803L-1491.44 4.14456ZM-1472.46 21.5331C-1467.57 23.1642-1461.7 24.6926-1454.85 26.1219L-1453.93 21.7494C-1460.62 20.3534-1466.32 18.8678-1471.04 17.2965L-1472.46 21.5331ZM-1448.04 27.4522C-1442.62 28.4442-1436.68 29.3851-1430.22 30.2752L-1429.61 25.8498L-1433.8 25.2549C-1438.59 24.5524-1443.07 23.8202-1447.23 23.0583L-1448.04 27.4522ZM-1422.86 26.7376L-1423.42 31.1701L-1419.15 31.6915C-1417.7 31.8632-1416.23 32.0327-1414.74 32.2001L-1410.2 32.6959L-1405.53 33.1788L-1405.08 28.7339L-1409.73 28.2538L-1414.24 27.761C-1414.98 27.6778-1415.71 27.5941-1416.44 27.5099L-1420.75 26.9982C-1421.46 26.9119-1422.16 26.825-1422.86 26.7376ZM-1399.27 33.7866L-1396.81 34.014L-1391.8 34.4592C-1390.1 34.6055-1388.38 34.7497-1386.65 34.8917L-1381.36 35.3116L-1381.02 30.8574L-1383.66 30.6499L-1388.86 30.2254C-1389.71 30.1536-1390.56 30.0813-1391.41 30.0085L-1396.41 29.5651C-1397.23 29.4902-1398.04 29.4147-1398.85 29.3387L-1399.27 33.7866ZM-1374.62 35.8154L-1368.79 36.2241L-1362.81 36.619C-1360.8 36.7483-1358.76 36.8753-1356.69 37L-1356.42 32.5407L-1359.49 32.3524L-1365.52 31.9656C-1366.51 31.9-1367.5 31.8338-1368.48 31.767L-1374.3 31.3595L-1374.62 35.8154Z"/>
  </g>
  <g id="Regular-S" transform="matrix(1 0 0 1 1392.43 696)">
   <path d="M1476.57-108L1476.08-103.56L1482.15-102.877C1483.15-102.763 1484.15-102.648 1485.14-102.533L1490.99-101.835C1491.95-101.718 1492.91-101.6 1493.86-101.482L1494.41-105.916C1491.55-106.271 1488.63-106.622 1485.66-106.97L1479.64-107.659C1478.62-107.773 1477.6-107.887 1476.57-108ZM1500.54-100.634C1503.19-100.289 1505.79-99.9403 1508.33-99.5881L1513.36-98.879C1515.02-98.6411 1516.65-98.4016 1518.26-98.1605L1518.92-102.578L1514.01-103.3C1512.34-103.54 1510.66-103.777 1508.95-104.013L1503.76-104.716C1502.89-104.832 1502.01-104.948 1501.12-105.064L1500.54-100.634ZM1524.89-97.1373C1531.13-96.1457 1537-95.1285 1542.5-94.086L1543.33-98.4747C1541.26-98.8688 1539.12-99.2593 1536.94-99.6461L1532.51-100.415C1531.76-100.542 1531-100.669 1530.24-100.795L1525.59-101.549L1524.89-97.1373ZM1549.05-92.7943C1555.4-91.4961 1561.18-90.1605 1566.42-88.7878L1567.56-93.108C1562.24-94.5025 1556.38-95.8564 1549.96-97.1704L1549.05-92.7943ZM1572.83-87.004C1579.42-85.0586 1584.93-83.0459 1589.36-80.9725L1591.26-85.0151C1586.62-87.1936 1580.9-89.282 1574.11-91.2873L1572.83-87.004ZM1595.06-77.8954C1601.49-73.8155 1603.51-69.9257 1601.85-65.8452L1606.01-64.1664C1608.62-70.5925 1605.53-76.5521 1597.46-81.6645L1595.06-77.8954ZM1598.53-61.1093C1595.52-58.0108 1590.81-54.7293 1584.42-51.3044L1586.55-47.37C1593.31-50.9947 1598.38-54.5259 1601.75-58.0031L1598.53-61.1093ZM1578.3-48.2235C1573.53-45.9624 1568.08-43.6496 1561.95-41.2863L1563.56-37.1194C1569.8-39.5214 1575.36-41.8781 1580.23-44.1906L1578.3-48.2235ZM1556.12-39.1033C1550.92-37.2052 1545.3-35.2761 1539.24-33.3163L1540.62-29.0672C1546.73-31.0437 1552.41-32.9907 1557.67-34.9088L1556.12-39.1033ZM1532.8-31.2604C1526.68-29.2972 1521-27.3749 1515.74-25.4935L1517.26-21.2894C1522.46-23.1533 1528.1-25.0596 1534.18-27.0081L1532.8-31.2604ZM1509.4-23.1616C1503.12-20.7904 1497.54-18.4852 1492.68-16.2447L1494.56-12.1898C1499.32-14.3832 1504.8-16.6484 1510.99-18.9841L1509.4-23.1616ZM1486.54-13.2563C1479.51-9.62711 1474.39-6.15536 1471.16-2.78596L1474.41 0.29826C1477.24-2.65365 1481.97-5.86812 1488.6-9.29004L1486.54-13.2563ZM1467.11 4.14456C1465.89 10.1012 1470.4 15.0582 1479.79 19.1438L1481.58 15.0501C1473.91 11.7089 1470.83 8.32883 1471.51 5.03803L1467.11 4.14456ZM1486.09 21.5331C1490.98 23.1642 1496.85 24.6926 1503.7 26.1219L1504.62 21.7494C1497.93 20.3534 1492.23 18.8678 1487.51 17.2965L1486.09 21.5331ZM1510.51 27.4522C1515.93 28.4442 1521.87 29.3851 1528.33 30.2752L1528.94 25.8498L1524.75 25.2549C1519.96 24.5524 1515.48 23.8202 1511.32 23.0583L1510.51 27.4522ZM1535.69 26.7376L1535.13 31.1701L1539.4 31.6915C1540.85 31.8632 1542.32 32.0327 1543.81 32.2001L1548.35 32.6959L1553.02 33.1788L1553.47 28.7339L1548.82 28.2538L1544.31 27.761C1543.57 27.6778 1542.84 27.5941 1542.11 27.5099L1537.8 26.9982C1537.09 26.9119 1536.39 26.825 1535.69 26.7376ZM1559.28 33.7866L1561.74 34.014L1566.75 34.4592C1568.45 34.6055 1570.17 34.7497 1571.9 34.8917L1577.19 35.3116L1577.53 30.8574L1574.89 30.6499L1569.69 30.2254C1568.84 30.1536 1567.99 30.0813 1567.14 30.0085L1562.14 29.5651C1561.32 29.4902 1560.51 29.4147 1559.7 29.3387L1559.28 33.7866ZM1583.93 35.8154L1589.76 36.2241L1595.74 36.619C1597.75 36.7483 1599.79 36.8753 1601.86 37L1602.13 32.5407L1599.06 32.3524L1593.03 31.9656C1592.04 31.9 1591.05 31.8338 1590.07 31.767L1584.25 31.3595L1583.93 35.8154Z"/>
  </g>
  <g id="Ultralight-S" transform="matrix(1 0 0 1 502.288 696)">
   <path d="M10.709-108L10.2163-103.56L16.2916-102.877C17.2919-102.763 18.2859-102.648 19.2738-102.533L25.1273-101.835C26.0906-101.718 27.0476-101.6 27.9986-101.482L28.5529-105.916C25.6897-106.271 22.7711-106.622 19.7971-106.97L13.7753-107.659C12.7593-107.773 11.7372-107.887 10.709-108ZM34.6744-100.634C37.3249-100.289 39.9245-99.9403 42.473-99.5881L47.5019-98.879C49.1556-98.6411 50.7865-98.4016 52.3948-98.1605L53.0622-102.578L48.1444-103.3C46.4825-103.54 44.798-103.777 43.0908-104.013L37.9014-104.716C37.0252-104.832 36.1433-104.948 35.2557-105.064L34.6744-100.634ZM59.0253-97.1373C65.2654-96.1457 71.1348-95.1285 76.6332-94.086L77.472-98.4747C75.3931-98.8688 73.2622-99.2593 71.0794-99.6461L66.6444-100.415C65.8937-100.542 65.1372-100.669 64.3749-100.795L59.732-101.549L59.0253-97.1373ZM83.1917-92.7943C89.5341-91.4961 95.3216-90.1605 100.554-88.7878L101.696-93.108C96.3809-94.5025 90.514-95.8564 84.0946-97.1704L83.1917-92.7943ZM106.97-87.004C113.558-85.0586 119.068-83.0459 123.494-80.9725L125.403-85.0151C120.753-87.1936 115.036-89.282 108.244-91.2873L106.97-87.004ZM129.194-77.8954C135.631-73.8155 137.65-69.9257 135.989-65.8452L140.145-64.1664C142.761-70.5925 139.668-76.5521 131.602-81.6645L129.194-77.8954ZM132.668-61.1093C129.659-58.0108 124.952-54.7293 118.56-51.3044L120.684-47.37C127.449-50.9947 132.514-54.5259 135.892-58.0031L132.668-61.1093ZM112.436-48.2235C107.673-45.9624 102.222-43.6496 96.0854-41.2863L97.7027-37.1194C103.94-39.5214 109.494-41.8781 114.365-44.1906L112.436-48.2235ZM90.2607-39.1033C85.0619-37.2052 79.4335-35.2761 73.3756-33.3163L74.7612-29.0672C80.8703-31.0437 86.5513-32.9907 91.8043-34.9088L90.2607-39.1033ZM66.9383-31.2604C60.8193-29.2972 55.1332-27.3749 49.8794-25.4935L51.3968-21.2894C56.6017-23.1533 62.2407-25.0596 68.3135-27.0081L66.9383-31.2604ZM43.5336-23.1616C37.253-20.7904 31.6816-18.4852 26.8177-16.2447L28.7004-12.1898C33.462-14.3832 38.9369-16.6484 45.1233-18.9841L43.5336-23.1616ZM20.6758-13.2563C13.647-9.62711 8.52942-6.15536 5.30146-2.78596L8.54632 0.29826C11.3743-2.65365 16.1127-5.86812 22.7399-9.29004L20.6758-13.2563ZM1.24948 4.14456C0.0288438 10.1012 4.53825 15.0582 13.9252 19.1438L15.7211 15.0501C8.04452 11.7089 4.9697 8.32883 5.64405 5.03803L1.24948 4.14456ZM20.2291 21.5331C25.1224 23.1642 30.9896 24.6926 37.8356 26.1219L38.7558 21.7494C32.0692 20.3534 26.3664 18.8678 21.6524 17.2965L20.2291 21.5331ZM44.6454 27.4522C50.0651 28.4442 56.0043 29.3851 62.4637 30.2752L63.0783 25.8498L58.8914 25.2549C54.097 24.5524 49.6184 23.8202 45.456 23.0583L44.6454 27.4522ZM69.8307 26.7376L69.27 31.1701L73.5422 31.6915C74.9883 31.8632 76.4565 32.0327 77.9468 32.2001L82.4838 32.6959L87.1533 33.1788L87.604 28.7339L82.9615 28.2538L78.4517 27.761C77.7112 27.6778 76.9761 27.5941 76.2467 27.5099L71.9361 26.9982C71.2288 26.9119 70.527 26.825 69.8307 26.7376ZM93.4131 33.7866L95.8732 34.014L100.892 34.4592C102.587 34.6055 104.304 34.7497 106.043 34.8917L111.324 35.3116L111.672 30.8574L109.024 30.6499L103.829 30.2254C102.974 30.1536 102.124 30.0813 101.28 30.0085L96.2826 29.5651C95.4606 29.4902 94.6441 29.4147 93.8331 29.3387L93.4131 33.7866ZM118.069 35.8154L123.901 36.2241L129.876 36.619C131.892 36.7483 133.932 36.8753 135.996 37L136.267 32.5407L133.198 32.3524L127.168 31.9656C126.175 31.9 125.188 31.8338 124.207 31.767L118.393 31.3595L118.069 35.8154Z"/>
  </g>
 </g>
</svg>
