<?xml version="1.0" encoding="UTF-8"?>
<svg width="207px" height="434px" viewBox="0 0 207 434" version="1.1" xmlns="http://www.w3.org/2000/svg" xmlns:xlink="http://www.w3.org/1999/xlink">
    <title>Untitled 2</title>
    <g id="pen" stroke="none" stroke-width="1" fill="none" fill-rule="evenodd">
        <path d="M166.477403,7.5081024 C175.45203,7.5081024 183.57703,11.1457888 189.458373,17.027132 C195.339717,22.9084752 198.977403,31.0334752 198.977403,40.0081024 L198.977403,40.0081024 L198.977403,307.633208 C198.977403,315.008177 196.469077,322.163854 191.864479,327.924743 L191.864479,327.924743 L123.103477,413.95277 C117.500124,420.963218 109.585695,425.038779 101.319492,425.96089 C93.0532895,426.883002 84.4353132,424.651663 77.4248659,419.048311 C74.8812246,417.015214 72.6575743,414.611385 70.8284138,411.917361 L70.8284138,411.917361 L13.5894158,327.614621 C9.93251604,322.228666 7.97740308,315.868597 7.97740308,309.358495 L7.97740308,309.358495 L7.97740308,40.0081024 C7.97740308,31.0334752 11.6150895,22.9084752 17.4964327,17.027132 C23.3777759,11.1457888 31.5027759,7.5081024 40.4774031,7.5081024 L40.4774031,7.5081024 Z" id="Rectangle" stroke="#FFFFFF" stroke-width="15"></path>
        <line x1="30.176092" y1="239.709354" x2="176.27436" y2="345.888372" id="Line" stroke="#FFFFFF" stroke-width="12" fill="#D8D8D8" stroke-linecap="square" transform="translate(103.225226, 292.798863) rotate(-36.008319) translate(-103.225226, -292.798863) "></line>
    </g>
</svg>