<?xml version="1.0" encoding="UTF-8"?>
<!--Generator: Apple Native CoreSVG 175-->
<!DOCTYPE svg
PUBLIC "-//W3C//DTD SVG 1.1//EN"
       "http://www.w3.org/Graphics/SVG/1.1/DTD/svg11.dtd">
<svg version="1.1" xmlns="http://www.w3.org/2000/svg" xmlns:xlink="http://www.w3.org/1999/xlink" width="3300" height="2200">
 <!--glyph: "", point size: 100.0, font version: "17.3d3e1", template writer version: "65.1"-->
 <g id="Notes">
  <rect height="2200" id="artboard" style="fill:white;opacity:1" width="3300" x="0" y="0"/>
  <line style="fill:none;stroke:black;opacity:1;stroke-width:0.5;" x1="263" x2="3036" y1="292" y2="292"/>
  <text style="stroke:none;fill:black;font-family:sans-serif;font-size:13;font-weight:bold;" transform="matrix(1 0 0 1 263 322)">Weight/Scale Variations</text>
  <text style="stroke:none;fill:black;font-family:sans-serif;font-size:13;text-anchor:middle;" transform="matrix(1 0 0 1 559.711 322)">Ultralight</text>
  <text style="stroke:none;fill:black;font-family:sans-serif;font-size:13;text-anchor:middle;" transform="matrix(1 0 0 1 856.422 322)">Thin</text>
  <text style="stroke:none;fill:black;font-family:sans-serif;font-size:13;text-anchor:middle;" transform="matrix(1 0 0 1 1153.13 322)">Light</text>
  <text style="stroke:none;fill:black;font-family:sans-serif;font-size:13;text-anchor:middle;" transform="matrix(1 0 0 1 1449.84 322)">Regular</text>
  <text style="stroke:none;fill:black;font-family:sans-serif;font-size:13;text-anchor:middle;" transform="matrix(1 0 0 1 1746.56 322)">Medium</text>
  <text style="stroke:none;fill:black;font-family:sans-serif;font-size:13;text-anchor:middle;" transform="matrix(1 0 0 1 2043.27 322)">Semibold</text>
  <text style="stroke:none;fill:black;font-family:sans-serif;font-size:13;text-anchor:middle;" transform="matrix(1 0 0 1 2339.98 322)">Bold</text>
  <text style="stroke:none;fill:black;font-family:sans-serif;font-size:13;text-anchor:middle;" transform="matrix(1 0 0 1 2636.69 322)">Heavy</text>
  <text style="stroke:none;fill:black;font-family:sans-serif;font-size:13;text-anchor:middle;" transform="matrix(1 0 0 1 2933.4 322)">Black</text>
  <line style="fill:none;stroke:black;opacity:1;stroke-width:0.5;" x1="263" x2="3036" y1="1903" y2="1903"/>
  <g transform="matrix(1 0 0 1 263 1933)">
   <path d="M9.24805 0.830078Q10.8691 0.830078 12.2949 0.214844Q13.7207-0.400391 14.8096-1.49414Q15.8984-2.58789 16.5186-4.01367Q17.1387-5.43945 17.1387-7.05078Q17.1387-8.66211 16.5186-10.0879Q15.8984-11.5137 14.8047-12.6074Q13.7109-13.7012 12.2852-14.3164Q10.8594-14.9316 9.23828-14.9316Q7.62695-14.9316 6.20117-14.3164Q4.77539-13.7012 3.69141-12.6074Q2.60742-11.5137 1.9873-10.0879Q1.36719-8.66211 1.36719-7.05078Q1.36719-5.43945 1.9873-4.01367Q2.60742-2.58789 3.69629-1.49414Q4.78516-0.400391 6.21094 0.214844Q7.63672 0.830078 9.24805 0.830078ZM9.24805-0.654297Q7.91992-0.654297 6.7627-1.14746Q5.60547-1.64062 4.73145-2.51953Q3.85742-3.39844 3.36426-4.56055Q2.87109-5.72266 2.87109-7.05078Q2.87109-8.37891 3.35938-9.54102Q3.84766-10.7031 4.72168-11.582Q5.5957-12.4609 6.75293-12.9541Q7.91016-13.4473 9.23828-13.4473Q10.5762-13.4473 11.7334-12.9541Q12.8906-12.4609 13.7695-11.582Q14.6484-10.7031 15.1465-9.54102Q15.6445-8.37891 15.6445-7.05078Q15.6445-5.72266 15.1514-4.56055Q14.6582-3.39844 13.7842-2.51953Q12.9102-1.64062 11.748-1.14746Q10.5859-0.654297 9.24805-0.654297ZM5.6543-7.05078Q5.6543-6.72852 5.85938-6.52832Q6.06445-6.32812 6.40625-6.32812L8.51562-6.32812L8.51562-4.20898Q8.51562-3.88672 8.71094-3.67676Q8.90625-3.4668 9.23828-3.4668Q9.56055-3.4668 9.77051-3.67676Q9.98047-3.88672 9.98047-4.20898L9.98047-6.32812L12.0898-6.32812Q12.4219-6.32812 12.627-6.52832Q12.832-6.72852 12.832-7.05078Q12.832-7.38281 12.627-7.58789Q12.4219-7.79297 12.0898-7.79297L9.98047-7.79297L9.98047-9.90234Q9.98047-10.2344 9.77051-10.4443Q9.56055-10.6543 9.23828-10.6543Q8.90625-10.6543 8.71094-10.4443Q8.51562-10.2344 8.51562-9.90234L8.51562-7.79297L6.40625-7.79297Q6.06445-7.79297 5.85938-7.58789Q5.6543-7.38281 5.6543-7.05078Z"/>
  </g>
  <g transform="matrix(1 0 0 1 281.867 1933)">
   <path d="M11.709 2.91016Q13.75 2.91016 15.5518 2.12891Q17.3535 1.34766 18.7305-0.0292969Q20.1074-1.40625 20.8887-3.20801Q21.6699-5.00977 21.6699-7.05078Q21.6699-9.0918 20.8887-10.8936Q20.1074-12.6953 18.7305-14.0723Q17.3535-15.4492 15.5469-16.2305Q13.7402-17.0117 11.6992-17.0117Q9.6582-17.0117 7.85645-16.2305Q6.05469-15.4492 4.68262-14.0723Q3.31055-12.6953 2.5293-10.8936Q1.74805-9.0918 1.74805-7.05078Q1.74805-5.00977 2.5293-3.20801Q3.31055-1.40625 4.6875-0.0292969Q6.06445 1.34766 7.86621 2.12891Q9.66797 2.91016 11.709 2.91016ZM11.709 1.25Q9.98047 1.25 8.47656 0.605469Q6.97266-0.0390625 5.83496-1.17676Q4.69727-2.31445 4.05762-3.81836Q3.41797-5.32227 3.41797-7.05078Q3.41797-8.7793 4.05762-10.2832Q4.69727-11.7871 5.83008-12.9297Q6.96289-14.0723 8.4668-14.7119Q9.9707-15.3516 11.6992-15.3516Q13.4277-15.3516 14.9316-14.7119Q16.4355-14.0723 17.5781-12.9297Q18.7207-11.7871 19.3652-10.2832Q20.0098-8.7793 20.0098-7.05078Q20.0098-5.32227 19.3701-3.81836Q18.7305-2.31445 17.5928-1.17676Q16.4551-0.0390625 14.9463 0.605469Q13.4375 1.25 11.709 1.25ZM7.17773-7.05078Q7.17773-6.69922 7.41211-6.47461Q7.64648-6.25 8.01758-6.25L10.8887-6.25L10.8887-3.36914Q10.8887-2.99805 11.1133-2.76855Q11.3379-2.53906 11.6895-2.53906Q12.0605-2.53906 12.29-2.76855Q12.5195-2.99805 12.5195-3.36914L12.5195-6.25L15.4004-6.25Q15.7715-6.25 16.001-6.47461Q16.2305-6.69922 16.2305-7.05078Q16.2305-7.42188 16.001-7.65137Q15.7715-7.88086 15.4004-7.88086L12.5195-7.88086L12.5195-10.752Q12.5195-11.1328 12.29-11.3623Q12.0605-11.5918 11.6895-11.5918Q11.3379-11.5918 11.1133-11.3574Q10.8887-11.123 10.8887-10.752L10.8887-7.88086L8.01758-7.88086Q7.63672-7.88086 7.40723-7.65137Q7.17773-7.42188 7.17773-7.05078Z"/>
  </g>
  <g transform="matrix(1 0 0 1 305.646 1933)">
   <path d="M14.9707 5.66406Q17.0605 5.66406 18.96 5.01465Q20.8594 4.36523 22.4512 3.19336Q24.043 2.02148 25.2197 0.429688Q26.3965-1.16211 27.0459-3.06641Q27.6953-4.9707 27.6953-7.05078Q27.6953-9.14062 27.0459-11.04Q26.3965-12.9395 25.2197-14.5312Q24.043-16.123 22.4512-17.2998Q20.8594-18.4766 18.9551-19.126Q17.0508-19.7754 14.9609-19.7754Q12.8711-19.7754 10.9717-19.126Q9.07227-18.4766 7.48535-17.2998Q5.89844-16.123 4.72168-14.5312Q3.54492-12.9395 2.90039-11.04Q2.25586-9.14062 2.25586-7.05078Q2.25586-4.9707 2.90527-3.06641Q3.55469-1.16211 4.72656 0.429688Q5.89844 2.02148 7.49023 3.19336Q9.08203 4.36523 10.9814 5.01465Q12.8809 5.66406 14.9707 5.66406ZM14.9707 3.84766Q13.1641 3.84766 11.5283 3.2959Q9.89258 2.74414 8.53516 1.74805Q7.17773 0.751953 6.17676-0.610352Q5.17578-1.97266 4.62891-3.6084Q4.08203-5.24414 4.08203-7.05078Q4.08203-8.86719 4.62891-10.5029Q5.17578-12.1387 6.17188-13.501Q7.16797-14.8633 8.52539-15.8594Q9.88281-16.8555 11.5186-17.4023Q13.1543-17.9492 14.9609-17.9492Q16.7773-17.9492 18.4131-17.4023Q20.0488-16.8555 21.4111-15.8594Q22.7734-14.8633 23.7695-13.501Q24.7656-12.1387 25.3174-10.5029Q25.8691-8.86719 25.8691-7.05078Q25.8789-5.24414 25.332-3.6084Q24.7852-1.97266 23.7842-0.610352Q22.7832 0.751953 21.4209 1.74805Q20.0586 2.74414 18.4229 3.2959Q16.7871 3.84766 14.9707 3.84766ZM9.19922-7.05078Q9.19922-6.66992 9.45801-6.4209Q9.7168-6.17188 10.1172-6.17188L14.0625-6.17188L14.0625-2.2168Q14.0625-1.81641 14.3115-1.55762Q14.5605-1.29883 14.9512-1.29883Q15.3516-1.29883 15.6104-1.55273Q15.8691-1.80664 15.8691-2.2168L15.8691-6.17188L19.8242-6.17188Q20.2246-6.17188 20.4785-6.4209Q20.7324-6.66992 20.7324-7.05078Q20.7324-7.46094 20.4785-7.71484Q20.2246-7.96875 19.8242-7.96875L15.8691-7.96875L15.8691-11.9141Q15.8691-12.3242 15.6104-12.583Q15.3516-12.8418 14.9512-12.8418Q14.5605-12.8418 14.3115-12.583Q14.0625-12.3242 14.0625-11.9141L14.0625-7.96875L10.1172-7.96875Q9.70703-7.96875 9.45312-7.71484Q9.19922-7.46094 9.19922-7.05078Z"/>
  </g>
  <text style="stroke:none;fill:black;font-family:sans-serif;font-size:13;font-weight:bold;" transform="matrix(1 0 0 1 263 1953)">Design Variations</text>
  <text style="stroke:none;fill:black;font-family:sans-serif;font-size:13;" transform="matrix(1 0 0 1 263 1971)">Symbols are supported in up to nine weights and three scales.</text>
  <text style="stroke:none;fill:black;font-family:sans-serif;font-size:13;" transform="matrix(1 0 0 1 263 1989)">For optimal layout with text and other symbols, vertically align</text>
  <text style="stroke:none;fill:black;font-family:sans-serif;font-size:13;" transform="matrix(1 0 0 1 263 2007)">symbols with the adjacent text.</text>
  <line style="fill:none;stroke:#00AEEF;stroke-width:0.5;opacity:1.0;" x1="776" x2="776" y1="1919" y2="1933"/>
  <g transform="matrix(1 0 0 1 776 1933)">
   <path d="M3.31055 0.15625Q3.70117 0.15625 3.91602-0.00976562Q4.13086-0.175781 4.26758-0.585938L5.52734-4.0332L11.2891-4.0332L12.5488-0.585938Q12.6855-0.175781 12.9004-0.00976562Q13.1152 0.15625 13.4961 0.15625Q13.8867 0.15625 14.1162-0.0585938Q14.3457-0.273438 14.3457-0.644531Q14.3457-0.869141 14.2383-1.17188L9.6582-13.3691Q9.48242-13.8184 9.17969-14.043Q8.87695-14.2676 8.4082-14.2676Q7.5-14.2676 7.17773-13.3789L2.59766-1.16211Q2.49023-0.859375 2.49023-0.634766Q2.49023-0.263672 2.70996-0.0537109Q2.92969 0.15625 3.31055 0.15625ZM6.00586-5.51758L8.37891-12.0898L8.42773-12.0898L10.8008-5.51758Z"/>
  </g>
  <line style="fill:none;stroke:#00AEEF;stroke-width:0.5;opacity:1.0;" x1="793.197" x2="793.197" y1="1919" y2="1933"/>
  <text style="stroke:none;fill:black;font-family:sans-serif;font-size:13;font-weight:bold;" transform="matrix(1 0 0 1 776 1953)">Margins</text>
  <text style="stroke:none;fill:black;font-family:sans-serif;font-size:13;" transform="matrix(1 0 0 1 776 1971)">Leading and trailing margins on the left and right side of each symbol</text>
  <text style="stroke:none;fill:black;font-family:sans-serif;font-size:13;" transform="matrix(1 0 0 1 776 1989)">can be adjusted by modifying the x-location of the margin guidelines.</text>
  <text style="stroke:none;fill:black;font-family:sans-serif;font-size:13;" transform="matrix(1 0 0 1 776 2007)">Modifications are automatically applied proportionally to all</text>
  <text style="stroke:none;fill:black;font-family:sans-serif;font-size:13;" transform="matrix(1 0 0 1 776 2025)">scales and weights.</text>
  <g transform="matrix(1 0 0 1 1289 1933)">
   <path d="M2.8418 1.86523L4.54102 3.57422Q5.18555 4.22852 5.90332 4.17969Q6.62109 4.13086 7.31445 3.35938L18.0078-8.42773L17.041-9.4043L6.42578 2.27539Q6.16211 2.57812 5.89355 2.61719Q5.625 2.65625 5.27344 2.30469L4.10156 1.14258Q3.75 0.791016 3.79395 0.522461Q3.83789 0.253906 4.14062-0.0195312L15.6152-10.8203L14.6387-11.7871L3.04688-0.898438Q2.30469-0.214844 2.25098 0.498047Q2.19727 1.21094 2.8418 1.86523ZM9.25781-16.3281Q8.94531-16.0254 8.90625-15.6348Q8.86719-15.2441 9.04297-14.9512Q9.21875-14.6777 9.55566-14.541Q9.89258-14.4043 10.3809-14.5215Q11.4746-14.7754 12.5977-14.7314Q13.7207-14.6875 14.7949-13.9844L14.209-12.5293Q13.9551-11.9043 14.0674-11.4404Q14.1797-10.9766 14.5801-10.5664L16.875-8.25195Q17.2363-7.88086 17.5781-7.82227Q17.9199-7.76367 18.3398-7.8418L19.4043-8.03711L20.0684-7.36328L20.0293-6.80664Q20-6.43555 20.1221-6.12305Q20.2441-5.81055 20.6055-5.44922L21.3672-4.70703Q21.7285-4.3457 22.1533-4.33105Q22.5781-4.31641 22.9297-4.66797L25.8398-7.58789Q26.1914-7.93945 26.1816-8.35449Q26.1719-8.76953 25.8105-9.13086L25.0391-9.89258Q24.6875-10.2539 24.3799-10.3857Q24.0723-10.5176 23.7109-10.4883L23.1348-10.4395L22.4902-11.0742L22.7344-12.1973Q22.832-12.6172 22.6953-12.9834Q22.5586-13.3496 22.1191-13.7891L19.9219-15.9766Q18.6719-17.2168 17.2607-17.8369Q15.8496-18.457 14.4189-18.4814Q12.9883-18.5059 11.665-17.959Q10.3418-17.4121 9.25781-16.3281ZM10.752-15.957Q11.6602-16.6211 12.7002-16.9043Q13.7402-17.1875 14.8047-17.085Q15.8691-16.9824 16.8701-16.5137Q17.8711-16.0449 18.7012-15.2051L21.1328-12.793Q21.3086-12.6172 21.3525-12.4512Q21.3965-12.2852 21.3379-12.0312L21.0156-10.5469L22.5195-9.0625L23.5059-9.12109Q23.6914-9.13086 23.7891-9.09668Q23.8867-9.0625 24.0332-8.91602L24.6094-8.33984L22.168-5.89844L21.5918-6.47461Q21.4453-6.62109 21.4062-6.71875Q21.3672-6.81641 21.377-7.01172L21.4453-7.98828L19.9512-9.47266L18.4277-9.21875Q18.1836-9.16992 18.042-9.2041Q17.9004-9.23828 17.7148-9.41406L15.7129-11.416Q15.5176-11.5918 15.4932-11.7529Q15.4688-11.9141 15.5859-12.1875L16.4648-14.2773Q15.293-15.3711 13.8281-15.791Q12.3633-16.2109 10.8398-15.7617Q10.7227-15.7324 10.6885-15.8057Q10.6543-15.8789 10.752-15.957Z"/>
  </g>
  <text style="stroke:none;fill:black;font-family:sans-serif;font-size:13;font-weight:bold;" transform="matrix(1 0 0 1 1289 1953)">Exporting</text>
  <text style="stroke:none;fill:black;font-family:sans-serif;font-size:13;" transform="matrix(1 0 0 1 1289 1971)">Symbols should be outlined when exporting to ensure the</text>
  <text style="stroke:none;fill:black;font-family:sans-serif;font-size:13;" transform="matrix(1 0 0 1 1289 1989)">design is preserved when submitting to Xcode.</text>
  <text id="template-version" style="stroke:none;fill:black;font-family:sans-serif;font-size:13;text-anchor:end;" transform="matrix(1 0 0 1 3036 1933)">Template v.3.0</text>
  <text style="stroke:none;fill:black;font-family:sans-serif;font-size:13;text-anchor:end;" transform="matrix(1 0 0 1 3036 1951)">Requires Xcode 13 or greater</text>
  <text id="descriptive-name" style="stroke:none;fill:black;font-family:sans-serif;font-size:13;text-anchor:end;" transform="matrix(1 0 0 1 3036 1969)">Generated from dottedLine</text>
  <text style="stroke:none;fill:black;font-family:sans-serif;font-size:13;text-anchor:end;" transform="matrix(1 0 0 1 3036 1987)">Typeset at 100 points</text>
  <text style="stroke:none;fill:black;font-family:sans-serif;font-size:13;" transform="matrix(1 0 0 1 263 726)">Small</text>
  <text style="stroke:none;fill:black;font-family:sans-serif;font-size:13;" transform="matrix(1 0 0 1 263 1156)">Medium</text>
  <text style="stroke:none;fill:black;font-family:sans-serif;font-size:13;" transform="matrix(1 0 0 1 263 1586)">Large</text>
 </g>
 <g id="Guides">
  <g id="H-reference" style="fill:#27AAE1;stroke:none;" transform="matrix(1 0 0 1 339 696)">
   <path d="M0.993347 0L3.6377 0L29.3282-67.1326L30.0301-67.1326L30.0301-70.459L28.1227-70.459ZM11.6882-24.4797L46.9818-24.4797L46.2311-26.7288L12.4382-26.7288ZM55.1193 0L57.7637 0L30.6381-70.459L29.4327-70.459L29.4327-67.1326Z"/>
  </g>
  <line id="Baseline-S" style="fill:none;stroke:#27AAE1;opacity:1;stroke-width:0.5;" x1="263" x2="3036" y1="696" y2="696"/>
  <line id="Capline-S" style="fill:none;stroke:#27AAE1;opacity:1;stroke-width:0.5;" x1="263" x2="3036" y1="625.541" y2="625.541"/>
  <g id="H-reference" style="fill:#27AAE1;stroke:none;" transform="matrix(1 0 0 1 339 1126)">
   <path d="M0.993347 0L3.6377 0L29.3282-67.1326L30.0301-67.1326L30.0301-70.459L28.1227-70.459ZM11.6882-24.4797L46.9818-24.4797L46.2311-26.7288L12.4382-26.7288ZM55.1193 0L57.7637 0L30.6381-70.459L29.4327-70.459L29.4327-67.1326Z"/>
  </g>
  <line id="Baseline-M" style="fill:none;stroke:#27AAE1;opacity:1;stroke-width:0.5;" x1="263" x2="3036" y1="1126" y2="1126"/>
  <line id="Capline-M" style="fill:none;stroke:#27AAE1;opacity:1;stroke-width:0.5;" x1="263" x2="3036" y1="1055.54" y2="1055.54"/>
  <g id="H-reference" style="fill:#27AAE1;stroke:none;" transform="matrix(1 0 0 1 339 1556)">
   <path d="M0.993347 0L3.6377 0L29.3282-67.1326L30.0301-67.1326L30.0301-70.459L28.1227-70.459ZM11.6882-24.4797L46.9818-24.4797L46.2311-26.7288L12.4382-26.7288ZM55.1193 0L57.7637 0L30.6381-70.459L29.4327-70.459L29.4327-67.1326Z"/>
  </g>
  <line id="Baseline-L" style="fill:none;stroke:#27AAE1;opacity:1;stroke-width:0.5;" x1="263" x2="3036" y1="1556" y2="1556"/>
  <line id="Capline-L" style="fill:none;stroke:#27AAE1;opacity:1;stroke-width:0.5;" x1="263" x2="3036" y1="1485.54" y2="1485.54"/>
  <line id="left-margin-Ultralight-S" style="fill:none;stroke:#FF3B30;stroke-width:0.5;opacity:1.0;" x1="501.23" x2="501.23" y1="600.784" y2="720.121"/>
  <line id="right-margin-Ultralight-S" style="fill:none;stroke:#FF3B30;stroke-width:0.5;opacity:1.0;" x1="618.192" x2="618.192" y1="600.784" y2="720.121"/>
  <line id="left-margin-Regular-S" style="fill:none;stroke:#00AEEF;stroke-width:0.5;opacity:1.0;" x1="1391.37" x2="1391.37" y1="600.784" y2="720.121"/>
  <line id="right-margin-Regular-S" style="fill:none;stroke:#FF3B30;stroke-width:0.5;opacity:1.0;" x1="1508.32" x2="1508.32" y1="600.784" y2="720.121"/>
  <line id="left-margin-Black-S" style="fill:none;stroke:#FF3B30;stroke-width:0.5;opacity:1.0;" x1="2874.92" x2="2874.92" y1="600.784" y2="720.121"/>
  <line id="right-margin-Black-S" style="fill:none;stroke:#00AEEF;stroke-width:0.5;opacity:1.0;" x1="2991.88" x2="2991.88" y1="600.784" y2="720.121"/>
 </g>
 <g id="Symbols">
  <g id="Black-S" transform="matrix(1 0 0 1 2874.92 696)">
   <path d="M-1490.16-105.838L-1487.86-105.585C-1486.59-105.445-1485.45-106.356-1485.31-107.62C-1485.17-108.883-1486.08-110.021-1487.35-110.16L-1489.65-110.413C-1490.92-110.553-1492.06-109.642-1492.2-108.378C-1492.34-107.115-1491.43-105.977-1490.16-105.838ZM-1478.68-104.529L-1476.39-104.257C-1475.12-104.107-1473.97-105.008-1473.82-106.27C-1473.67-107.533-1474.57-108.678-1475.84-108.828L-1478.14-109.1C-1479.41-109.25-1480.56-108.348-1480.71-107.086C-1480.86-105.824-1479.95-104.679-1478.68-104.529ZM-1467.24-103.12L-1464.94-102.826C-1463.68-102.664-1462.52-103.555-1462.36-104.816C-1462.19-106.076-1463.09-107.23-1464.35-107.392L-1466.65-107.685C-1467.91-107.848-1469.07-106.957-1469.24-105.696C-1469.4-104.435-1468.5-103.282-1467.24-103.12ZM-1455.81-101.595L-1453.52-101.276C-1452.26-101.1-1451.09-101.978-1450.91-103.236C-1450.74-104.495-1451.62-105.659-1452.88-105.835L-1455.17-106.154C-1456.44-106.33-1457.61-105.452-1457.78-104.193C-1457.96-102.934-1457.08-101.771-1455.81-101.595ZM-1444.39-99.9301L-1442.11-99.5812C-1440.85-99.3885-1439.67-100.251-1439.47-101.507C-1439.28-102.764-1440.15-103.938-1441.41-104.131L-1443.69-104.48C-1444.96-104.673-1446.14-103.811-1446.33-102.554C-1446.52-101.298-1445.66-100.123-1444.39-99.9301ZM-1433.02-98.1033L-1430.74-97.7181C-1429.48-97.5053-1428.28-98.3487-1428.07-99.6019C-1427.86-100.855-1428.7-102.043-1429.96-102.256L-1432.24-102.642C-1433.5-102.854-1434.7-102.011-1434.91-100.758C-1435.12-99.5045-1434.28-98.3161-1433.02-98.1033ZM-1421.7-96.0791L-1419.43-95.6488C-1418.17-95.4111-1416.96-96.2307-1416.72-97.4794C-1416.48-98.7281-1417.31-99.9331-1418.56-100.171L-1420.83-100.601C-1422.09-100.839-1423.3-100.019-1423.54-98.7705C-1423.78-97.5218-1422.95-96.3168-1421.7-96.0791ZM-1410.41-93.7961L-1408.15-93.3075C-1406.9-93.0377-1405.67-93.826-1405.4-95.0681C-1405.13-96.3103-1405.92-97.536-1407.17-97.8058L-1409.43-98.2943C-1410.67-98.5642-1411.9-97.7759-1412.18-96.5338C-1412.45-95.2916-1411.65-94.0659-1410.41-93.7961ZM-1399.25-91.19L-1397.01-90.623C-1395.77-90.3099-1394.51-91.0548-1394.2-92.2867C-1393.88-93.5187-1394.63-94.7712-1395.87-95.0843L-1398.11-95.6513C-1399.34-95.9644-1400.6-95.2195-1400.92-93.9876C-1401.23-92.7556-1400.48-91.5031-1399.25-91.19ZM-1388.22-88.1181L-1386.01-87.437C-1384.79-87.0609-1383.49-87.7402-1383.12-88.9544C-1382.74-90.1686-1383.42-91.4579-1384.64-91.834L-1386.85-92.5151C-1388.07-92.8912-1389.36-92.2119-1389.74-90.9976C-1390.12-89.7834-1389.44-88.4942-1388.22-88.1181ZM-1377.49-84.3545L-1375.35-83.4879C-1374.17-83.0093-1372.82-83.5759-1372.34-84.7535C-1371.86-85.9311-1372.43-87.2737-1373.61-87.7523L-1375.75-88.6189C-1376.94-89.0976-1378.28-88.5309-1378.76-87.3534C-1379.25-86.1758-1378.68-84.8332-1377.49-84.3545ZM-1367.5-79.3945L-1365.55-78.1588C-1364.47-77.4764-1363.04-77.7926-1362.35-78.865C-1361.67-79.9374-1361.99-81.36-1363.06-82.0424L-1365.01-83.278C-1366.09-83.9605-1367.52-83.6443-1368.21-82.5719C-1368.89-81.4995-1368.57-80.0769-1367.5-79.3945ZM-1360.44-72.3019L-1359.55-70.1764C-1359.06-69.0026-1357.71-68.4464-1356.53-68.9341C-1355.35-69.4218-1354.79-70.7688-1355.28-71.9426L-1356.17-74.068C-1356.66-75.2419-1358.01-75.7981-1359.19-75.3104C-1360.37-74.8227-1360.93-73.4757-1360.44-72.3019ZM-1362.5-63.6893L-1363.95-61.8914C-1364.74-60.8985-1364.58-59.4502-1363.58-58.6566C-1362.59-57.8629-1361.13-58.0245-1360.33-59.0174L-1358.89-60.8153C-1358.09-61.8082-1358.26-63.2565-1359.25-64.0501C-1360.25-64.8438-1361.71-64.6822-1362.5-63.6893ZM-1370.8-56.5431L-1372.72-55.2586C-1373.78-54.5492-1374.06-53.1191-1373.35-52.0643C-1372.64-51.0095-1371.2-50.7296-1370.14-51.4389L-1368.22-52.7234C-1367.16-53.4328-1366.88-54.863-1367.6-55.9177C-1368.31-56.9725-1369.75-57.2525-1370.8-56.5431ZM-1380.65-50.8495L-1382.71-49.798C-1383.85-49.2173-1384.29-47.8299-1383.71-46.6992C-1383.13-45.5685-1381.73-45.1226-1380.6-45.7033L-1378.54-46.7547C-1377.4-47.3355-1376.96-48.7228-1377.54-49.8536C-1378.12-50.9843-1379.52-51.4302-1380.65-50.8495ZM-1390.78-46.0995L-1392.9-45.179C-1394.07-44.6706-1394.6-43.3141-1394.09-42.149C-1393.58-40.984-1392.22-40.4516-1391.05-40.96L-1388.93-41.8805C-1387.76-42.3889-1387.22-43.7455-1387.73-44.9105C-1388.25-46.0756-1389.61-46.6079-1390.78-46.0995ZM-1401.17-41.8511L-1403.33-41.0179C-1404.52-40.5578-1405.11-39.2242-1404.64-38.0393C-1404.18-36.8544-1402.84-36.2668-1401.65-36.7269L-1399.5-37.5601C-1398.31-38.0202-1397.72-39.3538-1398.18-40.5387C-1398.64-41.7236-1399.98-42.3112-1401.17-41.8511ZM-1411.97-37.8708L-1414.15-37.1022C-1415.35-36.6777-1415.98-35.3623-1415.55-34.1642C-1415.13-32.966-1413.81-32.3388-1412.6-32.7633L-1410.42-33.5319C-1409.22-33.9563-1408.59-35.2717-1409.02-36.4699C-1409.44-37.6681-1410.76-38.2953-1411.97-37.8708ZM-1422.87-34.1687L-1425.07-33.4493C-1426.28-33.052-1426.94-31.7511-1426.54-30.5437C-1426.14-29.3362-1424.83-28.6795-1423.62-29.0768L-1421.43-29.7962C-1420.21-30.1935-1419.55-31.4944-1419.95-32.7019C-1420.35-33.9093-1421.66-34.5661-1422.87-34.1687ZM-1433.89-30.6302L-1436.09-29.9169C-1437.3-29.5229-1437.97-28.2239-1437.57-27.0153C-1437.18-25.8068-1435.87-25.1464-1434.66-25.5403L-1432.46-26.2536C-1431.24-26.6476-1430.58-27.9467-1430.98-29.1552C-1431.37-30.3638-1432.68-31.0241-1433.89-30.6302ZM-1444.88-26.9467L-1447.06-26.1893C-1448.27-25.771-1448.91-24.4588-1448.49-23.2585C-1448.07-22.0582-1446.75-21.4242-1445.54-21.8425L-1443.36-22.5999C-1442.15-23.0182-1441.52-24.3304-1441.94-25.5307C-1442.36-26.7311-1443.67-27.365-1444.88-26.9467ZM-1455.81-22.9987L-1457.97-22.1829C-1459.16-21.7324-1459.77-20.4036-1459.31-19.215C-1458.86-18.0264-1457.53-17.4281-1456.33-17.8786L-1454.17-18.6943C-1452.98-19.1449-1452.38-20.4736-1452.83-21.6623C-1453.28-22.8509-1454.61-23.4492-1455.81-22.9987ZM-1466.62-18.6972L-1468.75-17.7995C-1469.92-17.3038-1470.47-15.953-1469.98-14.7826C-1469.48-13.6121-1468.12-13.0651-1466.95-13.5609L-1464.82-14.4585C-1463.64-14.9543-1463.09-16.3051-1463.59-17.4755C-1464.09-18.646-1465.44-19.193-1466.62-18.6972ZM-1477.27-13.8544L-1479.34-12.8298C-1480.49-12.264-1480.95-10.8826-1480.38-9.74431C-1479.82-8.60607-1478.43-8.14205-1477.28-8.70789L-1475.21-9.73245C-1474.07-10.2983-1473.6-11.6797-1474.17-12.818C-1474.74-13.9562-1476.13-14.4202-1477.27-13.8544ZM-1487.58-8.0851L-1489.52-6.82866C-1490.59-6.13474-1490.89-4.70885-1490.2-3.64383C-1489.5-2.57882-1488.07-2.27798-1487-2.9719L-1485.06-4.22834C-1483.99-4.92226-1483.69-6.34815-1484.38-7.41317C-1485.08-8.47818-1486.51-8.77902-1487.58-8.0851ZM-1496.92-0.0222108L-1498.31 1.81879C-1499.08 2.83555-1498.87 4.27823-1497.85 5.0411C-1496.83 5.80398-1495.38 5.59817-1494.61 4.58141L-1493.22 2.74041C-1492.46 1.72365-1492.66 0.280971-1493.69-0.481905C-1494.71-1.24478-1496.16-1.03897-1496.92-0.0222108ZM-1497.08 13.4471L-1495.6 15.2198C-1494.79 16.1988-1493.33 16.3352-1492.35 15.5244C-1491.36 14.7136-1491.23 13.2627-1492.04 12.2837L-1493.52 10.5111C-1494.33 9.5321-1495.79 9.39571-1496.77 10.2065C-1497.75 11.0172-1497.89 12.4681-1497.08 13.4471ZM-1486.58 20.4855L-1484.46 21.4164C-1483.29 21.9306-1481.93 21.405-1481.41 20.2424C-1480.9 19.0799-1481.42 17.7207-1482.59 17.2066L-1484.71 16.2757C-1485.87 15.7615-1487.24 16.2871-1487.75 17.4497C-1488.27 18.6122-1487.74 19.9714-1486.58 20.4855ZM-1475.3 24.4581L-1473.08 25.0991C-1471.85 25.4532-1470.57 24.7505-1470.21 23.5296C-1469.86 22.3088-1470.56 21.0321-1471.79 20.6781L-1474.01 20.0371C-1475.24 19.6831-1476.52 20.3858-1476.87 21.6066C-1477.23 22.8275-1476.52 24.1041-1475.3 24.4581ZM-1463.87 27.3139L-1461.62 27.8068C-1460.37 28.079-1459.14 27.2932-1458.86 26.0515C-1458.59 24.8099-1459.38 23.5827-1460.62 23.3104L-1462.88 22.8175C-1464.13 22.5453-1465.36 23.3311-1465.64 24.5728C-1465.91 25.8144-1465.12 27.0416-1463.87 27.3139ZM-1452.36 29.565L-1450.08 29.9653C-1448.83 30.1863-1447.63 29.3508-1447.4 28.099C-1447.18 26.8473-1448.02 25.6533-1449.28 25.4322L-1451.56 25.032C-1452.81 24.8109-1454.01 25.6465-1454.23 26.8982C-1454.46 28.15-1453.62 29.3439-1452.36 29.565ZM-1440.82 31.4165L-1438.54 31.7523C-1437.27 31.9378-1436.1 31.0687-1435.91 29.8112C-1435.72 28.5536-1436.6 27.3839-1437.86 27.1984L-1440.15 26.8626C-1441.41 26.6772-1442.59 27.5462-1442.77 28.8038C-1442.96 30.0613-1442.09 31.2311-1440.82 31.4165ZM-1429.28 32.9827L-1426.98 33.2704C-1425.72 33.4293-1424.56 32.5358-1424.4 31.2746C-1424.24 30.0134-1425.14 28.8622-1426.4 28.7033L-1428.7 28.4156C-1429.96 28.2567-1431.12 29.1503-1431.28 30.4114C-1431.44 31.6726-1430.54 32.8238-1429.28 32.9827ZM-1418.24 34.2754L-1415.95 34.527C-1414.68 34.666-1413.53 33.7544-1413.39 32.4909C-1413.26 31.2274-1414.17 30.0904-1415.44 29.9515L-1417.74 29.6998C-1419.01 29.5608-1420.15 30.4724-1420.29 31.7359C-1420.43 32.9994-1419.51 34.1364-1418.24 34.2754ZM-1406.7 35.459L-1404.4 35.68C-1403.13 35.8021-1402 34.8753-1401.88 33.6101C-1401.75 32.3448-1402.69 31.2202-1403.96 31.0981L-1406.26 30.8771C-1407.53 30.755-1408.66 31.6818-1408.78 32.947C-1408.9 34.2123-1407.97 35.3369-1406.7 35.459ZM-1395.16 36.5016L-1392.85 36.6972C-1391.58 36.8052-1390.46 35.8661-1390.35 34.5995C-1390.24 33.333-1391.19 32.2187-1392.46 32.1107L-1394.76 31.9151C-1396.04 31.807-1397.16 32.7462-1397.26 34.0127C-1397.37 35.2793-1396.43 36.3936-1395.16 36.5016ZM-1383.59 37.4282L-1381.28 37.6022C-1380.01 37.6983-1378.9 36.7488-1378.8 35.4813C-1378.7 34.2138-1379.66 33.1084-1380.93 33.0122L-1383.24 32.8382C-1384.51 32.7421-1385.62 33.6917-1385.72 34.9592C-1385.81 36.2266-1384.86 37.3321-1383.59 37.4282ZM-1372.03 38.2525L-1369.73 38.408C-1368.45 38.4939-1367.35 37.5354-1367.26 36.2672C-1367.18 34.999-1368.14 33.9013-1369.41 33.8154L-1371.72 33.6599C-1373 33.574-1374.1 34.5324-1374.18 35.8007C-1374.27 37.0689-1373.31 38.1666-1372.03 38.2525ZM-1360.48 38.9902L-1358.17 39.1295C-1356.89 39.2065-1355.8 38.2403-1355.72 36.9715C-1355.64 35.7027-1356.61 34.6118-1357.89 34.5348L-1360.2 34.3955C-1361.47 34.3185-1362.57 35.2847-1362.64 36.5535C-1362.72 37.8223-1361.75 38.9132-1360.48 38.9902Z"/>
  </g>
  <g id="Regular-S" transform="matrix(1 0 0 1 1391.37 696)">
   <path d="M1474.39-105.838L1476.69-105.585C1477.96-105.445 1479.1-106.356 1479.24-107.62C1479.38-108.883 1478.47-110.021 1477.2-110.16L1474.9-110.413C1473.63-110.553 1472.49-109.642 1472.35-108.378C1472.21-107.115 1473.12-105.977 1474.39-105.838ZM1485.87-104.529L1488.16-104.257C1489.43-104.107 1490.58-105.008 1490.73-106.27C1490.88-107.533 1489.98-108.678 1488.71-108.828L1486.41-109.1C1485.14-109.25 1483.99-108.348 1483.84-107.086C1483.69-105.824 1484.6-104.679 1485.87-104.529ZM1497.31-103.12L1499.61-102.826C1500.87-102.664 1502.03-103.555 1502.19-104.816C1502.36-106.076 1501.46-107.23 1500.2-107.392L1497.9-107.685C1496.64-107.848 1495.48-106.957 1495.31-105.696C1495.15-104.435 1496.05-103.282 1497.31-103.12ZM1508.74-101.595L1511.03-101.276C1512.29-101.1 1513.46-101.978 1513.64-103.236C1513.81-104.495 1512.93-105.659 1511.67-105.835L1509.38-106.154C1508.11-106.33 1506.94-105.452 1506.77-104.193C1506.59-102.934 1507.47-101.771 1508.74-101.595ZM1520.16-99.9301L1522.44-99.5812C1523.7-99.3885 1524.88-100.251 1525.08-101.507C1525.27-102.764 1524.4-103.938 1523.14-104.131L1520.86-104.48C1519.59-104.673 1518.41-103.811 1518.22-102.554C1518.03-101.298 1518.89-100.123 1520.16-99.9301ZM1531.53-98.1033L1533.81-97.7181C1535.07-97.5053 1536.27-98.3487 1536.48-99.6019C1536.69-100.855 1535.85-102.043 1534.59-102.256L1532.31-102.642C1531.05-102.854 1529.85-102.011 1529.64-100.758C1529.43-99.5045 1530.27-98.3161 1531.53-98.1033ZM1542.85-96.0791L1545.12-95.6488C1546.38-95.4111 1547.59-96.2307 1547.83-97.4794C1548.07-98.7281 1547.24-99.9331 1545.99-100.171L1543.72-100.601C1542.46-100.839 1541.25-100.019 1541.01-98.7705C1540.77-97.5218 1541.6-96.3168 1542.85-96.0791ZM1554.14-93.7961L1556.4-93.3075C1557.65-93.0377 1558.88-93.826 1559.15-95.0681C1559.42-96.3103 1558.63-97.536 1557.38-97.8058L1555.12-98.2943C1553.88-98.5642 1552.65-97.7759 1552.37-96.5338C1552.1-95.2916 1552.9-94.0659 1554.14-93.7961ZM1565.3-91.19L1567.54-90.623C1568.78-90.3099 1570.04-91.0548 1570.35-92.2867C1570.67-93.5187 1569.92-94.7712 1568.68-95.0843L1566.44-95.6513C1565.21-95.9644 1563.95-95.2195 1563.63-93.9876C1563.32-92.7556 1564.07-91.5031 1565.3-91.19ZM1576.33-88.1181L1578.54-87.437C1579.76-87.0609 1581.06-87.7402 1581.43-88.9544C1581.81-90.1686 1581.13-91.4579 1579.91-91.834L1577.7-92.5151C1576.48-92.8912 1575.19-92.2119 1574.81-90.9976C1574.43-89.7834 1575.11-88.4942 1576.33-88.1181ZM1587.06-84.3545L1589.2-83.4879C1590.38-83.0093 1591.73-83.5759 1592.21-84.7535C1592.69-85.9311 1592.12-87.2737 1590.94-87.7523L1588.8-88.6189C1587.61-89.0976 1586.27-88.5309 1585.79-87.3534C1585.3-86.1758 1585.87-84.8332 1587.06-84.3545ZM1597.05-79.3945L1599-78.1588C1600.08-77.4764 1601.51-77.7926 1602.2-78.865C1602.88-79.9374 1602.56-81.36 1601.49-82.0424L1599.54-83.278C1598.46-83.9605 1597.03-83.6443 1596.34-82.5719C1595.66-81.4995 1595.98-80.0769 1597.05-79.3945ZM1604.11-72.3019L1605-70.1764C1605.49-69.0026 1606.84-68.4464 1608.02-68.9341C1609.2-69.4218 1609.76-70.7688 1609.27-71.9426L1608.38-74.068C1607.89-75.2419 1606.54-75.7981 1605.36-75.3104C1604.18-74.8227 1603.62-73.4757 1604.11-72.3019ZM1602.05-63.6893L1600.6-61.8914C1599.81-60.8985 1599.97-59.4502 1600.97-58.6566C1601.96-57.8629 1603.42-58.0245 1604.22-59.0174L1605.66-60.8153C1606.46-61.8082 1606.29-63.2565 1605.3-64.0501C1604.3-64.8438 1602.84-64.6822 1602.05-63.6893ZM1593.75-56.5431L1591.83-55.2586C1590.77-54.5492 1590.49-53.1191 1591.2-52.0643C1591.91-51.0095 1593.35-50.7296 1594.41-51.4389L1596.33-52.7234C1597.39-53.4328 1597.67-54.863 1596.95-55.9177C1596.24-56.9725 1594.8-57.2525 1593.75-56.5431ZM1583.9-50.8495L1581.84-49.798C1580.7-49.2173 1580.26-47.8299 1580.84-46.6992C1581.42-45.5685 1582.82-45.1226 1583.95-45.7033L1586.01-46.7547C1587.15-47.3355 1587.59-48.7228 1587.01-49.8536C1586.43-50.9843 1585.03-51.4302 1583.9-50.8495ZM1573.77-46.0995L1571.65-45.179C1570.48-44.6706 1569.95-43.3141 1570.46-42.149C1570.97-40.984 1572.33-40.4516 1573.5-40.96L1575.62-41.8805C1576.79-42.3889 1577.33-43.7455 1576.82-44.9105C1576.3-46.0756 1574.94-46.6079 1573.77-46.0995ZM1563.38-41.8511L1561.22-41.0179C1560.03-40.5578 1559.44-39.2242 1559.91-38.0393C1560.37-36.8544 1561.71-36.2668 1562.9-36.7269L1565.05-37.5601C1566.24-38.0202 1566.83-39.3538 1566.37-40.5387C1565.91-41.7236 1564.57-42.3112 1563.38-41.8511ZM1552.58-37.8708L1550.4-37.1022C1549.2-36.6777 1548.57-35.3623 1549-34.1642C1549.42-32.966 1550.74-32.3388 1551.95-32.7633L1554.13-33.5319C1555.33-33.9563 1555.96-35.2717 1555.53-36.4699C1555.11-37.6681 1553.79-38.2953 1552.58-37.8708ZM1541.68-34.1687L1539.48-33.4493C1538.27-33.052 1537.61-31.7511 1538.01-30.5437C1538.41-29.3362 1539.72-28.6795 1540.93-29.0768L1543.12-29.7962C1544.34-30.1935 1545-31.4944 1544.6-32.7019C1544.2-33.9093 1542.89-34.5661 1541.68-34.1687ZM1530.66-30.6302L1528.46-29.9169C1527.25-29.5229 1526.58-28.2239 1526.98-27.0153C1527.37-25.8068 1528.68-25.1464 1529.89-25.5403L1532.09-26.2536C1533.31-26.6476 1533.97-27.9467 1533.57-29.1552C1533.18-30.3638 1531.87-31.0241 1530.66-30.6302ZM1519.67-26.9467L1517.49-26.1893C1516.28-25.771 1515.64-24.4588 1516.06-23.2585C1516.48-22.0582 1517.8-21.4242 1519.01-21.8425L1521.19-22.5999C1522.4-23.0182 1523.03-24.3304 1522.61-25.5307C1522.19-26.7311 1520.88-27.365 1519.67-26.9467ZM1508.74-22.9987L1506.58-22.1829C1505.39-21.7324 1504.78-20.4036 1505.24-19.215C1505.69-18.0264 1507.02-17.4281 1508.22-17.8786L1510.38-18.6943C1511.57-19.1449 1512.17-20.4736 1511.72-21.6623C1511.27-22.8509 1509.94-23.4492 1508.74-22.9987ZM1497.93-18.6972L1495.8-17.7995C1494.63-17.3038 1494.08-15.953 1494.57-14.7826C1495.07-13.6121 1496.43-13.0651 1497.6-13.5609L1499.73-14.4585C1500.91-14.9543 1501.46-16.3051 1500.96-17.4755C1500.46-18.646 1499.11-19.193 1497.93-18.6972ZM1487.28-13.8544L1485.21-12.8298C1484.06-12.264 1483.6-10.8826 1484.17-9.74431C1484.73-8.60607 1486.12-8.14205 1487.27-8.70789L1489.34-9.73245C1490.48-10.2983 1490.95-11.6797 1490.38-12.818C1489.81-13.9562 1488.42-14.4202 1487.28-13.8544ZM1476.97-8.0851L1475.03-6.82866C1473.96-6.13474 1473.66-4.70885 1474.35-3.64383C1475.05-2.57882 1476.48-2.27798 1477.55-2.9719L1479.49-4.22834C1480.56-4.92226 1480.86-6.34815 1480.17-7.41317C1479.47-8.47818 1478.04-8.77902 1476.97-8.0851ZM1467.63-0.0222108L1466.24 1.81879C1465.47 2.83555 1465.68 4.27823 1466.7 5.0411C1467.72 5.80398 1469.17 5.59817 1469.94 4.58141L1471.33 2.74041C1472.09 1.72365 1471.89 0.280971 1470.86-0.481905C1469.84-1.24478 1468.39-1.03897 1467.63-0.0222108ZM1467.47 13.4471L1468.95 15.2198C1469.76 16.1988 1471.22 16.3352 1472.2 15.5244C1473.19 14.7136 1473.32 13.2627 1472.51 12.2837L1471.03 10.5111C1470.22 9.5321 1468.76 9.39571 1467.78 10.2065C1466.8 11.0172 1466.66 12.4681 1467.47 13.4471ZM1477.97 20.4855L1480.09 21.4164C1481.26 21.9306 1482.62 21.405 1483.14 20.2424C1483.65 19.0799 1483.13 17.7207 1481.96 17.2066L1479.84 16.2757C1478.68 15.7615 1477.31 16.2871 1476.8 17.4497C1476.28 18.6122 1476.81 19.9714 1477.97 20.4855ZM1489.25 24.4581L1491.47 25.0991C1492.7 25.4532 1493.98 24.7505 1494.34 23.5296C1494.69 22.3088 1493.99 21.0321 1492.76 20.6781L1490.54 20.0371C1489.31 19.6831 1488.03 20.3858 1487.68 21.6066C1487.32 22.8275 1488.03 24.1041 1489.25 24.4581ZM1500.68 27.3139L1502.93 27.8068C1504.18 28.079 1505.41 27.2932 1505.69 26.0515C1505.96 24.8099 1505.17 23.5827 1503.93 23.3104L1501.67 22.8175C1500.42 22.5453 1499.19 23.3311 1498.91 24.5728C1498.64 25.8144 1499.43 27.0416 1500.68 27.3139ZM1512.19 29.565L1514.47 29.9653C1515.72 30.1863 1516.92 29.3508 1517.15 28.099C1517.37 26.8473 1516.53 25.6533 1515.27 25.4322L1512.99 25.032C1511.74 24.8109 1510.54 25.6465 1510.32 26.8982C1510.09 28.15 1510.93 29.3439 1512.19 29.565ZM1523.73 31.4165L1526.01 31.7523C1527.28 31.9378 1528.45 31.0687 1528.64 29.8112C1528.83 28.5536 1527.95 27.3839 1526.69 27.1984L1524.4 26.8626C1523.14 26.6772 1521.96 27.5462 1521.78 28.8038C1521.59 30.0613 1522.46 31.2311 1523.73 31.4165ZM1535.27 32.9827L1537.57 33.2704C1538.83 33.4293 1539.99 32.5358 1540.15 31.2746C1540.31 30.0134 1539.41 28.8622 1538.15 28.7033L1535.85 28.4156C1534.59 28.2567 1533.43 29.1503 1533.27 30.4114C1533.11 31.6726 1534.01 32.8238 1535.27 32.9827ZM1546.31 34.2754L1548.6 34.527C1549.87 34.666 1551.02 33.7544 1551.16 32.4909C1551.29 31.2274 1550.38 30.0904 1549.11 29.9515L1546.81 29.6998C1545.54 29.5608 1544.4 30.4724 1544.26 31.7359C1544.12 32.9994 1545.04 34.1364 1546.31 34.2754ZM1557.85 35.459L1560.15 35.68C1561.42 35.8021 1562.55 34.8753 1562.67 33.6101C1562.8 32.3448 1561.86 31.2202 1560.59 31.0981L1558.29 30.8771C1557.02 30.755 1555.89 31.6818 1555.77 32.947C1555.65 34.2123 1556.58 35.3369 1557.85 35.459ZM1569.39 36.5016L1571.7 36.6972C1572.97 36.8052 1574.09 35.8661 1574.2 34.5995C1574.31 33.333 1573.36 32.2187 1572.09 32.1107L1569.79 31.9151C1568.51 31.807 1567.39 32.7462 1567.29 34.0127C1567.18 35.2793 1568.12 36.3936 1569.39 36.5016ZM1580.96 37.4282L1583.27 37.6022C1584.54 37.6983 1585.65 36.7488 1585.75 35.4813C1585.85 34.2138 1584.89 33.1084 1583.62 33.0122L1581.31 32.8382C1580.04 32.7421 1578.93 33.6917 1578.83 34.9592C1578.74 36.2266 1579.69 37.3321 1580.96 37.4282ZM1592.52 38.2525L1594.82 38.408C1596.1 38.4939 1597.2 37.5354 1597.29 36.2672C1597.37 34.999 1596.41 33.9013 1595.14 33.8154L1592.83 33.6599C1591.55 33.574 1590.45 34.5324 1590.37 35.8007C1590.28 37.0689 1591.24 38.1666 1592.52 38.2525ZM1604.07 38.9902L1606.38 39.1295C1607.66 39.2065 1608.75 38.2403 1608.83 36.9715C1608.91 35.7027 1607.94 34.6118 1606.66 34.5348L1604.35 34.3955C1603.08 34.3185 1601.98 35.2847 1601.91 36.5535C1601.83 37.8223 1602.8 38.9132 1604.07 38.9902Z"/>
  </g>
  <g id="Ultralight-S" transform="matrix(1 0 0 1 501.23 696)">
   <path d="M-6.46945-105.838L-4.17144-105.585C-2.90228-105.445-1.75972-106.356-1.61945-107.62C-1.47919-108.883-2.39433-110.021-3.66349-110.16L-5.9615-110.413C-7.23066-110.553-8.37322-109.642-8.51348-108.378C-8.65375-107.115-7.7386-105.977-6.46945-105.838ZM5.00477-104.529L7.3006-104.257C8.56855-104.107 9.71866-105.008 9.86945-106.27C10.0202-107.533 9.1146-108.678 7.84665-108.828L5.55082-109.1C4.28287-109.25 3.13276-108.348 2.98197-107.086C2.83119-105.824 3.73682-104.679 5.00477-104.529ZM16.4502-103.12L18.7433-102.826C20.0097-102.664 21.1684-103.555 21.3313-104.816C21.4941-106.076 20.5995-107.23 19.333-107.392L17.0399-107.685C15.7735-107.848 14.6148-106.957 14.4519-105.696C14.2891-104.435 15.1837-103.282 16.4502-103.12ZM27.8741-101.595L30.1638-101.276C31.4283-101.1 32.5969-101.978 32.7738-103.236C32.9507-104.495 32.069-105.659 30.8044-105.835L28.5147-106.154C27.2502-106.33 26.0816-105.452 25.9047-104.193C25.7278-102.934 26.6095-101.771 27.8741-101.595ZM39.2941-99.9301L41.5793-99.5812C42.8415-99.3885 44.0215-100.251 44.2151-101.507C44.4087-102.764 43.5425-103.938 42.2804-104.131L39.9951-104.48C38.733-104.673 37.5529-103.811 37.3593-102.554C37.1657-101.298 38.0319-100.123 39.2941-99.9301ZM50.671-98.1033L52.9504-97.7181C54.2092-97.5053 55.403-98.3487 55.6168-99.6019C55.8305-100.855 54.9833-102.043 53.7244-102.256L51.445-102.642C50.1862-102.854 48.9924-102.011 48.7786-100.758C48.5649-99.5045 49.4121-98.3161 50.671-98.1033ZM61.9899-96.0791L64.2612-95.6488C65.5155-95.4111 66.7259-96.2307 66.9647-97.4794C67.2034-98.7281 66.3801-99.9331 65.1258-100.171L62.8545-100.601C61.6002-100.839 60.3898-100.019 60.151-98.7705C59.9123-97.5218 60.7356-96.3168 61.9899-96.0791ZM73.2811-93.7961L75.5404-93.3075C76.7882-93.0377 78.0195-93.826 78.2905-95.0681C78.5615-96.3103 77.7697-97.536 76.5219-97.8058L74.2626-98.2943C73.0148-98.5642 71.7836-97.7759 71.5125-96.5338C71.2415-95.2916 72.0333-94.0659 73.2811-93.7961ZM84.4416-91.19L86.6824-90.623C87.9199-90.3099 89.1781-91.0548 89.4927-92.2867C89.8072-93.5187 89.059-94.7712 87.8214-95.0843L85.5807-95.6513C84.3432-95.9644 83.0849-95.2195 82.7704-93.9876C82.4559-92.7556 83.2041-91.5031 84.4416-91.19ZM95.4718-88.1181L97.6803-87.437C98.9-87.0609 100.195-87.7402 100.573-88.9544C100.951-90.1686 100.268-91.4579 99.0486-91.834L96.8401-92.5151C95.6204-92.8912 94.3254-92.2119 93.9475-90.9976C93.5697-89.7834 94.2521-88.4942 95.4718-88.1181ZM106.194-84.3545L108.336-83.4879C109.519-83.0093 110.868-83.5759 111.349-84.7535C111.829-85.9311 111.26-87.2737 110.077-87.7523L107.935-88.6189C106.753-89.0976 105.404-88.5309 104.923-87.3534C104.442-86.1758 105.011-84.8332 106.194-84.3545ZM116.191-79.3945L118.141-78.1588C119.219-77.4764 120.648-77.7926 121.333-78.865C122.019-79.9374 121.701-81.36 120.624-82.0424L118.673-83.278C117.596-83.9605 116.167-83.6443 115.481-82.5719C114.796-81.4995 115.114-80.0769 116.191-79.3945ZM123.252-72.3019L124.139-70.1764C124.629-69.0026 125.982-68.4464 127.161-68.9341C128.34-69.4218 128.899-70.7688 128.409-71.9426L127.522-74.068C127.032-75.2419 125.679-75.7981 124.5-75.3104C123.321-74.8227 122.762-73.4757 123.252-72.3019ZM121.185-63.6893L119.742-61.8914C118.944-60.8985 119.107-59.4502 120.104-58.6566C121.101-57.8629 122.556-58.0245 123.354-59.0174L124.797-60.8153C125.594-61.8082 125.432-63.2565 124.435-64.0501C123.437-64.8438 121.982-64.6822 121.185-63.6893ZM112.883-56.5431L110.965-55.2586C109.905-54.5492 109.624-53.1191 110.337-52.0643C111.049-51.0095 112.486-50.7296 113.545-51.4389L115.464-52.7234C116.523-53.4328 116.805-54.863 116.092-55.9177C115.379-56.9725 113.943-57.2525 112.883-56.5431ZM103.035-50.8495L100.978-49.798C99.8425-49.2173 99.3946-47.8299 99.978-46.6992C100.561-45.5685 101.955-45.1226 103.091-45.7033L105.147-46.7547C106.283-47.3355 106.731-48.7228 106.148-49.8536C105.565-50.9843 104.171-51.4302 103.035-50.8495ZM92.9097-46.0995L90.7906-45.179C89.6203-44.6706 89.0856-43.3141 89.5963-42.149C90.107-40.984 91.4697-40.4516 92.64-40.96L94.759-41.8805C95.9293-42.3889 96.4641-43.7455 95.9534-44.9105C95.4427-46.0756 94.08-46.6079 92.9097-46.0995ZM82.517-41.8511L80.3618-41.0179C79.1715-40.5578 78.5813-39.2242 79.0435-38.0393C79.5057-36.8544 80.8453-36.2668 82.0356-36.7269L84.1908-37.5601C85.3811-38.0202 85.9713-39.3538 85.5091-40.5387C85.0469-41.7236 83.7073-42.3112 82.517-41.8511ZM71.7204-37.8708L69.5411-37.1022C68.3375-36.6777 67.7075-35.3623 68.1339-34.1642C68.5603-32.966 69.8816-32.3388 71.0852-32.7633L73.2645-33.5319C74.4681-33.9563 75.0981-35.2717 74.6717-36.4699C74.2453-37.6681 72.924-38.2953 71.7204-37.8708ZM60.8173-34.1687L58.6211-33.4493C57.4082-33.052 56.7485-31.7511 57.1476-30.5437C57.5467-29.3362 58.8535-28.6795 60.0664-29.0768L62.2626-29.7962C63.4755-30.1935 64.1352-31.4944 63.7361-32.7019C63.337-33.9093 62.0302-34.5661 60.8173-34.1687ZM49.7968-30.6302L47.5987-29.9169C46.3846-29.5229 45.7213-28.2239 46.117-27.0153C46.5127-25.8068 47.8177-25.1464 49.0317-25.5403L51.2299-26.2536C52.4439-26.6476 53.1072-27.9467 52.7115-29.1552C52.3158-30.3638 51.0108-31.0241 49.7968-30.6302ZM38.8075-26.9467L36.6243-26.1893C35.4185-25.771 34.7817-24.4588 35.2019-23.2585C35.6221-22.0582 36.9402-21.4242 38.146-21.8425L40.3292-22.5999C41.535-23.0182 42.1718-24.3304 41.7516-25.5307C41.3314-26.7311 40.0133-27.365 38.8075-26.9467ZM27.8791-22.9987L25.7172-22.1829C24.5232-21.7324 23.9221-20.4036 24.3747-19.215C24.8272-18.0264 26.162-17.4281 27.356-17.8786L29.5179-18.6943C30.7119-19.1449 31.313-20.4736 30.8604-21.6623C30.4079-22.8509 29.0731-23.4492 27.8791-22.9987ZM17.0681-18.6972L14.9392-17.7995C13.7634-17.3038 13.214-15.953 13.712-14.7826C14.21-13.6121 15.5669-13.0651 16.7426-13.5609L18.8715-14.4585C20.0473-14.9543 20.5967-16.3051 20.0987-17.4755C19.6007-18.646 18.2438-19.193 17.0681-18.6972ZM6.41529-13.8544L4.345-12.8298C3.2016-12.264 2.73548-10.8826 3.30389-9.74431C3.87229-8.60607 5.25998-8.14205 6.40337-8.70789L8.47367-9.73245C9.61706-10.2983 10.0832-11.6797 9.51478-12.818C8.94637-13.9562 7.55869-14.4202 6.41529-13.8544ZM-3.89522-8.0851L-5.83232-6.82866C-6.90216-6.13474-7.20435-4.70885-6.5073-3.64383C-5.81024-2.57882-4.3779-2.27798-3.30806-2.9719L-1.37096-4.22834C-0.301123-4.92226 0.00107441-6.34815-0.69598-7.41317C-1.39304-8.47818-2.82538-8.77902-3.89522-8.0851ZM-13.2343-0.0222108L-14.6219 1.81879C-15.3882 2.83555-15.1814 4.27823-14.1601 5.0411C-13.1387 5.80398-11.6895 5.59817-10.9232 4.58141L-9.53564 2.74041C-8.76931 1.72365-8.97605 0.280971-9.99741-0.481905C-11.0188-1.24478-12.468-1.03897-13.2343-0.0222108ZM-13.3886 13.4471L-11.914 15.2198C-11.0995 16.1988-9.64209 16.3352-8.65866 15.5244C-7.67523 14.7136-7.53822 13.2627-8.35265 12.2837L-9.8273 10.5111C-10.6417 9.5321-12.0992 9.39571-13.0826 10.2065C-14.066 11.0172-14.2031 12.4681-13.3886 13.4471ZM-2.8875 20.4855L-0.773061 21.4164C0.394712 21.9306 1.76006 21.405 2.27652 20.2424C2.79298 19.0799 2.26499 17.7207 1.09722 17.2066L-1.01722 16.2757C-2.185 15.7615-3.55034 16.2871-4.0668 17.4497C-4.58327 18.6122-4.05528 19.9714-2.8875 20.4855ZM8.38991 24.4581L10.6104 25.0991C11.8368 25.4532 13.1192 24.7505 13.4749 23.5296C13.8305 22.3088 13.1246 21.0321 11.8982 20.6781L9.67771 20.0371C8.45134 19.6831 7.16889 20.3858 6.81328 21.6066C6.45766 22.8275 7.16354 24.1041 8.38991 24.4581ZM19.8145 27.3139L22.0729 27.8068C23.3201 28.079 24.5529 27.2932 24.8264 26.0515C25.0998 24.8099 24.3104 23.5827 23.0632 23.3104L20.8048 22.8175C19.5575 22.5453 18.3248 23.3311 18.0513 24.5728C17.7778 25.8144 18.5672 27.0416 19.8145 27.3139ZM31.3287 29.565L33.6055 29.9653C34.8629 30.1863 36.0623 29.3508 36.2844 28.099C36.5064 26.8473 35.6671 25.6533 34.4097 25.4322L32.1329 25.032C30.8755 24.8109 29.6761 25.6465 29.454 26.8982C29.232 28.15 30.0713 29.3439 31.3287 29.565ZM42.865 31.4165L45.1523 31.7523C46.4155 31.9378 47.5906 31.0687 47.7769 29.8112C47.9632 28.5536 47.0902 27.3839 45.8269 27.1984L43.5397 26.8626C42.2765 26.6772 41.1014 27.5462 40.9151 28.8038C40.7288 30.0613 41.6018 31.2311 42.865 31.4165ZM54.412 32.9827L56.7059 33.2704C57.9728 33.4293 59.1292 32.5358 59.2888 31.2746C59.4484 30.0134 58.5508 28.8622 57.2839 28.7033L54.9901 28.4156C53.7232 28.2567 52.5668 29.1503 52.4072 30.4114C52.2476 31.6726 53.1452 32.8238 54.412 32.9827ZM65.4442 34.2754L67.7423 34.527C69.0115 34.666 70.1536 33.7544 70.2932 32.4909C70.4329 31.2274 69.5171 30.0904 68.2479 29.9515L65.9498 29.6998C64.6805 29.5608 63.5384 30.4724 63.3988 31.7359C63.2592 32.9994 64.1749 34.1364 65.4442 34.2754ZM76.9864 35.459L79.2877 35.68C80.5587 35.8021 81.6884 34.8753 81.8111 33.6101C81.9337 32.3448 81.0028 31.2202 79.7318 31.0981L77.4305 30.8771C76.1595 30.755 75.0297 31.6818 74.9071 32.947C74.7845 34.2123 75.7154 35.3369 76.9864 35.459ZM88.531 36.5016L90.8346 36.6972C92.1069 36.8052 93.2262 35.8661 93.3347 34.5995C93.4432 33.333 92.4998 32.2187 91.2276 32.1107L88.9239 31.9151C87.6517 31.807 86.5323 32.7462 86.4238 34.0127C86.3153 35.2793 87.2587 36.3936 88.531 36.5016ZM100.102 37.4282L102.408 37.6022C103.681 37.6983 104.791 36.7488 104.888 35.4813C104.985 34.2138 104.031 33.1084 102.757 33.0122L100.452 32.8382C99.1789 32.7421 98.0684 33.6917 97.9719 34.9592C97.8753 36.2266 98.8292 37.3321 100.102 37.4282ZM111.654 38.2525L113.961 38.408C115.235 38.4939 116.338 37.5354 116.424 36.2672C116.51 34.999 115.547 33.9013 114.273 33.8154L111.967 33.6599C110.693 33.574 109.59 34.5324 109.504 35.8007C109.418 37.0689 110.38 38.1666 111.654 38.2525ZM123.213 38.9902L125.521 39.1295C126.795 39.2065 127.891 38.2403 127.968 36.9715C128.046 35.7027 127.075 34.6118 125.801 34.5348L123.493 34.3955C122.218 34.3185 121.122 35.2847 121.045 36.5535C120.968 37.8223 121.938 38.9132 123.213 38.9902Z"/>
  </g>
 </g>
</svg>
