<?xml version="1.0" encoding="UTF-8"?>
<!--Generator: Apple Native CoreSVG 175-->
<!DOCTYPE svg
PUBLIC "-//W3C//DTD SVG 1.1//EN"
       "http://www.w3.org/Graphics/SVG/1.1/DTD/svg11.dtd">
<svg version="1.1" xmlns="http://www.w3.org/2000/svg" xmlns:xlink="http://www.w3.org/1999/xlink" width="3300" height="2200">
 <!--glyph: "", point size: 100.0, font version: "17.3d3e1", template writer version: "65.1"-->
 <g id="Notes">
  <rect height="2200" id="artboard" style="fill:white;opacity:1" width="3300" x="0" y="0"/>
  <line style="fill:none;stroke:black;opacity:1;stroke-width:0.5;" x1="263" x2="3036" y1="292" y2="292"/>
  <text style="stroke:none;fill:black;font-family:sans-serif;font-size:13;font-weight:bold;" transform="matrix(1 0 0 1 263 322)">Weight/Scale Variations</text>
  <text style="stroke:none;fill:black;font-family:sans-serif;font-size:13;text-anchor:middle;" transform="matrix(1 0 0 1 559.711 322)">Ultralight</text>
  <text style="stroke:none;fill:black;font-family:sans-serif;font-size:13;text-anchor:middle;" transform="matrix(1 0 0 1 856.422 322)">Thin</text>
  <text style="stroke:none;fill:black;font-family:sans-serif;font-size:13;text-anchor:middle;" transform="matrix(1 0 0 1 1153.13 322)">Light</text>
  <text style="stroke:none;fill:black;font-family:sans-serif;font-size:13;text-anchor:middle;" transform="matrix(1 0 0 1 1449.84 322)">Regular</text>
  <text style="stroke:none;fill:black;font-family:sans-serif;font-size:13;text-anchor:middle;" transform="matrix(1 0 0 1 1746.56 322)">Medium</text>
  <text style="stroke:none;fill:black;font-family:sans-serif;font-size:13;text-anchor:middle;" transform="matrix(1 0 0 1 2043.27 322)">Semibold</text>
  <text style="stroke:none;fill:black;font-family:sans-serif;font-size:13;text-anchor:middle;" transform="matrix(1 0 0 1 2339.98 322)">Bold</text>
  <text style="stroke:none;fill:black;font-family:sans-serif;font-size:13;text-anchor:middle;" transform="matrix(1 0 0 1 2636.69 322)">Heavy</text>
  <text style="stroke:none;fill:black;font-family:sans-serif;font-size:13;text-anchor:middle;" transform="matrix(1 0 0 1 2933.4 322)">Black</text>
  <line style="fill:none;stroke:black;opacity:1;stroke-width:0.5;" x1="263" x2="3036" y1="1903" y2="1903"/>
  <g transform="matrix(1 0 0 1 263 1933)">
   <path d="M9.24805 0.830078Q10.8691 0.830078 12.2949 0.214844Q13.7207-0.400391 14.8096-1.49414Q15.8984-2.58789 16.5186-4.01367Q17.1387-5.43945 17.1387-7.05078Q17.1387-8.66211 16.5186-10.0879Q15.8984-11.5137 14.8047-12.6074Q13.7109-13.7012 12.2852-14.3164Q10.8594-14.9316 9.23828-14.9316Q7.62695-14.9316 6.20117-14.3164Q4.77539-13.7012 3.69141-12.6074Q2.60742-11.5137 1.9873-10.0879Q1.36719-8.66211 1.36719-7.05078Q1.36719-5.43945 1.9873-4.01367Q2.60742-2.58789 3.69629-1.49414Q4.78516-0.400391 6.21094 0.214844Q7.63672 0.830078 9.24805 0.830078ZM9.24805-0.654297Q7.91992-0.654297 6.7627-1.14746Q5.60547-1.64062 4.73145-2.51953Q3.85742-3.39844 3.36426-4.56055Q2.87109-5.72266 2.87109-7.05078Q2.87109-8.37891 3.35938-9.54102Q3.84766-10.7031 4.72168-11.582Q5.5957-12.4609 6.75293-12.9541Q7.91016-13.4473 9.23828-13.4473Q10.5762-13.4473 11.7334-12.9541Q12.8906-12.4609 13.7695-11.582Q14.6484-10.7031 15.1465-9.54102Q15.6445-8.37891 15.6445-7.05078Q15.6445-5.72266 15.1514-4.56055Q14.6582-3.39844 13.7842-2.51953Q12.9102-1.64062 11.748-1.14746Q10.5859-0.654297 9.24805-0.654297ZM5.6543-7.05078Q5.6543-6.72852 5.85938-6.52832Q6.06445-6.32812 6.40625-6.32812L8.51562-6.32812L8.51562-4.20898Q8.51562-3.88672 8.71094-3.67676Q8.90625-3.4668 9.23828-3.4668Q9.56055-3.4668 9.77051-3.67676Q9.98047-3.88672 9.98047-4.20898L9.98047-6.32812L12.0898-6.32812Q12.4219-6.32812 12.627-6.52832Q12.832-6.72852 12.832-7.05078Q12.832-7.38281 12.627-7.58789Q12.4219-7.79297 12.0898-7.79297L9.98047-7.79297L9.98047-9.90234Q9.98047-10.2344 9.77051-10.4443Q9.56055-10.6543 9.23828-10.6543Q8.90625-10.6543 8.71094-10.4443Q8.51562-10.2344 8.51562-9.90234L8.51562-7.79297L6.40625-7.79297Q6.06445-7.79297 5.85938-7.58789Q5.6543-7.38281 5.6543-7.05078Z"/>
  </g>
  <g transform="matrix(1 0 0 1 281.867 1933)">
   <path d="M11.709 2.91016Q13.75 2.91016 15.5518 2.12891Q17.3535 1.34766 18.7305-0.0292969Q20.1074-1.40625 20.8887-3.20801Q21.6699-5.00977 21.6699-7.05078Q21.6699-9.0918 20.8887-10.8936Q20.1074-12.6953 18.7305-14.0723Q17.3535-15.4492 15.5469-16.2305Q13.7402-17.0117 11.6992-17.0117Q9.6582-17.0117 7.85645-16.2305Q6.05469-15.4492 4.68262-14.0723Q3.31055-12.6953 2.5293-10.8936Q1.74805-9.0918 1.74805-7.05078Q1.74805-5.00977 2.5293-3.20801Q3.31055-1.40625 4.6875-0.0292969Q6.06445 1.34766 7.86621 2.12891Q9.66797 2.91016 11.709 2.91016ZM11.709 1.25Q9.98047 1.25 8.47656 0.605469Q6.97266-0.0390625 5.83496-1.17676Q4.69727-2.31445 4.05762-3.81836Q3.41797-5.32227 3.41797-7.05078Q3.41797-8.7793 4.05762-10.2832Q4.69727-11.7871 5.83008-12.9297Q6.96289-14.0723 8.4668-14.7119Q9.9707-15.3516 11.6992-15.3516Q13.4277-15.3516 14.9316-14.7119Q16.4355-14.0723 17.5781-12.9297Q18.7207-11.7871 19.3652-10.2832Q20.0098-8.7793 20.0098-7.05078Q20.0098-5.32227 19.3701-3.81836Q18.7305-2.31445 17.5928-1.17676Q16.4551-0.0390625 14.9463 0.605469Q13.4375 1.25 11.709 1.25ZM7.17773-7.05078Q7.17773-6.69922 7.41211-6.47461Q7.64648-6.25 8.01758-6.25L10.8887-6.25L10.8887-3.36914Q10.8887-2.99805 11.1133-2.76855Q11.3379-2.53906 11.6895-2.53906Q12.0605-2.53906 12.29-2.76855Q12.5195-2.99805 12.5195-3.36914L12.5195-6.25L15.4004-6.25Q15.7715-6.25 16.001-6.47461Q16.2305-6.69922 16.2305-7.05078Q16.2305-7.42188 16.001-7.65137Q15.7715-7.88086 15.4004-7.88086L12.5195-7.88086L12.5195-10.752Q12.5195-11.1328 12.29-11.3623Q12.0605-11.5918 11.6895-11.5918Q11.3379-11.5918 11.1133-11.3574Q10.8887-11.123 10.8887-10.752L10.8887-7.88086L8.01758-7.88086Q7.63672-7.88086 7.40723-7.65137Q7.17773-7.42188 7.17773-7.05078Z"/>
  </g>
  <g transform="matrix(1 0 0 1 305.646 1933)">
   <path d="M14.9707 5.66406Q17.0605 5.66406 18.96 5.01465Q20.8594 4.36523 22.4512 3.19336Q24.043 2.02148 25.2197 0.429688Q26.3965-1.16211 27.0459-3.06641Q27.6953-4.9707 27.6953-7.05078Q27.6953-9.14062 27.0459-11.04Q26.3965-12.9395 25.2197-14.5312Q24.043-16.123 22.4512-17.2998Q20.8594-18.4766 18.9551-19.126Q17.0508-19.7754 14.9609-19.7754Q12.8711-19.7754 10.9717-19.126Q9.07227-18.4766 7.48535-17.2998Q5.89844-16.123 4.72168-14.5312Q3.54492-12.9395 2.90039-11.04Q2.25586-9.14062 2.25586-7.05078Q2.25586-4.9707 2.90527-3.06641Q3.55469-1.16211 4.72656 0.429688Q5.89844 2.02148 7.49023 3.19336Q9.08203 4.36523 10.9814 5.01465Q12.8809 5.66406 14.9707 5.66406ZM14.9707 3.84766Q13.1641 3.84766 11.5283 3.2959Q9.89258 2.74414 8.53516 1.74805Q7.17773 0.751953 6.17676-0.610352Q5.17578-1.97266 4.62891-3.6084Q4.08203-5.24414 4.08203-7.05078Q4.08203-8.86719 4.62891-10.5029Q5.17578-12.1387 6.17188-13.501Q7.16797-14.8633 8.52539-15.8594Q9.88281-16.8555 11.5186-17.4023Q13.1543-17.9492 14.9609-17.9492Q16.7773-17.9492 18.4131-17.4023Q20.0488-16.8555 21.4111-15.8594Q22.7734-14.8633 23.7695-13.501Q24.7656-12.1387 25.3174-10.5029Q25.8691-8.86719 25.8691-7.05078Q25.8789-5.24414 25.332-3.6084Q24.7852-1.97266 23.7842-0.610352Q22.7832 0.751953 21.4209 1.74805Q20.0586 2.74414 18.4229 3.2959Q16.7871 3.84766 14.9707 3.84766ZM9.19922-7.05078Q9.19922-6.66992 9.45801-6.4209Q9.7168-6.17188 10.1172-6.17188L14.0625-6.17188L14.0625-2.2168Q14.0625-1.81641 14.3115-1.55762Q14.5605-1.29883 14.9512-1.29883Q15.3516-1.29883 15.6104-1.55273Q15.8691-1.80664 15.8691-2.2168L15.8691-6.17188L19.8242-6.17188Q20.2246-6.17188 20.4785-6.4209Q20.7324-6.66992 20.7324-7.05078Q20.7324-7.46094 20.4785-7.71484Q20.2246-7.96875 19.8242-7.96875L15.8691-7.96875L15.8691-11.9141Q15.8691-12.3242 15.6104-12.583Q15.3516-12.8418 14.9512-12.8418Q14.5605-12.8418 14.3115-12.583Q14.0625-12.3242 14.0625-11.9141L14.0625-7.96875L10.1172-7.96875Q9.70703-7.96875 9.45312-7.71484Q9.19922-7.46094 9.19922-7.05078Z"/>
  </g>
  <text style="stroke:none;fill:black;font-family:sans-serif;font-size:13;font-weight:bold;" transform="matrix(1 0 0 1 263 1953)">Design Variations</text>
  <text style="stroke:none;fill:black;font-family:sans-serif;font-size:13;" transform="matrix(1 0 0 1 263 1971)">Symbols are supported in up to nine weights and three scales.</text>
  <text style="stroke:none;fill:black;font-family:sans-serif;font-size:13;" transform="matrix(1 0 0 1 263 1989)">For optimal layout with text and other symbols, vertically align</text>
  <text style="stroke:none;fill:black;font-family:sans-serif;font-size:13;" transform="matrix(1 0 0 1 263 2007)">symbols with the adjacent text.</text>
  <line style="fill:none;stroke:#00AEEF;stroke-width:0.5;opacity:1.0;" x1="776" x2="776" y1="1919" y2="1933"/>
  <g transform="matrix(1 0 0 1 776 1933)">
   <path d="M3.31055 0.15625Q3.70117 0.15625 3.91602-0.00976562Q4.13086-0.175781 4.26758-0.585938L5.52734-4.0332L11.2891-4.0332L12.5488-0.585938Q12.6855-0.175781 12.9004-0.00976562Q13.1152 0.15625 13.4961 0.15625Q13.8867 0.15625 14.1162-0.0585938Q14.3457-0.273438 14.3457-0.644531Q14.3457-0.869141 14.2383-1.17188L9.6582-13.3691Q9.48242-13.8184 9.17969-14.043Q8.87695-14.2676 8.4082-14.2676Q7.5-14.2676 7.17773-13.3789L2.59766-1.16211Q2.49023-0.859375 2.49023-0.634766Q2.49023-0.263672 2.70996-0.0537109Q2.92969 0.15625 3.31055 0.15625ZM6.00586-5.51758L8.37891-12.0898L8.42773-12.0898L10.8008-5.51758Z"/>
  </g>
  <line style="fill:none;stroke:#00AEEF;stroke-width:0.5;opacity:1.0;" x1="793.197" x2="793.197" y1="1919" y2="1933"/>
  <text style="stroke:none;fill:black;font-family:sans-serif;font-size:13;font-weight:bold;" transform="matrix(1 0 0 1 776 1953)">Margins</text>
  <text style="stroke:none;fill:black;font-family:sans-serif;font-size:13;" transform="matrix(1 0 0 1 776 1971)">Leading and trailing margins on the left and right side of each symbol</text>
  <text style="stroke:none;fill:black;font-family:sans-serif;font-size:13;" transform="matrix(1 0 0 1 776 1989)">can be adjusted by modifying the x-location of the margin guidelines.</text>
  <text style="stroke:none;fill:black;font-family:sans-serif;font-size:13;" transform="matrix(1 0 0 1 776 2007)">Modifications are automatically applied proportionally to all</text>
  <text style="stroke:none;fill:black;font-family:sans-serif;font-size:13;" transform="matrix(1 0 0 1 776 2025)">scales and weights.</text>
  <g transform="matrix(1 0 0 1 1289 1933)">
   <path d="M2.8418 1.86523L4.54102 3.57422Q5.18555 4.22852 5.90332 4.17969Q6.62109 4.13086 7.31445 3.35938L18.0078-8.42773L17.041-9.4043L6.42578 2.27539Q6.16211 2.57812 5.89355 2.61719Q5.625 2.65625 5.27344 2.30469L4.10156 1.14258Q3.75 0.791016 3.79395 0.522461Q3.83789 0.253906 4.14062-0.0195312L15.6152-10.8203L14.6387-11.7871L3.04688-0.898438Q2.30469-0.214844 2.25098 0.498047Q2.19727 1.21094 2.8418 1.86523ZM9.25781-16.3281Q8.94531-16.0254 8.90625-15.6348Q8.86719-15.2441 9.04297-14.9512Q9.21875-14.6777 9.55566-14.541Q9.89258-14.4043 10.3809-14.5215Q11.4746-14.7754 12.5977-14.7314Q13.7207-14.6875 14.7949-13.9844L14.209-12.5293Q13.9551-11.9043 14.0674-11.4404Q14.1797-10.9766 14.5801-10.5664L16.875-8.25195Q17.2363-7.88086 17.5781-7.82227Q17.9199-7.76367 18.3398-7.8418L19.4043-8.03711L20.0684-7.36328L20.0293-6.80664Q20-6.43555 20.1221-6.12305Q20.2441-5.81055 20.6055-5.44922L21.3672-4.70703Q21.7285-4.3457 22.1533-4.33105Q22.5781-4.31641 22.9297-4.66797L25.8398-7.58789Q26.1914-7.93945 26.1816-8.35449Q26.1719-8.76953 25.8105-9.13086L25.0391-9.89258Q24.6875-10.2539 24.3799-10.3857Q24.0723-10.5176 23.7109-10.4883L23.1348-10.4395L22.4902-11.0742L22.7344-12.1973Q22.832-12.6172 22.6953-12.9834Q22.5586-13.3496 22.1191-13.7891L19.9219-15.9766Q18.6719-17.2168 17.2607-17.8369Q15.8496-18.457 14.4189-18.4814Q12.9883-18.5059 11.665-17.959Q10.3418-17.4121 9.25781-16.3281ZM10.752-15.957Q11.6602-16.6211 12.7002-16.9043Q13.7402-17.1875 14.8047-17.085Q15.8691-16.9824 16.8701-16.5137Q17.8711-16.0449 18.7012-15.2051L21.1328-12.793Q21.3086-12.6172 21.3525-12.4512Q21.3965-12.2852 21.3379-12.0312L21.0156-10.5469L22.5195-9.0625L23.5059-9.12109Q23.6914-9.13086 23.7891-9.09668Q23.8867-9.0625 24.0332-8.91602L24.6094-8.33984L22.168-5.89844L21.5918-6.47461Q21.4453-6.62109 21.4062-6.71875Q21.3672-6.81641 21.377-7.01172L21.4453-7.98828L19.9512-9.47266L18.4277-9.21875Q18.1836-9.16992 18.042-9.2041Q17.9004-9.23828 17.7148-9.41406L15.7129-11.416Q15.5176-11.5918 15.4932-11.7529Q15.4688-11.9141 15.5859-12.1875L16.4648-14.2773Q15.293-15.3711 13.8281-15.791Q12.3633-16.2109 10.8398-15.7617Q10.7227-15.7324 10.6885-15.8057Q10.6543-15.8789 10.752-15.957Z"/>
  </g>
  <text style="stroke:none;fill:black;font-family:sans-serif;font-size:13;font-weight:bold;" transform="matrix(1 0 0 1 1289 1953)">Exporting</text>
  <text style="stroke:none;fill:black;font-family:sans-serif;font-size:13;" transform="matrix(1 0 0 1 1289 1971)">Symbols should be outlined when exporting to ensure the</text>
  <text style="stroke:none;fill:black;font-family:sans-serif;font-size:13;" transform="matrix(1 0 0 1 1289 1989)">design is preserved when submitting to Xcode.</text>
  <text id="template-version" style="stroke:none;fill:black;font-family:sans-serif;font-size:13;text-anchor:end;" transform="matrix(1 0 0 1 3036 1933)">Template v.3.0</text>
  <text style="stroke:none;fill:black;font-family:sans-serif;font-size:13;text-anchor:end;" transform="matrix(1 0 0 1 3036 1951)">Requires Xcode 13 or greater</text>
  <text id="descriptive-name" style="stroke:none;fill:black;font-family:sans-serif;font-size:13;text-anchor:end;" transform="matrix(1 0 0 1 3036 1969)">Generated from dottedLine</text>
  <text style="stroke:none;fill:black;font-family:sans-serif;font-size:13;text-anchor:end;" transform="matrix(1 0 0 1 3036 1987)">Typeset at 100 points</text>
  <text style="stroke:none;fill:black;font-family:sans-serif;font-size:13;" transform="matrix(1 0 0 1 263 726)">Small</text>
  <text style="stroke:none;fill:black;font-family:sans-serif;font-size:13;" transform="matrix(1 0 0 1 263 1156)">Medium</text>
  <text style="stroke:none;fill:black;font-family:sans-serif;font-size:13;" transform="matrix(1 0 0 1 263 1586)">Large</text>
 </g>
 <g id="Guides">
  <g id="H-reference" style="fill:#27AAE1;stroke:none;" transform="matrix(1 0 0 1 339 696)">
   <path d="M0.993347 0L3.6377 0L29.3282-67.1326L30.0301-67.1326L30.0301-70.459L28.1227-70.459ZM11.6882-24.4797L46.9818-24.4797L46.2311-26.7288L12.4382-26.7288ZM55.1193 0L57.7637 0L30.6381-70.459L29.4327-70.459L29.4327-67.1326Z"/>
  </g>
  <line id="Baseline-S" style="fill:none;stroke:#27AAE1;opacity:1;stroke-width:0.5;" x1="263" x2="3036" y1="696" y2="696"/>
  <line id="Capline-S" style="fill:none;stroke:#27AAE1;opacity:1;stroke-width:0.5;" x1="263" x2="3036" y1="625.541" y2="625.541"/>
  <g id="H-reference" style="fill:#27AAE1;stroke:none;" transform="matrix(1 0 0 1 339 1126)">
   <path d="M0.993347 0L3.6377 0L29.3282-67.1326L30.0301-67.1326L30.0301-70.459L28.1227-70.459ZM11.6882-24.4797L46.9818-24.4797L46.2311-26.7288L12.4382-26.7288ZM55.1193 0L57.7637 0L30.6381-70.459L29.4327-70.459L29.4327-67.1326Z"/>
  </g>
  <line id="Baseline-M" style="fill:none;stroke:#27AAE1;opacity:1;stroke-width:0.5;" x1="263" x2="3036" y1="1126" y2="1126"/>
  <line id="Capline-M" style="fill:none;stroke:#27AAE1;opacity:1;stroke-width:0.5;" x1="263" x2="3036" y1="1055.54" y2="1055.54"/>
  <g id="H-reference" style="fill:#27AAE1;stroke:none;" transform="matrix(1 0 0 1 339 1556)">
   <path d="M0.993347 0L3.6377 0L29.3282-67.1326L30.0301-67.1326L30.0301-70.459L28.1227-70.459ZM11.6882-24.4797L46.9818-24.4797L46.2311-26.7288L12.4382-26.7288ZM55.1193 0L57.7637 0L30.6381-70.459L29.4327-70.459L29.4327-67.1326Z"/>
  </g>
  <line id="Baseline-L" style="fill:none;stroke:#27AAE1;opacity:1;stroke-width:0.5;" x1="263" x2="3036" y1="1556" y2="1556"/>
  <line id="Capline-L" style="fill:none;stroke:#27AAE1;opacity:1;stroke-width:0.5;" x1="263" x2="3036" y1="1485.54" y2="1485.54"/>
  <line id="left-margin-Ultralight-S" style="fill:none;stroke:#FF3B30;stroke-width:0.5;opacity:1.0;" x1="501.106" x2="501.106" y1="600.784" y2="720.121"/>
  <line id="right-margin-Ultralight-S" style="fill:none;stroke:#00AEEF;stroke-width:0.5;opacity:1.0;" x1="618.316" x2="618.316" y1="600.784" y2="720.121"/>
  <line id="left-margin-Regular-S" style="fill:none;stroke:#00AEEF;stroke-width:0.5;opacity:1.0;" x1="1391.28" x2="1391.28" y1="600.784" y2="720.121"/>
  <line id="right-margin-Regular-S" style="fill:none;stroke:#00AEEF;stroke-width:0.5;opacity:1.0;" x1="1508.41" x2="1508.41" y1="600.784" y2="720.121"/>
  <line id="left-margin-Black-S" style="fill:none;stroke:#00AEEF;stroke-width:0.5;opacity:1.0;" x1="2874.83" x2="2874.83" y1="600.784" y2="720.121"/>
  <line id="right-margin-Black-S" style="fill:none;stroke:#00AEEF;stroke-width:0.5;opacity:1.0;" x1="2991.97" x2="2991.97" y1="600.784" y2="720.121"/>
 </g>
 <g id="Symbols">
  <g id="Black-S" transform="matrix(1 0 0 1 2874.83 696)">
   <path d="M14.2331-83.8661L15.8485-83.6886C16.7408-83.5905 17.544-84.2301 17.6426-85.1171C17.7412-86.0041 17.0978-86.8027 16.2056-86.9007L14.5901-87.0782C13.6979-87.1762 12.8947-86.5366 12.7961-85.6496C12.6975-84.7626 13.3409-83.9641 14.2331-83.8661ZM22.2994-82.9469L23.9133-82.7561C24.8047-82.6507 25.6132-83.2836 25.7192-84.1698C25.8252-85.0559 25.1885-85.8597 24.2972-85.9651L22.6832-86.1559C21.7919-86.2613 20.9833-85.6284 20.8773-84.7422C20.7713-83.8561 21.408-83.0522 22.2994-82.9469ZM30.3454-81.9579L31.9574-81.7518C32.8477-81.638 33.6623-82.2632 33.7768-83.1483C33.8912-84.0335 33.2623-84.8432 32.372-84.9571L30.76-85.1632C29.8697-85.277 29.0551-84.6517 28.9406-83.7666C28.8261-82.8815 29.4551-82.0717 30.3454-81.9579ZM38.3763-80.8873L39.9859-80.6634C40.8749-80.5398 41.6964-81.156 41.8208-82.0398C41.9451-82.9236 41.3253-83.7403 40.4363-83.8639L38.8267-84.0878C37.9377-84.2114 37.1162-83.5952 36.9918-82.7114C36.8675-81.8276 37.4873-81.0109 38.3763-80.8873ZM46.4045-79.7185L48.011-79.4736C48.8983-79.3383 49.7278-79.9437 49.8639-80.8257C50-81.7078 49.3911-82.5326 48.5038-82.6679L46.8973-82.9129C46.01-83.0482 45.1804-82.4428 45.0443-81.5607C44.9083-80.6786 45.5172-79.8538 46.4045-79.7185ZM54.4024-78.436L56.0047-78.1655C56.8897-78.0162 57.7289-78.6083 57.8792-79.4881C58.0295-80.3679 57.4339-81.2022 56.5489-81.3516L54.9465-81.6221C54.0615-81.7715 53.2223-81.1794 53.072-80.2995C52.9218-79.4197 53.5174-78.5854 54.4024-78.436ZM62.3595-77.0149L63.9561-76.7128C64.838-76.5459 65.6889-77.1213 65.8567-77.998C66.0245-78.8747 65.4458-79.7206 64.564-79.8875L62.9673-80.1896C62.0855-80.3565 61.2346-79.7811 61.0667-78.9044C60.8989-78.0277 61.4777-77.1818 62.3595-77.0149ZM70.2971-75.4121L71.8854-75.0691C72.7626-74.8797 73.6281-75.4331 73.8187-76.3051C74.0092-77.1772 73.4526-78.0377 72.5754-78.2271L70.9871-78.5701C70.1099-78.7596 69.2444-78.2062 69.0538-77.3341C68.8633-76.462 69.4199-75.6015 70.2971-75.4121ZM78.1429-73.5825L79.7181-73.1844C80.5881-72.9646 81.4726-73.4875 81.6937-74.3524C81.9148-75.2173 81.3888-76.0967 80.5188-76.3165L78.9436-76.7146C78.0736-76.9344 77.1891-76.4115 76.968-75.5465C76.7469-74.6816 77.2729-73.8023 78.1429-73.5825ZM85.897-71.4258L87.4495-70.9477C88.307-70.6836 89.2174-71.1606 89.483-72.013C89.7486-72.8654 89.2689-73.7706 88.4114-74.0346L86.8589-74.5128C86.0015-74.7769 85.0911-74.2999 84.8254-73.4475C84.5598-72.595 85.0396-71.6899 85.897-71.4258ZM93.4349-68.7836L94.9406-68.1752C95.7722-67.8392 96.7203-68.237 97.0583-69.0637C97.3963-69.8905 96.9961-70.833 96.1645-71.1691L94.6588-71.7775C93.8273-72.1135 92.8791-71.7157 92.5412-70.889C92.2032-70.0622 92.6033-69.1196 93.4349-68.7836ZM100.462-65.3014L101.834-64.4339C102.591-63.9548 103.595-64.1768 104.077-64.9297C104.559-65.6826 104.336-66.6813 103.579-67.1604L102.207-68.0279C101.45-68.507 100.446-68.285 99.9636-67.5321C99.4817-66.7792 99.705-65.7805 100.462-65.3014ZM105.426-60.322L106.05-58.8298C106.394-58.0057 107.346-57.6152 108.174-57.9576C109.003-58.3 109.396-59.2457 109.052-60.0698L108.428-61.5619C108.084-62.386 107.133-62.7765 106.304-62.4341C105.475-62.0918 105.082-61.1461 105.426-60.322ZM103.973-54.2755L102.958-53.0133C102.398-52.3162 102.512-51.2994 103.213-50.7423C103.914-50.1851 104.937-50.2985 105.498-50.9956L106.512-52.2578C107.073-52.9549 106.959-53.9717 106.258-54.5288C105.556-55.086 104.534-54.9726 103.973-54.2755ZM98.1371-49.2585L96.7884-48.3567C96.0435-47.8587 95.8458-46.8546 96.3468-46.1141C96.8477-45.3736 97.8577-45.1771 98.6025-45.6751L99.9512-46.5769C100.696-47.0749 100.894-48.0789 100.393-48.8194C99.8918-49.5599 98.8819-49.7565 98.1371-49.2585ZM91.2139-45.2613L89.7681-44.5231C88.9696-44.1154 88.6547-43.1414 89.0648-42.3475C89.4749-41.5537 90.4546-41.2407 91.2531-41.6484L92.6989-42.3865C93.4974-42.7942 93.8123-43.7683 93.4022-44.5621C92.9921-45.3559 92.0124-45.669 91.2139-45.2613ZM84.0958-41.9265L82.6062-41.2803C81.7834-40.9234 81.4075-39.971 81.7665-39.1531C82.1255-38.3351 83.0835-37.9614 83.9062-38.3183L85.3959-38.9646C86.2186-39.3215 86.5946-40.2739 86.2355-41.0918C85.8765-41.9097 84.9186-42.2834 84.0958-41.9265ZM76.7899-38.9439L75.2748-38.359C74.438-38.0359 74.0231-37.0997 74.348-36.2678C74.673-35.4359 75.6147-35.0234 76.4515-35.3465L77.9666-35.9314C78.8033-36.2544 79.2182-37.1907 78.8933-38.0225C78.5684-38.8544 77.6266-39.2669 76.7899-38.9439ZM69.1999-36.1495L67.6679-35.6099C66.8218-35.3119 66.3789-34.3884 66.6786-33.5473C66.9784-32.7061 67.9073-32.2658 68.7534-32.5638L70.2854-33.1034C71.1315-33.4014 71.5745-34.3248 71.2747-35.166C70.9749-36.0072 70.046-36.4475 69.1999-36.1495ZM61.5351-33.5505L59.9912-33.0454C59.1386-32.7665 58.6748-31.8532 58.9554-31.0055C59.2359-30.1578 60.1546-29.6967 61.0073-29.9757L62.5512-30.4807C63.4038-30.7597 63.8676-31.673 63.587-32.5207C63.3064-33.3684 62.3878-33.8294 61.5351-33.5505ZM53.7878-31.0662L52.2425-30.5654C51.3891-30.2889 50.9228-29.3769 51.201-28.5284C51.4791-27.6799 52.3965-27.2163 53.25-27.4929L54.7953-27.9937C55.6487-28.2702 56.115-29.1823 55.8368-30.0307C55.5586-30.8792 54.6413-31.3428 53.7878-31.0662ZM46.0624-28.4802L44.5276-27.9485C43.68-27.6548 43.2323-26.7336 43.5277-25.8909C43.8231-25.0482 44.7497-24.6031 45.5974-24.8968L47.1322-25.4285C47.9798-25.7222 48.4275-26.6434 48.1321-27.4861C47.8367-28.3288 46.9101-28.7739 46.0624-28.4802ZM38.3798-25.7085L36.86-25.1358C36.0206-24.8195 35.5981-23.8866 35.9163-23.0522C36.2344-22.2177 37.1728-21.7976 38.0121-22.1139L39.5319-22.6866C40.3713-23.0029 40.7938-23.9358 40.4757-24.7703C40.1575-25.6047 39.2192-26.0248 38.3798-25.7085ZM30.7798-22.6886L29.2832-22.0584C28.4566-21.7104 28.0704-20.7621 28.4205-19.9403C28.7706-19.1186 29.7244-18.7346 30.551-19.0827L32.0476-19.7129C32.8741-20.0609 33.2604-21.0092 32.9103-21.8309C32.5602-22.6527 31.6063-23.0367 30.7798-22.6886ZM23.2909-19.2887L21.8355-18.5694C21.0317-18.1722 20.7041-17.2023 21.1036-16.4032C21.5032-15.6041 22.4788-15.2783 23.2826-15.6756L24.738-16.3949C25.5418-16.7921 25.8694-17.762 25.4698-18.5611C25.0703-19.3602 24.0947-19.686 23.2909-19.2887ZM16.0427-15.2384L14.681-14.3563C13.9289-13.8691 13.7164-12.868 14.2065-12.1203C14.6965-11.3727 15.7034-11.1614 16.4555-11.6486L17.8173-12.5307C18.5693-13.0179 18.7818-14.0189 18.2918-14.7666C17.8017-15.5143 16.7948-15.7255 16.0427-15.2384ZM9.47742-9.57777L8.50197-8.28529C7.96325-7.57147 8.10859-6.55863 8.8266-6.02305C9.5446-5.48747 10.5634-5.63196 11.1021-6.34578L12.0776-7.63827C12.6163-8.35208 12.4709-9.36492 11.7529-9.9005C11.0349-10.4361 10.0161-10.2916 9.47742-9.57777ZM9.36893-0.121573L10.4056 1.12292C10.9781 1.81023 12.0027 1.90598 12.6941 1.33678C13.3854 0.767584 13.4817-0.251018 12.9092-0.93833L11.8725-2.18282C11.3-2.87013 10.2754-2.96588 9.58405-2.39668C8.89271-1.82749 8.7964-0.808885 9.36893-0.121573ZM16.7511 4.81975L18.2376 5.47331C19.0585 5.83426 20.0183 5.46525 20.3814 4.64911C20.7445 3.83296 20.3733 2.87873 19.5524 2.51778L18.0659 1.86422C17.245 1.50326 16.2852 1.87227 15.9221 2.68842C15.559 3.50457 15.9302 4.4588 16.7511 4.81975ZM24.6791 7.60876L26.2401 8.05878C27.1022 8.30731 28.0038 7.81398 28.2538 6.95688C28.5038 6.09979 28.0075 5.2035 27.1454 4.95496L25.5844 4.50494C24.7223 4.25641 23.8207 4.74974 23.5707 5.60684C23.3207 6.46393 23.817 7.36022 24.6791 7.60876ZM32.7105 9.61363L34.2981 9.95969C35.1749 10.1508 36.0415 9.5991 36.2338 8.7274C36.426 7.8557 35.8711 6.99412 34.9943 6.803L33.4066 6.45694C32.5298 6.26582 31.6632 6.81753 31.471 7.68923C31.2787 8.56093 31.8337 9.42251 32.7105 9.61363ZM40.8049 11.194L42.4055 11.4751C43.2894 11.6303 44.1326 11.0437 44.2887 10.1649C44.4448 9.28605 43.8547 8.44782 42.9708 8.29263L41.3702 8.01162C40.4863 7.85642 39.6431 8.44302 39.487 9.32182C39.3309 10.2006 39.9209 11.0389 40.8049 11.194ZM48.9148 12.4939L50.5228 12.7297C51.4108 12.8599 52.2369 12.2497 52.3678 11.3669C52.4988 10.484 51.8851 9.66278 50.997 9.53258L49.3891 9.29683C48.5011 9.16663 47.675 9.77677 47.544 10.6596C47.4131 11.5425 48.0268 12.3637 48.9148 12.4939ZM57.0323 13.5934L58.6448 13.7954C59.5354 13.907 60.3484 13.2797 60.4606 12.3943C60.5728 11.5089 59.9418 10.7007 59.0512 10.5891L57.4386 10.3871C56.548 10.2756 55.7351 10.9029 55.6229 11.7883C55.5107 12.6737 56.1417 13.4819 57.0323 13.5934ZM64.7878 14.501L66.4034 14.6777C67.2956 14.7752 68.0985 14.1352 68.1967 13.2482C68.2948 12.3611 67.6511 11.5629 66.7588 11.4654L65.1432 11.2887C64.251 11.1911 63.4481 11.8311 63.3499 12.7181C63.2518 13.6052 63.8955 14.4034 64.7878 14.501ZM72.9019 15.3319L74.5197 15.4871C75.4132 15.5728 76.2074 14.9222 76.2936 14.0339C76.3798 13.1456 75.7254 12.3561 74.8319 12.2704L73.2141 12.1152C72.3206 12.0295 71.5264 12.6801 71.4402 13.5684C71.354 14.4567 72.0084 15.2463 72.9019 15.3319ZM81.0176 16.0639L82.6371 16.2012C83.5315 16.2771 84.3183 15.6177 84.3946 14.7286C84.4709 13.8394 83.8077 13.0571 82.9133 12.9812L81.2939 12.8439C80.3995 12.7681 79.6126 13.4274 79.5363 14.3166C79.46 15.2058 80.1232 15.9881 81.0176 16.0639ZM89.1523 16.7144L90.773 16.8366C91.668 16.9041 92.4487 16.2374 92.5165 15.3476C92.5844 14.4577 91.9138 13.6817 91.0188 13.6142L89.3981 13.492C88.503 13.4245 87.7224 14.0912 87.6545 14.981C87.5867 15.8709 88.2572 16.647 89.1523 16.7144ZM97.2732 17.2931L98.8948 17.4023C99.7904 17.4626 100.566 16.7897 100.626 15.8994C100.687 15.009 100.01 14.2383 99.1144 14.178L97.4928 14.0689C96.5972 14.0086 95.822 14.6815 95.7614 15.5718C95.7007 16.4622 96.3776 17.2329 97.2732 17.2931ZM105.399 17.811L107.021 17.9089C107.917 17.9629 108.687 17.2846 108.742 16.3938C108.796 15.5031 108.114 14.7372 107.218 14.6831L105.596 14.5853C104.7 14.5313 103.929 15.2096 103.875 16.1003C103.82 16.9911 104.503 17.757 105.399 17.811Z"/>
  </g>
  <g id="Regular-S" transform="matrix(1 0 0 1 1391.28 696)">
   <path d="M14.8988-85.8064L16.5462-85.6255C17.4561-85.5256 18.2752-86.1774 18.3758-87.0813C18.4763-87.9852 17.8203-88.7989 16.9104-88.8988L15.2629-89.0797C14.353-89.1796 13.5339-88.5278 13.4334-87.6239C13.3328-86.72 13.9889-85.9063 14.8988-85.8064ZM23.1248-84.8697L24.7707-84.6752C25.6797-84.5678 26.5042-85.2128 26.6123-86.1159C26.7204-87.0189 26.0712-87.838 25.1622-87.9454L23.5163-88.1399C22.6072-88.2472 21.7827-87.6022 21.6746-86.6992C21.5665-85.7962 22.2158-84.9771 23.1248-84.8697ZM31.3301-83.8618L32.9741-83.6518C33.882-83.5358 34.7127-84.173 34.8295-85.075C34.9462-85.9769 34.3048-86.8022 33.3969-86.9182L31.7529-87.1282C30.845-87.2442 30.0143-86.607 29.8976-85.705C29.7808-84.803 30.4222-83.9778 31.3301-83.8618ZM39.5201-82.7708L41.1616-82.5427C42.0682-82.4167 42.9059-83.0447 43.0328-83.9453C43.1596-84.8459 42.5275-85.6782 41.6209-85.8042L39.9794-86.0323C39.0728-86.1583 38.2351-85.5304 38.1082-84.6297C37.9814-83.7291 38.6135-82.8968 39.5201-82.7708ZM47.7072-81.5799L49.3456-81.3302C50.2504-81.1923 51.0964-81.8092 51.2352-82.7081C51.374-83.607 50.753-84.4475 49.8482-84.5854L48.2098-84.835C47.305-84.9729 46.459-84.356 46.3202-83.4571C46.1814-82.5582 46.8024-81.7177 47.7072-81.5799ZM55.8635-80.2729L57.4976-79.9973C58.4001-79.845 59.2559-80.4484 59.4092-81.345C59.5624-82.2416 58.955-83.0918 58.0525-83.244L56.4184-83.5197C55.5159-83.6719 54.6601-83.0685 54.5068-82.1719C54.3536-81.2754 54.961-80.4251 55.8635-80.2729ZM63.9782-78.8247L65.6065-78.5168C66.5057-78.3468 67.3735-78.9332 67.5447-79.8265C67.7158-80.7199 67.1256-81.582 66.2263-81.752L64.598-82.0599C63.6988-82.2299 62.831-81.6436 62.6598-80.7502C62.4887-79.8568 63.0789-78.9948 63.9782-78.8247ZM72.073-77.1914L73.6927-76.8419C74.5873-76.6488 75.47-77.2127 75.6643-78.1014C75.8586-78.9901 75.2909-79.867 74.3964-80.06L72.7766-80.4096C71.8821-80.6026 70.9994-80.0387 70.8051-79.15C70.6108-78.2613 71.1784-77.3844 72.073-77.1914ZM80.0741-75.3269L81.6805-74.9213C82.5678-74.6973 83.4698-75.2302 83.6953-76.1115C83.9208-76.9929 83.3843-77.889 82.4971-78.113L80.8907-78.5186C80.0035-78.7427 79.1015-78.2098 78.876-77.3284C78.6505-76.447 79.1869-75.5509 80.0741-75.3269ZM87.9818-73.1292L89.5651-72.6419C90.4395-72.3728 91.3679-72.8589 91.6388-73.7275C91.9097-74.5962 91.4204-75.5186 90.546-75.7877L88.9628-76.2749C88.0883-76.544 87.1599-76.058 86.889-75.1893C86.6181-74.3206 87.1074-73.3983 87.9818-73.1292ZM95.6689-70.4367L97.2045-69.8167C98.0525-69.4742 99.0194-69.8796 99.3641-70.7221C99.7088-71.5646 99.3007-72.5251 98.4527-72.8675L96.9171-73.4875C96.0691-73.8299 95.1022-73.4246 94.7575-72.5821C94.4128-71.7396 94.8209-70.7791 95.6689-70.4367ZM102.836-66.8881L104.234-66.0041C105.006-65.5159 106.031-65.742 106.522-66.5093C107.014-67.2765 106.786-68.2943 106.014-68.7825L104.615-69.6665C103.843-70.1547 102.818-69.9285 102.327-69.1613C101.836-68.3941 102.063-67.3763 102.836-66.8881ZM107.898-61.8139L108.534-60.2933C108.885-59.4535 109.855-59.0555 110.7-59.4044C111.546-59.7534 111.946-60.717 111.595-61.5568L110.959-63.0774C110.608-63.9172 109.638-64.3151 108.793-63.9662C107.947-63.6173 107.547-62.6537 107.898-61.8139ZM106.416-55.6522L105.381-54.366C104.81-53.6556 104.926-52.6194 105.641-52.0516C106.356-51.4838 107.399-51.5994 107.971-52.3098L109.005-53.596C109.577-54.3064 109.461-55.3425 108.746-55.9103C108.031-56.4781 106.988-56.3626 106.416-55.6522ZM100.464-50.5396L99.0889-49.6206C98.3293-49.1131 98.1276-48.09 98.6385-47.3354C99.1494-46.5807 100.179-46.3804 100.939-46.888L102.314-47.8069C103.074-48.3144 103.276-49.3376 102.765-50.0922C102.254-50.8468 101.224-51.0471 100.464-50.5396ZM93.404-46.4663L91.9295-45.714C91.1152-45.2986 90.7941-44.306 91.2123-43.497C91.6305-42.6881 92.6296-42.3691 93.4439-42.7845L94.9184-43.5368C95.7327-43.9522 96.0538-44.9448 95.6356-45.7537C95.2174-46.5627 94.2183-46.8817 93.404-46.4663ZM86.145-43.068L84.6258-42.4094C83.7868-42.0457 83.4034-41.0752 83.7695-40.2417C84.1357-39.4082 85.1126-39.0273 85.9516-39.3911L87.4708-40.0496C88.3098-40.4133 88.6932-41.3839 88.327-42.2174C87.9609-43.0509 86.984-43.4317 86.145-43.068ZM78.6943-40.0285L77.1492-39.4325C76.2959-39.1033 75.8728-38.1492 76.2041-37.3015C76.5355-36.4538 77.4959-36.0334 78.3492-36.3626L79.8943-36.9586C80.7476-37.2878 81.1708-38.2419 80.8394-39.0896C80.508-39.9374 79.5477-40.3577 78.6943-40.0285ZM70.9541-37.1809L69.3917-36.6311C68.5289-36.3274 68.0772-35.3863 68.3829-34.5291C68.6886-33.6719 69.6359-33.2232 70.4987-33.5269L72.0611-34.0768C72.9239-34.3804 73.3756-35.3215 73.0699-36.1787C72.7643-37.0359 71.817-37.4846 70.9541-37.1809ZM63.1375-34.5324L61.563-34.0177C60.6935-33.7335 60.2205-32.8028 60.5067-31.9389C60.7928-31.0751 61.7297-30.6052 62.5992-30.8895L64.1737-31.4042C65.0432-31.6884 65.5162-32.6191 65.23-33.483C64.9439-34.3468 64.007-34.8166 63.1375-34.5324ZM55.2368-32.0008L53.6609-31.4905C52.7906-31.2087 52.315-30.2793 52.5987-29.4146C52.8824-28.55 53.8179-28.0776 54.6883-28.3594L56.2642-28.8697C57.1345-29.1516 57.6101-30.081 57.3264-30.9456C57.0427-31.8102 56.1071-32.2827 55.2368-32.0008ZM47.3584-29.3656L45.7932-28.8237C44.9288-28.5244 44.4723-27.5857 44.7735-26.7269C45.0748-25.8682 46.0197-25.4146 46.8842-25.7139L48.4493-26.2558C49.3138-26.555 49.7703-27.4938 49.4691-28.3525C49.1678-29.2113 48.2229-29.6648 47.3584-29.3656ZM39.5237-26.541L37.9738-25.9574C37.1178-25.6351 36.6869-24.6845 37.0113-23.8341C37.3358-22.9837 38.2927-22.5557 39.1487-22.878L40.6986-23.4616C41.5546-23.7839 41.9855-24.7346 41.661-25.5849C41.3366-26.4353 40.3797-26.8634 39.5237-26.541ZM31.7731-23.4636L30.2469-22.8214C29.404-22.4667 29.0101-21.5004 29.3671-20.663C29.7241-19.8256 30.6969-19.4343 31.5398-19.789L33.066-20.4312C33.909-20.7859 34.3029-21.7522 33.9458-22.5896C33.5888-23.427 32.6161-23.8183 31.7731-23.4636ZM24.136-19.999L22.6518-19.266C21.8321-18.8612 21.4979-17.8728 21.9054-17.0585C22.3129-16.2442 23.3077-15.9122 24.1275-16.317L25.6117-17.05C26.4314-17.4548 26.7656-18.4432 26.3581-19.2575C25.9506-20.0718 24.9557-20.4038 24.136-19.999ZM16.7443-15.8715L15.3555-14.9726C14.5886-14.4761 14.3719-13.456 14.8716-12.6941C15.3714-11.9321 16.3982-11.7169 17.1652-12.2133L18.5539-13.1122C19.3209-13.6087 19.5376-14.6288 19.0378-15.3908C18.5381-16.1527 17.5112-16.3679 16.7443-15.8715ZM10.049-10.1031L9.05419-8.78596C8.5048-8.05855 8.65302-7.02642 9.38524-6.48064C10.1175-5.93485 11.1564-6.0821 11.7058-6.80951L12.7006-8.12661C13.25-8.85403 13.1017-9.88616 12.3695-10.4319C11.6373-10.9777 10.5983-10.8305 10.049-10.1031ZM9.93832-0.466746L10.9955 0.801447C11.5794 1.50185 12.6243 1.59943 13.3293 1.01939C14.0343 0.439347 14.1325-0.598656 13.5487-1.29906L12.4915-2.56725C11.9076-3.26766 10.8627-3.36523 10.1577-2.78519C9.45266-2.20515 9.35444-1.16715 9.93832-0.466746ZM17.4667 4.5687L18.9826 5.23471C19.8198 5.60253 20.7986 5.2265 21.1689 4.3948C21.5391 3.56311 21.1606 2.59071 20.3234 2.22288L18.8075 1.55687C17.9703 1.18904 16.9915 1.56508 16.6213 2.39677C16.251 3.22846 16.6295 4.20087 17.4667 4.5687ZM25.5516 7.41083L27.1436 7.86942C28.0228 8.12269 28.9422 7.61996 29.1971 6.74654C29.452 5.87312 28.946 4.95975 28.0668 4.70648L26.4749 4.2479C25.5957 3.99462 24.6763 4.49736 24.4213 5.37078C24.1664 6.2442 24.6724 7.15756 25.5516 7.41083ZM33.7421 9.45389L35.3611 9.80654C36.2553 10.0013 37.1391 9.43908 37.3351 8.55078C37.5312 7.66248 36.9652 6.78448 36.0711 6.58972L34.452 6.23707C33.5579 6.04231 32.6741 6.60453 32.478 7.49284C32.282 8.38114 32.8479 9.25913 33.7421 9.45389ZM41.9968 11.0644L43.629 11.3508C44.5305 11.5089 45.3903 10.9112 45.5495 10.0156C45.7087 9.12007 45.107 8.26588 44.2055 8.10772L42.5733 7.82136C41.6718 7.66321 40.812 8.26098 40.6528 9.15652C40.4936 10.0521 41.0953 10.9063 41.9968 11.0644ZM50.2673 12.389L51.9071 12.6293C52.8127 12.762 53.6551 12.1402 53.7887 11.2405C53.9222 10.3409 53.2963 9.50397 52.3907 9.37129L50.751 9.13105C49.8453 8.99837 49.0029 9.62014 48.8694 10.5198C48.7358 11.4195 49.3617 12.2564 50.2673 12.389ZM58.5455 13.5095L60.19 13.7154C61.0982 13.829 61.9273 13.1898 62.0417 12.2875C62.1561 11.3852 61.5126 10.5616 60.6044 10.448L58.9599 10.2421C58.0517 10.1284 57.2226 10.7677 57.1082 11.67C56.9938 12.5722 57.6373 13.3958 58.5455 13.5095ZM66.4546 14.4343L68.1021 14.6144C69.0121 14.7138 69.8308 14.0616 69.9309 13.1577C70.031 12.2537 69.3745 11.4403 68.4646 11.3409L66.817 11.1608C65.9071 11.0614 65.0883 11.7136 64.9882 12.6175C64.8881 13.5215 65.5446 14.3349 66.4546 14.4343ZM74.7294 15.2811L76.3792 15.4393C77.2904 15.5266 78.1003 14.8636 78.1882 13.9584C78.2761 13.0532 77.6087 12.2486 76.6975 12.1612L75.0477 12.0031C74.1365 11.9158 73.3266 12.5788 73.2387 13.484C73.1508 14.3892 73.8182 15.1938 74.7294 15.2811ZM83.0058 16.027L84.6573 16.167C85.5694 16.2443 86.3719 15.5724 86.4497 14.6663C86.5275 13.7601 85.8511 12.9629 84.939 12.8857L83.2875 12.7457C82.3754 12.6684 81.573 13.3403 81.4952 14.2464C81.4174 15.1525 82.0937 15.9497 83.0058 16.027ZM91.3016 16.6899L92.9543 16.8145C93.8671 16.8832 94.6632 16.2039 94.7324 15.2971C94.8016 14.3903 94.1178 13.5994 93.205 13.5307L91.5522 13.4061C90.6394 13.3374 89.8434 14.0167 89.7741 14.9235C89.7049 15.8303 90.3888 16.6212 91.3016 16.6899ZM99.5832 17.2797L101.237 17.3909C102.15 17.4524 102.941 16.7667 103.003 15.8594C103.065 14.952 102.374 14.1667 101.461 14.1052L99.8072 13.994C98.8939 13.9325 98.1034 14.6183 98.0415 15.5256C97.9797 16.4329 98.6699 17.2182 99.5832 17.2797ZM107.87 17.8074L109.524 17.9071C110.438 17.9622 111.224 17.271 111.279 16.3632C111.334 15.4555 110.639 14.675 109.725 14.6199L108.07 14.5203C107.157 14.4652 106.371 15.1564 106.316 16.0642C106.26 16.9719 106.956 17.7524 107.87 17.8074Z"/>
  </g>
  <g id="Ultralight-S" transform="matrix(1 0 0 1 501.106 696)">
   <path d="M4.05328-77.3138L5.42884-77.1616C6.18854-77.0776 6.87246-77.6258 6.95643-78.3861C7.04039-79.1464 6.49259-79.8309 5.73289-79.9149L4.35733-80.067C3.59763-80.151 2.91371-79.6028 2.82975-78.8425C2.74578-78.0823 3.29358-77.3978 4.05328-77.3138ZM10.9216-76.5259L12.2959-76.3623C13.0548-76.272 13.7433-76.8145 13.8335-77.5741C13.9238-78.3337 13.3817-79.0226 12.6227-79.113L11.2485-79.2765C10.4895-79.3668 9.80104-78.8243 9.71078-78.0648C9.62052-77.3052 10.1626-76.6162 10.9216-76.5259ZM17.7727-75.6782L19.1453-75.5015C19.9034-75.404 20.597-75.9399 20.6944-76.6986C20.7919-77.4572 20.2564-78.1514 19.4983-78.2489L18.1257-78.4256C17.3676-78.5231 16.674-77.9872 16.5765-77.2285C16.4791-76.4699 17.0146-75.7757 17.7727-75.6782ZM24.6109-74.7605L25.9815-74.5686C26.7384-74.4627 27.4379-74.9908 27.5438-75.7484C27.6497-76.5059 27.1219-77.2059 26.365-77.3119L24.9944-77.5038C24.2374-77.6098 23.5379-77.0816 23.432-76.3241C23.3261-75.5665 23.8539-74.8665 24.6109-74.7605ZM31.4467-73.7588L32.8147-73.5488C33.5702-73.4328 34.2766-73.9517 34.3924-74.7078C34.5083-75.4639 33.9898-76.1708 33.2343-76.2868L31.8664-76.4967C31.1109-76.6127 30.4045-76.0938 30.2886-75.3377C30.1728-74.5817 30.6913-73.8747 31.4467-73.7588ZM38.2568-72.6594L39.6212-72.4276C40.3748-72.2996 41.0894-72.8071 41.2173-73.5612C41.3453-74.3153 40.8381-75.0305 40.0846-75.1585L38.7202-75.3904C37.9666-75.5184 37.252-75.0109 37.1241-74.2568C36.9962-73.5026 37.5033-72.7875 38.2568-72.6594ZM45.0322-71.4414L46.3918-71.1824C47.1426-71.0394 47.8671-71.5326 48.01-72.284C48.153-73.0354 47.6601-73.7605 46.9093-73.9036L45.5498-74.1625C44.7989-74.3055 44.0744-73.8123 43.9315-73.0609C43.7885-72.3095 44.2814-71.5844 45.0322-71.4414ZM51.791-70.0675L53.1434-69.7735C53.8903-69.6112 54.6273-70.0855 54.7895-70.833C54.9518-71.5805 54.4778-72.318 53.7309-72.4804L52.3785-72.7744C51.6316-72.9368 50.8946-72.4624 50.7323-71.7149C50.5701-70.9675 51.0441-70.2299 51.791-70.0675ZM58.4715-68.4993L59.8128-68.1581C60.5536-67.9697 61.3067-68.4179 61.495-69.1592C61.6833-69.9006 61.2354-70.6543 60.4946-70.8427L59.1534-71.1839C58.4126-71.3723 57.6594-70.9241 57.4712-70.1828C57.2829-69.4414 57.7308-68.6877 58.4715-68.4993ZM65.0741-66.6507L66.396-66.2409C67.1261-66.0145 67.9013-66.4233 68.1275-67.154C68.3537-67.8847 67.9452-68.6605 67.2151-68.8868L65.8931-69.2967C65.163-69.523 64.3878-69.1142 64.1616-68.3835C63.9355-67.6529 64.344-66.8771 65.0741-66.6507ZM71.4925-64.386L72.7745-63.8645C73.4826-63.5765 74.2899-63.9174 74.5777-64.6261C74.8655-65.3347 74.5248-66.1426 73.8167-66.4306L72.5346-66.9521C71.8266-67.2401 71.0193-66.8992 70.7315-66.1905C70.4437-65.4819 70.7844-64.674 71.4925-64.386ZM77.4762-61.4012L78.6438-60.6576C79.2886-60.247 80.144-60.4372 80.5543-61.0826C80.9647-61.7279 80.7746-62.584 80.1297-62.9946L78.9622-63.7382C78.3173-64.1488 77.4619-63.9586 77.0516-63.3132C76.6412-62.6679 76.8313-61.8119 77.4762-61.4012ZM81.703-57.1332L82.234-55.8541C82.5273-55.1478 83.3372-54.8131 84.043-55.1065C84.7488-55.4 85.0833-56.2106 84.79-56.917L84.259-58.196C83.9658-58.9023 83.1559-59.237 82.45-58.9436C81.7442-58.6501 81.4098-57.8395 81.703-57.1332ZM80.4657-51.9504L79.6016-50.8686C79.1244-50.2711 79.2216-49.3995 79.8186-48.9219C80.4157-48.4444 81.2865-48.5416 81.7637-49.1391L82.6278-50.221C83.105-50.8185 83.0079-51.69 82.4108-52.1676C81.8138-52.6452 80.9429-52.5479 80.4657-51.9504ZM75.4963-47.6501L74.3479-46.8772C73.7137-46.4503 73.5453-45.5897 73.9719-44.955C74.3985-44.3203 75.2584-44.1518 75.8926-44.5787L77.041-45.3516C77.6752-45.7785 77.8436-46.6391 77.417-47.2738C76.9905-47.9085 76.1305-48.077 75.4963-47.6501ZM69.6013-44.224L68.3702-43.5912C67.6903-43.2418 67.4222-42.4069 67.7714-41.7265C68.1206-41.046 68.9548-40.7777 69.6347-41.1272L70.8658-41.7599C71.5457-42.1093 71.8138-42.9442 71.4646-43.6246C71.1154-44.3051 70.2812-44.5734 69.6013-44.224ZM63.5404-41.3656L62.272-40.8117C61.5714-40.5058 61.2513-39.6894 61.557-38.9883C61.8627-38.2873 62.6784-37.9669 63.379-38.2729L64.6474-38.8268C65.3479-39.1327 65.668-39.949 65.3623-40.6501C65.0566-41.3512 64.2409-41.6715 63.5404-41.3656ZM57.3195-38.8091L56.0294-38.3077C55.3169-38.0308 54.9636-37.2283 55.2403-36.5153C55.517-35.8022 56.3188-35.4487 57.0313-35.7255L58.3214-36.2269C59.0339-36.5038 59.3872-37.3063 59.1105-38.0193C58.8338-38.7324 58.032-39.0859 57.3195-38.8091ZM50.8567-36.4139L49.5523-35.9514C48.8318-35.6959 48.4547-34.9044 48.7099-34.1834C48.9651-33.4624 49.7561-33.0849 50.4765-33.3404L51.781-33.8029C52.5015-34.0583 52.8786-34.8499 52.6234-35.5709C52.3682-36.2919 51.5772-36.6693 50.8567-36.4139ZM44.3303-34.1861L43.0157-33.7532C42.2896-33.5141 41.8948-32.7313 42.1337-32.0047C42.3726-31.2781 43.1548-30.8829 43.8808-31.122L45.1954-31.5549C45.9214-31.794 46.3163-32.5768 46.0774-33.3034C45.8385-34.03 45.0563-34.4252 44.3303-34.1861ZM37.7336-32.0568L36.4178-31.6275C35.6911-31.3905 35.294-30.6087 35.5309-29.8815C35.7678-29.1542 36.5489-28.7568 37.2756-28.9939L38.5914-29.4231C39.3181-29.6602 39.7152-30.4419 39.4783-31.1692C39.2414-31.8964 38.4603-32.2938 37.7336-32.0568ZM31.1555-29.8402L29.8487-29.3844C29.1269-29.1327 28.7457-28.3431 28.9972-27.6208C29.2488-26.8985 30.0378-26.517 30.7595-26.7687L32.0664-27.2245C32.7881-27.4762 33.1693-28.2658 32.9178-28.9881C32.6663-29.7104 31.8773-30.0919 31.1555-29.8402ZM24.6139-27.4644L23.3198-26.9735C22.6051-26.7024 22.2453-25.9028 22.5162-25.1876C22.7871-24.4723 23.5861-24.1122 24.3008-24.3834L25.5949-24.8742C26.3096-25.1453 26.6694-25.945 26.3985-26.6602C26.1276-27.3755 25.3286-27.7355 24.6139-27.4644ZM18.1426-24.876L16.8682-24.3358C16.1644-24.0375 15.8355-23.2246 16.1336-22.5203C16.4317-21.8159 17.2439-21.4868 17.9477-21.7851L19.2221-22.3253C19.9259-22.6236 20.2548-23.4365 19.9567-24.1408C19.6586-24.8452 18.8464-25.1743 18.1426-24.876ZM11.7659-21.9618L10.5267-21.3452C9.84225-21.0047 9.56324-20.1734 9.90348-19.4885C10.2437-18.8035 11.0744-18.5243 11.7588-18.8648L12.998-19.4813C13.6825-19.8218 13.9615-20.6531 13.6212-21.3381C13.281-22.023 12.4503-22.3023 11.7659-21.9618ZM5.59418-18.49L4.43465-17.7339C3.79427-17.3164 3.61337-16.4583 4.03062-15.8174C4.44787-15.1766 5.30526-14.9955 5.94565-15.4131L7.10517-16.1692C7.74556-16.5867 7.92645-17.4448 7.50921-18.0857C7.09196-18.7266 6.23457-18.9076 5.59418-18.49ZM0.00391993-13.6381L-0.826656-12.5302C-1.28537-11.9184-1.16162-11.0503-0.550244-10.5912C0.0611282-10.1321 0.928605-10.256 1.38732-10.8678L2.2179-11.9757C2.67661-12.5875 2.55286-13.4556 1.94148-13.9147C1.33011-14.3738 0.462634-14.2499 0.00391993-13.6381ZM-0.0884536-5.53278L0.794255-4.46607C1.28176-3.87695 2.15418-3.79488 2.74285-4.28276C3.33152-4.77064 3.41352-5.64373 2.92602-6.23285L2.04331-7.29956C1.5558-7.88868 0.683388-7.97076 0.0947185-7.48287C-0.493951-6.99499-0.57596-6.1219-0.0884536-5.53278ZM6.19739-1.29736L7.46307-0.737163C8.16208-0.427775 8.97936-0.744068 9.28851-1.44362C9.59766-2.14318 9.28161-2.96109 8.58259-3.27048L7.31691-3.83067C6.6179-4.14006 5.80062-3.82377 5.49147-3.12421C5.18232-2.42466 5.49837-1.60675 6.19739-1.29736ZM12.9479 1.09322L14.2771 1.47895C15.0112 1.69198 15.7788 1.26913 15.9917 0.534472C16.2046-0.200181 15.782-0.968432 15.0479-1.18146L13.7188-1.56719C12.9847-1.78022 12.217-1.35736 12.0042-0.622711C11.7913 0.111943 12.2138 0.880193 12.9479 1.09322ZM19.7865 2.81169L21.1384 3.10831C21.8849 3.27212 22.6229 2.79922 22.7866 2.05206C22.9503 1.30489 22.4777 0.566385 21.7311 0.402567L20.3793 0.105948C19.6327-0.0578704 18.8948 0.415029 18.7311 1.1622C18.5674 1.90937 19.0399 2.64787 19.7865 2.81169ZM26.6788 4.16633L28.0417 4.40719C28.7943 4.54022 29.5123 4.03742 29.6452 3.28416C29.7781 2.5309 29.2757 1.81242 28.523 1.67939L27.1602 1.43853C26.4075 1.3055 25.6896 1.8083 25.5566 2.56156C25.4237 3.31482 25.9261 4.0333 26.6788 4.16633ZM33.5843 5.28051L34.9534 5.48258C35.7096 5.59418 36.4129 5.0712 36.5245 4.31446C36.636 3.55773 36.1134 2.85381 35.3572 2.74221L33.9881 2.54014C33.232 2.42854 32.5286 2.95152 32.4171 3.70825C32.3056 4.46498 32.8281 5.16891 33.5843 5.28051ZM40.4962 6.22295L41.8693 6.39609C42.6276 6.49172 43.3198 5.95401 43.4153 5.1951C43.5109 4.43618 42.9736 3.74344 42.2153 3.64781L40.8422 3.47467C40.0839 3.37905 39.3917 3.91675 39.2961 4.67567C39.2006 5.43459 39.7378 6.12733 40.4962 6.22295ZM47.0999 7.00084L48.4755 7.15228C49.2353 7.23592 49.9189 6.68735 50.0025 5.92702C50.086 5.16669 49.5379 4.48252 48.7782 4.39888L47.4025 4.24744C46.6428 4.1638 45.9591 4.71236 45.8756 5.4727C45.792 6.23303 46.3401 6.9172 47.0999 7.00084ZM54.0089 7.7131L55.3865 7.8461C56.1473 7.91956 56.8235 7.36188 56.8969 6.6005C56.9703 5.83912 56.4131 5.16235 55.6523 5.08889L54.2747 4.95589C53.5139 4.88244 52.8377 5.44011 52.7643 6.20149C52.6909 6.96287 53.2481 7.63964 54.0089 7.7131ZM60.9193 8.34049L62.2983 8.4582C63.0598 8.52321 63.7299 7.95806 63.7948 7.19591C63.8598 6.43376 63.2951 5.76322 62.5335 5.69821L61.1546 5.58051C60.393 5.5155 59.723 6.08064 59.658 6.84279C59.5931 7.60494 60.1578 8.27549 60.9193 8.34049ZM67.8459 8.89809L69.2259 9.00282C69.988 9.06066 70.6527 8.48923 70.7105 7.72651C70.7683 6.96378 70.1973 6.29858 69.4352 6.24074L68.0552 6.13601C67.2931 6.07817 66.6284 6.64959 66.5706 7.41232C66.5128 8.17504 67.0838 8.84025 67.8459 8.89809ZM74.7607 9.39413L76.1415 9.48771C76.9041 9.53939 77.5641 8.96262 77.6158 8.19945C77.6674 7.43628 77.0911 6.77572 76.3285 6.72403L74.9477 6.63045C74.1851 6.57877 73.5251 7.15554 73.4734 7.91871C73.4218 8.68188 73.9981 9.34244 74.7607 9.39413ZM81.6795 9.83804L83.0609 9.92189C83.8238 9.9682 84.4798 9.38679 84.5261 8.62328C84.5724 7.85977 83.9914 7.20327 83.2285 7.15696L81.8471 7.07311C81.0842 7.0268 80.4282 7.60821 80.3819 8.37172C80.3356 9.13524 80.9166 9.79173 81.6795 9.83804Z"/>
  </g>
 </g>
</svg>
